<svg id="aca8f8be-684f-47e3-be0f-0192c7bec0a7" data-name="Capa 1" xmlns="http://www.w3.org/2000/svg" width="51.64mm" height="72.8mm" viewBox="0 0 146.38 206.37"><defs><style>.e4c2d21c-02a8-4624-a00b-ca3ce78c9c59{fill:#a79fab;}.bbeaa6df-edff-4d23-a1b2-e2c0f8d00082{fill:#050605;}.ba38bf83-9acd-41c6-a82f-e76689ab394c{fill:#0e0d0e;}.b20e28f1-d4e6-43e1-871a-af2132023e5b{fill:#4b235e;}.af00769b-55bb-443c-8485-e9c0fb81e1f6{fill:#b5a2be;}.a8326217-58f6-43fe-9ec3-902222b7b9f1{fill:#642c80;}.e2a9e0c0-e929-4234-b98a-75ddde2aea92{fill:#a284b0;}.b3fe951f-6d49-47a6-81e0-7fad9d34e995{fill:#47423d;}.eb4b3d8c-8a12-4451-a3a8-bd3aaaeb0253{fill:#262626;}.a43a283c-5694-4a7d-9fed-db9107d6e6ac{fill:#425547;}.e3aeac0d-9416-4f4e-afa4-e40b77caa68c{fill:#393939;}.f954aaf2-1020-44d2-8628-d2820ed1f447{fill:#826d56;}.ad46a700-9b7f-4e0c-bc62-bd1c931f94da{fill:#cccbcb;}.f4aa7c6f-2ef0-4136-9329-379194bb1650{fill:#896c30;}</style></defs><path class="e4c2d21c-02a8-4624-a00b-ca3ce78c9c59" d="M76.77,35.31c-.16.32-.43.54-.32,1,0,.13.31.22.43.22,1.15,0,3.38-4,3.53-5.17a4.12,4.12,0,0,1,2.33,2.32c.29.67.33,2.32,1.09,2.38s.61-.65.8-.76,1-.15,1.4-.3c1.94-.73,2.62-2.08,4.4-2.84.74.17.92,4.79,1.33,5.58-.49.71-2.71,2.72-2.11,3.59.4.57,1.17-.36,1.43-.64,5.07-5.35,9.84-11.35,14.86-16.77,2.73-3,5-5.59,9-6.84,4.39-1.39,9.34-.75,13.88-.9a6.52,6.52,0,0,1-4.17,1.13l-.24.23v.53a9.42,9.42,0,0,1,5.17,1.71c.11.07.26,0,.2.27-.11.69-3.27,2-3.95,2.41.11.47-.26.86-.31,1.24-.45,3.71.17,7.72-.17,11.37-.25,2.76-3,6.13-5.42,7.38a7.1,7.1,0,0,1-1.28.6l-1.34-2.47c-.06-.4,1.28-.82.86-2.12-.19-.59-1.53-1.49-2-2.31a11.64,11.64,0,0,1-.64-2l-.66-.2c-1.3.29.4,3.33,1,4,.38.43.92.62,1.1,1.1a4.31,4.31,0,0,1-1.41,1c-.53.14-1.68-.13-1.6.78.1,1.09,2,.06,2.59.24l.74,1.89a1.74,1.74,0,0,0-1.58,1.91c.1.11,1.16-.47,1.48-.44a26.48,26.48,0,0,1,2.63,1.3,5.06,5.06,0,0,1,2.69,4,8.48,8.48,0,0,1-5.17-1.55c-.5-.31-3.06-2.76-3-.87,0,1.27,3.85,3.16,5,3.47a14.05,14.05,0,0,0,2.67,6c.15.39-.63.16-1,.31-1.07.52,1.08,3.38,1.58,4a11.77,11.77,0,0,0,4.91,3.31c1.23.5,2.37.12,1.24,1.88a8.56,8.56,0,0,1-5.44,3c-.78,0-2.6-.62-2.85.31s1.83,1,2.46,1c-.31.82.3,1.81.71,2.54s3.78,5.16,3.4,5.53a1.11,1.11,0,0,1-.62-.09c-.41-.16-1.65-.93-2.11-1.21S121.32,75,121,75c-1.41.64,1.94,2.41,2,2.6-.45,2,.06,4.73-.79,6.64A6.24,6.24,0,0,1,119,86.81c-.91.24-2,0-2.74.62l.16.62,1.26.09,1.12,3.62c-1.83.18-4,.29-5.69-.55-.6-.29-1.63-1.39-2.13-1.36-.92.07,0,1.36.06,1.84.28,1.91.06,3.09-2.1,2.9-.54,0-1.23-.42-1.59-.44a15.7,15.7,0,0,0-4.76.92,14.68,14.68,0,0,1-4.89.48c-.69-.06-1.78-.5-2.37-.46s-1,.56-1.46.75c-2.93,1.15-7.26,1-10.4.66-.84-.09-2.9-.68-3.48-.63a.68.68,0,0,0-.53.42.37.37,0,0,0,.13.45c.47.43,3.17.72,3.17,1a3.52,3.52,0,0,1-1.55,1,20.08,20.08,0,0,1-8.49.68c-.94-.11-1.84-.47-2.77-.63.34-.28.34-1.11-.08-1.11H59.78a14.73,14.73,0,0,1-3.08-.87c-1.42-.57-2.72-1.89-4.19-1.82-1.91.1-3.07,1.09-5-.25-.41-.28-1.12-1.3-1.52-1.34s-.94.85-1.34,1.2c-1.19,1.06-3.4,1.87-4.91,1.24l.16-1.85c.72-.4,1.34-.66,1.59-1.53-.87-.39-1.53.17-2.4.37-2.24.5-4.7,1.22-6.29-.92a9.58,9.58,0,0,0,1.11-3.32c0-1.33-.87-1.09-1.21-.07-3.66-1.12-1.86-6.11-2.11-9-.21-2.3-.83-1-2.09-.66-1.59.49-3.59.13-3.61-1.89,0-.55.82-1,1.19-1.47.63-.75,3.15-3.63,3.21-4.38,0-.24-.37-.47-.29-.53.59.05,1.26.06,1.28-.7-1.06-.77-2.48-.66-3.69-1.08a8.9,8.9,0,0,1-4.39-3.91c1.48-.6,3.31-.67,4.74-1.35a10.55,10.55,0,0,0,4-4.08,45.24,45.24,0,0,0,3.48-7.67c.46-.11,1,.08,1.44-.06s.86-.85,0-1A43,43,0,0,0,31,50.49c-.4,0-1.74-.2-1.91-.47l0-.21A4.32,4.32,0,0,1,31.43,47a29.39,29.39,0,0,1,4-.59c.72,0,2.93,1.7,2.46-.4-.24-.28-.61-.15-.77-.26s-.16-.49-.34-.68-1.6-.59-1.6-1.26c0-.35,2.34-2.36,2.53-3l1.11-.31c-.36-1.16-2.38-1-2.38-2.37,0-1.2,2.55-3.08,2.54-3.8a.65.65,0,0,0-1-.48c-.11.06-1.4,1.53-1.58,1.75-1.59,2-1.86,3.33.47,4.9a17.74,17.74,0,0,1-1.41,1.75c-.54.59-1.77,1.08-1.43,2.12-2.64-.84-5-3.51-6.39-5.86-2.46-4.24.79-8.44,0-12.83a12.26,12.26,0,0,0-.67-2c-.11-.34.25-.78-.35-1.07-1.07-.54-2.92-.28-3.37-2,0-.28,5.13-.75,4.73-2.34-.16-.63-2-.81-2.63-1a4.85,4.85,0,0,1-3.35-2.57,23.44,23.44,0,0,0,5,1.1c3.25.22,7.49-.24,10.54.2,1.62.23,4.34,2.17,5.64,3.22,4.31,3.45,6.46,9.07,9.22,13.71,1,1.63,2.17,3.1,3.19,4.71s2.16,4.19,3.28,5.73c.54.74,1.34.64,1.23-.43s-1.43-2.11-1.41-3.26c.25.16.6.57.77.05s-.19-2.22-.14-3c0-.54.6-3.44.95-3.65,1-.63,2.57,1.76,3.26,2.12,1.17.61,2.5-.8,3.23-1.63s1.71-3,2.75-2.95c1.75.07,3.32,3.52,4.35,4.64s1.17.59,1-.67c.8-.16,1.23.52,1.9.79M51,48c-.4-2.15-3.91-2.13-4.82-4.11-.53-1.17.28-3.29.4-4.51.52-5.46-4-11.63-7.44-15.49-1.73-1.93-3.54-2.68-5.73-3.91-.5-.28-1.45-1.24-2-.85-.4.28,0,.95.25,1.2,1.46,1.52,4.44,2.24,6.25,4.18,3.24,3.51,7.74,9.71,7.26,14.71C45,41,44,42.93,45,44.69A7.75,7.75,0,0,0,47.89,47,4.81,4.81,0,0,0,51,48m51.14-1.58c-1.66.14-3.67,0-5.37,0-.32,0-.6,1,.78,1.11a25.24,25.24,0,0,0,7.33-.43,4.62,4.62,0,0,0,2.64-2.58c.29-1.09-.6-4.37-1.28-5.37-.35-.51-.89-.56-.85-1.32.16-2.67,2-6.06,3.41-8.32,2.94-4.83,4.94-7.12,10.89-7.76,1-.11,3.15.11,4-.43.15-.1.28,0,.2-.36-.52-.57-4.81-.28-5.77-.16-5.53.71-7.92,4-10.58,8.4-1.2,2-3.89,7-3.1,9.24.32.91,1.11,1.4,1.51,2.76.49,1.7,1.09,3.75-.92,4.62a15,15,0,0,1-2.88.6M70.72,60.09a2.11,2.11,0,0,0,.36-1,22.51,22.51,0,0,0-.92-2.73,9,9,0,0,0-3.82-3.93c-1.52-.87-2.4-1.43-4-.36-2.21,1.46-.4,2.75.5,4.19,1.06,1.68,1.48,3.14,3.63,3.8.93.28,3.54.67,4.26,0m18.19-7.35c-.64-.62-3.4-.09-4.23.2A10.3,10.3,0,0,0,80.22,57c-.65,1.44-.66,2,.81,2.73,1,.54,3.61.93,4.59.3,1.14-.73,3.15-4.91,3.42-6.23.06-.32.12-.84-.13-1.08M51.6,55c-5.23.81-10.64,7.5-11,12.69C39.93,76.12,45,77.92,52,80.1c3.41,1.07,10.24,3.1,13.62,2.63,2.63-.36,4.9-3.64,5.27-6.11.81-5.36-1.23-7.15-4-11.06-2.25-3.12-5.59-8.47-9.32-9.81A14.12,14.12,0,0,0,51.6,55m45.21,0c-2.75.35-7.8,4.36-9.69,6.44a28.59,28.59,0,0,0-5.48,9.22c-1.57,3.87-.68,8.5,3.4,10.26,2.55,1.09,6.56,1.27,9.36,1.39,4.82.2,13.14-3.1,15.12-7.8s1.19-9.19-1.6-13.47c-2-3.15-7.25-6.54-11.11-6M76.3,85.75c.21,1,.51,3.67,2,2.53.2-2.88-2.71-9.77-4.27-3.16-.2.86-.83,3.63.09,4,1.37.61,1.5-2.35,1.88-3.18.08-.18-.08-.28.33-.22"/><path class="bbeaa6df-edff-4d23-a1b2-e2c0f8d00082" d="M96.81,55c3.86-.5,9.06,2.89,11.11,6,2.78,4.29,3.66,8.62,1.6,13.47s-10.3,8-15.12,7.8c-2.8-.11-6.81-.3-9.36-1.39-4.08-1.75-5-6.39-3.4-10.26a28.59,28.59,0,0,1,5.48-9.22C89,59.32,94.06,55.31,96.81,55m7.63,22.25a9.07,9.07,0,0,0,1.34-.78c5.19-4.29,2.92-14-2.34-17.27-2.24-1.39-4.86-3-7.49-1.9C92.12,58.84,87.32,63.62,85,67,84.2,68.26,84,69.78,83.1,71l4.4-.27c1.79-4.42,6.78-4.66,5.72,1.13,2.75.09,4.9,1.38,7.32,2.41.83.35,3.82,1.18,4.14,1.87a.76.76,0,0,1-.24,1c-4.13-.7-7.54-3.93-11.84-3.93-1.18,3.88-6.57,3.59-5.55-1H84.44c-.14,0-1.29.21-1.48.27s-.4.09-.48.31a13.1,13.1,0,0,0,0,2.35c.41,4.41,4.53,4.87,8.14,5.14,5.47.41,9.18,0,13.83-3M90.69,68.36c-.23.69-1,1.08-1.4,1.69-.64.87-1.88,4-.39,4.44,2.35.7,4.5-5.23,1.79-6.13"/><path class="bbeaa6df-edff-4d23-a1b2-e2c0f8d00082" d="M51.59,55a14.16,14.16,0,0,1,5.93.79c3.73,1.34,7.07,6.69,9.32,9.81,2.81,3.91,4.85,5.7,4,11.06-.37,2.47-2.64,5.75-5.27,6.11C62.23,83.2,55.4,81.17,52,80.1c-7-2.18-12.06-4-11.42-12.45.39-5.19,5.8-11.88,11-12.69M69,72.31a6.85,6.85,0,0,0-1.13-2.58c-2.2-3.36-5.29-6.74-7.79-9.92-.5-.64-.37-1-1.24-1.6-4.91-3.27-9.42-2-13.15,2.24A12.89,12.89,0,0,0,42.3,70.66c.25,3.15,2.42,4.83,5.16,5.93l.2,0A5.09,5.09,0,0,1,50,74.66a13.78,13.78,0,0,1,9.27-1.72,4.87,4.87,0,0,1,1.42-4.35c1.23-1.13,1.82-1.19,3,0a13.39,13.39,0,0,1,2.07,3.06,7.93,7.93,0,0,1,3.29.66m-4.94,3.75a3.68,3.68,0,0,0,.6-2.81c-.16-.62-2.36-4-2.83-3.93-1.6,1.19-1.48,3.88-.6,5.47.36.66,2.21,1.8,2.83,1.27m-15.45,1a112.38,112.38,0,0,0,10.94,3.22c2.9.65,6.41,1.71,8.57-1,1.42-1.78,1.37-4.32,1.2-6.46-.25,0-.18.3-.41.46-.7.49-1.77-.33-2.59-.15a4.81,4.81,0,0,1-1.53,4.41c-1.88,1-5.32-1.25-5.27-3.46-.67.33-1.18,0-1.81,0a13.76,13.76,0,0,0-7.36,1.67c-.22.11-2,1.07-1.74,1.34"/><path class="ba38bf83-9acd-41c6-a82f-e76689ab394c" d="M102.14,46.38a15,15,0,0,0,2.88-.6c2-.87,1.41-2.92.92-4.62-.4-1.36-1.19-1.85-1.51-2.76-.79-2.24,1.9-7.25,3.1-9.24,2.66-4.44,5-7.69,10.58-8.4,1-.12,5.25-.41,5.77.16.08.37,0,.26-.2.36-.84.54-3,.32-4,.43-6,.64-8,2.93-10.89,7.76-1.38,2.26-3.25,5.65-3.41,8.32,0,.76.5.81.85,1.33.68,1,1.57,4.27,1.28,5.36a4.62,4.62,0,0,1-2.64,2.58,25.24,25.24,0,0,1-7.33.43c-1.38-.12-1.1-1.11-.78-1.11,1.7,0,3.71.14,5.37,0"/><path class="ba38bf83-9acd-41c6-a82f-e76689ab394c" d="M51,48A4.81,4.81,0,0,1,47.89,47,7.75,7.75,0,0,1,45,44.69c-1-1.76,0-3.72.13-5.51.48-5-4-11.2-7.26-14.71-1.81-1.94-4.79-2.66-6.25-4.18-.25-.25-.65-.92-.25-1.2.57-.39,1.52.57,2,.85,2.19,1.23,4,2,5.73,3.91,3.47,3.86,8,10,7.44,15.49-.12,1.22-.93,3.34-.4,4.51.91,2,4.42,2,4.82,4.11"/><path class="ba38bf83-9acd-41c6-a82f-e76689ab394c" d="M70.72,60.09c-.72.67-3.33.28-4.26,0-2.15-.66-2.57-2.12-3.63-3.8-.9-1.44-2.71-2.73-.5-4.19,1.61-1.07,2.49-.51,4,.36a9,9,0,0,1,3.82,3.93,22.51,22.51,0,0,1,.92,2.73,2.11,2.11,0,0,1-.36,1m-1.38-1.22c-.23-2.92-2.53-4.63-4.9-5.95L63,53.5c-.1.5.36.69.6,1,.69,1,1.65,3.07,2.64,3.69a7.92,7.92,0,0,0,3.08.63"/><path class="ba38bf83-9acd-41c6-a82f-e76689ab394c" d="M88.91,52.74c.25.24.19.76.13,1.08-.27,1.32-2.28,5.5-3.42,6.23-1,.63-3.56.24-4.59-.3-1.47-.77-1.46-1.29-.81-2.73a10.3,10.3,0,0,1,4.46-4.08c.82-.29,3.59-.82,4.23-.2m-1.07,1.07c-2.58-.28-4.42,1.3-6,3.08-.19.21-1.2,1.37-1.11,1.5,1,.38,3.25,1.1,4.17.62s1.23-1.84,1.65-2.62a7.65,7.65,0,0,0,1.3-2.58"/><path class="ba38bf83-9acd-41c6-a82f-e76689ab394c" d="M76.3,85.75c-.41-.06-.25,0-.33.22-.38.83-.51,3.79-1.88,3.18-.92-.4-.29-3.17-.09-4,1.56-6.61,4.47.28,4.27,3.16-1.46,1.14-1.76-1.55-2-2.53"/><path class="b20e28f1-d4e6-43e1-871a-af2132023e5b" d="M104.44,77.21c-4.65,3-8.36,3.42-13.83,3-3.61-.28-7.73-.73-8.14-5.14a13.1,13.1,0,0,1,0-2.35c.08-.22.3-.26.48-.32s1.34-.26,1.48-.26h2.61c-1,4.57,4.37,4.86,5.56,1,4.29,0,7.7,3.23,11.83,3.92Z"/><path class="af00769b-55bb-443c-8485-e9c0fb81e1f6" d="M90.69,68.36c2.71.9.56,6.83-1.79,6.13-1.49-.44-.25-3.57.39-4.44.44-.61,1.17-1,1.4-1.69"/><path class="a8326217-58f6-43fe-9ec3-902222b7b9f1" d="M104.44,77.21v-.16a.75.75,0,0,0,.24-.94c-.32-.69-3.31-1.52-4.14-1.87-2.42-1-4.57-2.32-7.32-2.41,1.06-5.79-3.93-5.55-5.72-1.13L83.1,71C84,69.78,84.2,68.26,85,67c2.3-3.42,7.1-8.21,10.93-9.78,2.63-1.08,5.25.5,7.49,1.9,5.26,3.27,7.54,13,2.34,17.27a9.07,9.07,0,0,1-1.34.78"/><path class="a8326217-58f6-43fe-9ec3-902222b7b9f1" d="M69,72.31a7.93,7.93,0,0,0-3.29-.66,13.39,13.39,0,0,0-2.07-3.06c-1.2-1.19-1.79-1.13-3,0a4.85,4.85,0,0,0-1.43,4.35A13.78,13.78,0,0,0,50,74.66a5.09,5.09,0,0,0-2.29,1.9l-.2,0c-2.74-1.1-4.91-2.78-5.16-5.93a12.89,12.89,0,0,1,3.41-10.21c3.73-4.19,8.24-5.51,13.15-2.24.87.58.74,1,1.24,1.6,2.5,3.18,5.59,6.56,7.79,9.92A6.85,6.85,0,0,1,69,72.31"/><path class="b20e28f1-d4e6-43e1-871a-af2132023e5b" d="M48.63,77.05c-.25-.27,1.52-1.23,1.74-1.34A13.76,13.76,0,0,1,57.73,74c.63,0,1.14.34,1.81,0,0,2.21,3.39,4.51,5.27,3.46a4.81,4.81,0,0,0,1.53-4.41c.82-.18,1.89.64,2.59.15.23-.16.16-.48.41-.46.17,2.14.22,4.68-1.2,6.46-2.16,2.73-5.67,1.67-8.57,1a112.38,112.38,0,0,1-10.94-3.22"/><path class="af00769b-55bb-443c-8485-e9c0fb81e1f6" d="M64.08,76.06c-.62.53-2.47-.61-2.83-1.27-.88-1.59-1-4.28.6-5.47.47-.08,2.67,3.31,2.83,3.93a3.67,3.67,0,0,1-.6,2.81"/><path class="e2a9e0c0-e929-4234-b98a-75ddde2aea92" d="M69.34,58.87a7.92,7.92,0,0,1-3.08-.63c-1-.62-2-2.67-2.64-3.69-.24-.36-.7-.55-.6-1l1.42-.58c2.37,1.32,4.67,3,4.9,5.95"/><path class="e2a9e0c0-e929-4234-b98a-75ddde2aea92" d="M87.84,53.81a7.65,7.65,0,0,1-1.3,2.58c-.42.78-.76,2.16-1.65,2.62s-3.18-.24-4.17-.62c-.09-.13.92-1.29,1.11-1.5,1.59-1.78,3.43-3.36,6-3.08"/><path class="b3fe951f-6d49-47a6-81e0-7fad9d34e995" d="M75.66,151.38a36.58,36.58,0,0,1,.29,9.69,11.33,11.33,0,0,0-2.34,2.25c-1.35,1.64-3.1,3.62-3.32,5.84-.19,1.9.29,3.77.28,5.66a19.35,19.35,0,0,1-3.44,3l-7.75,2.61c0-1.39.06-2.81.16-4.19.08-1.09.52-1.34,0-2.57s-1.76-1.81-2.41-3a36.28,36.28,0,0,0-3.66-.61,76.15,76.15,0,0,1-12.77-4.06c-.2-.2,4-3.43,4.35-3.64,1.49-.87,1.19-.23,2.34.34,2.42,1.21,5.24,1.66,7.82,2.3A41.16,41.16,0,0,0,60,166.36c.76.06,1.7-.3,2.56,0-.55.5-1.09,1.09-1.66,1.57-.84.71-2.56,1.45-2.13,2.69.3.06.5-.25.74-.29s.63.18.68.14a1.7,1.7,0,0,1,.39-.8A36.5,36.5,0,0,1,63.89,167c.79-.66,2.24-1.64,2.43-2.62.14-.68.67-2.84.66-3.31,0-.67-.25-1-.71-.39-.7,1.08-1,3-1.54,4a1.34,1.34,0,0,1-.77.5,7.88,7.88,0,0,1-3.07.09c-.93-.1-1.85-.34-2.77-.48l2.49-6.6c.15-.48-.13-.89-.11-1.36,0-1.12.9-2.53.46-3.74,4.94-.28,9.72-1.8,14.7-1.73"/><path class="eb4b3d8c-8a12-4451-a3a8-bd3aaaeb0253" d="M58.12,176.67c-.41-.11,0-1.24-.63-1.1l.31,4.9a56.25,56.25,0,0,1-7-.52c-2.69-.51-6.47-1.25-8.82-2.56-.81-.46-2-1.22-2.3-2.13-.6-2-1.08-6.19.06-8,.07-.12.12-.27.26-.34l7.32,3a40.83,40.83,0,0,0,8.8,2.1c2,.15,1.92,3.21,2,4.73"/><path class="eb4b3d8c-8a12-4451-a3a8-bd3aaaeb0253" d="M60.17,153.11l-3.32,11.23c-.41-.05-.55-.37-1-.52-.65-.25-4.39-.88-4.53-1.09.07-.84-.52-1.41-.77-2.14-.69-1.94-.46-4.15-.55-6.13,0-.89-.24-1.87-.28-2.77a26.75,26.75,0,0,0,10.43,1.42"/><path class="b3fe951f-6d49-47a6-81e0-7fad9d34e995" d="M49,151.22a1.43,1.43,0,0,0-.33.7,29.83,29.83,0,0,0,.62,8.41,10.45,10.45,0,0,0,.82,1.95c-.49.35-3.5-1.12-3.93-1.68a27.19,27.19,0,0,1-2-4.36,16.32,16.32,0,0,1-.59-8l3.86,1.92A2.63,2.63,0,0,0,49,151.22"/><path class="eb4b3d8c-8a12-4451-a3a8-bd3aaaeb0253" d="M71.87,173.67a27.15,27.15,0,0,1,.48-6.8c.11,0,.27.15.37.12.38-.1,2.11-3.83,3.1-4.07l-1.31,7.93a7.38,7.38,0,0,1-2.64,2.82"/><path class="b3fe951f-6d49-47a6-81e0-7fad9d34e995" d="M96.69,164.18H93c-.61,0-1.08-3.54-1.35-4.11l-.32.63-.63-.16c.25,1,.62,1.87.91,2.82s.49,2.6,1.23,3.5a33.8,33.8,0,0,0,3.41,2.45,32.88,32.88,0,0,0,3.68,2c.18.08.51.21.55.4l-.45,8.44c-1.25.06-2.47-.16-3.72-.16-.46,0-.84.17-1.26.17a23.94,23.94,0,0,1-6.77-1.93c-2.14-1.23-3.75-4.49-5.36-6.34-.35-.63.24-1.13.4-1.73a21,21,0,0,0,.26-7.63c-.25-1.55-2-2.89-2.8-4.15l-.19-6.22c4.18,3.44,9.81,2.69,14.86,2.92.56.39.22,5.59.33,6.63a7.17,7.17,0,0,0,.93,2.47"/><path class="eb4b3d8c-8a12-4451-a3a8-bd3aaaeb0253" d="M101,180.47c.24-3.17,0-6.48,1.53-9.34.78-.28,1.61-.82,2.38-1.06,2.56-.75,3.94-.3,6.29-.51,1.49-.13,2.31-.63,4.11-.48,1,.08,1.8.33,1.8,1.49a27.26,27.26,0,0,1-1.54,6.21,17.8,17.8,0,0,1-1.2,2.12c-.62.45-5.58.64-6.92,1-.74.19-2.1,1-2.59,1.06-1,.1-2.72-.63-3.86-.47"/><path class="eb4b3d8c-8a12-4451-a3a8-bd3aaaeb0253" d="M106.81,152.64c-.59,2.4-.71,4.9-1.13,7.33-.19,1.1-.31,2.92-1.34,3.4a29.19,29.19,0,0,1-4.89.82c-.37,0-1.69-.27-1.79-.58.06-.64-.19-1.25-.19-1.88a39.34,39.34,0,0,0,.15-4.41c-.08-.76-.32-1.56-.46-2.31a41,41,0,0,0,9.65-2.37"/><path class="b3fe951f-6d49-47a6-81e0-7fad9d34e995" d="M111.05,162.94c1.29,2,4.69,2,5.56,4.56-1.57-.31-3,.29-4.53.46-2.6.28-5.7.25-8.15.86a4.31,4.31,0,0,0-3.06,2l-1.65-1,.32-.15c0-.35-.13-.43-.33-.63-1.42-1.35-4.12-2.29-5.89-3.11-.69-.48-.41-1-.11-.77,0,0-.12.29.23.33a17.42,17.42,0,0,0,2.53-.18,60.49,60.49,0,0,0,8.37-.32c1.23-.18,1.45-1.34,2.82-.81Zm-4.24,1.4-.32.08-.16.39.48-.32Z"/><path class="eb4b3d8c-8a12-4451-a3a8-bd3aaaeb0253" d="M80.57,160.23a5.73,5.73,0,0,1,1.9,4.35c0,.68,0,1.39,0,2a12.17,12.17,0,0,1-.47,4h-.47a22.63,22.63,0,0,1-1-3.24Z"/><path class="b3fe951f-6d49-47a6-81e0-7fad9d34e995" d="M111,161.93c-1.58.27-3.07,1-4.71.83l.48-.63-.79.23.79-3.08.31.31c.39-2,.31-4,.71-6,.06-.33.32-.62.37-.9s-.14-.49-.12-.51,1.66-.73,2-.93.53-.56.91-.66c.48.11.85,2.72.88,3.24a35.34,35.34,0,0,1-.16,4.59,21,21,0,0,1-.67,3.52"/><polygon class="bbeaa6df-edff-4d23-a1b2-e2c0f8d00082" points="106.81 164.34 106.81 164.49 106.33 164.81 106.49 164.42 106.81 164.34"/><path class="bbeaa6df-edff-4d23-a1b2-e2c0f8d00082" d="M76.77,35.31c.37-.73,1-1.32,1.35-2.05.93-1.75,1-4.6,3.73-2.79a7,7,0,0,1,2.07,2.36c.52.86.09,1.31,1.52,1,2-.49,3.07-3,5-3s2.19,4.27,2.36,5.68c1.93-2.43,4.26-4.51,6.32-6.8,3.4-3.76,6.72-8.28,10.59-11.55,5-4.28,12.93-3,19-3.31.66,0,2.06-.55,2.54-.18.7.8-.21.91-.42,1.23s-.09.5-.32.76a7.18,7.18,0,0,1-2.2,1.19c-.09.11.62.53.74.6.31.19,1.93,1,2,1.13.84,1.22-2.33,2.83-3.14,3.2-.28.13-1.52.45-1.54.54-.21,3.85.31,8,0,11.85-.22,2.76-2.47,5.73-4.44,7.58A7,7,0,0,1,119.77,44l.1.32a6.6,6.6,0,0,1,3.84,5.15c.21,2.21-1.59,1.52-3.15,1.64a9.19,9.19,0,0,0,.87,2.38c.4.82,2.14,3.08,2.26,3.59.29,1.15-1.29,1-1.22,1.53A13.79,13.79,0,0,0,125,61.47a10.67,10.67,0,0,0,2.09,1.22,32.16,32.16,0,0,1,3.18,1.1c.61.46.37,1.43.17,2-.78,2.32-4.06,4.34-6.4,4.75.68,1.81,2.12,3.1,3.1,4.73.66,1.1,1.49,2.25,1,3.53-.86,2.12-3,0-4.23-.51v4.19a11.89,11.89,0,0,1-.55,1.82A5.35,5.35,0,0,1,118.82,88c-.22.24,2.49,3.71,1,4.82-1,.73-4.62.5-5.85.16-.73-.2-1.32-.7-2-.87v2.29c0,.75-2,1.58-2.69,1.58a24,24,0,0,0,2,1.9c1.26,1.39,2.49,3.39,3.8,4.9,1.89,2.16,3.61,3.15,4.62,6,1.09,3,3.39,11.94,2.5,14.75-.39,1.22-2.43,5.78-3.4,6.4-.23.15-.53.13-.71.25s-.42.74-1.17,1.2c-2.4,1.45-4.84.48-7.22-.5.18.61.17,1.53.33,2.09,0,.12,1.06,1.43,1.28,1.91.53,1.1,2.37,5.44,2.41,6.41.1,2-1.55,4.46-1.49,6.28,0,.42,1.22,2.66,1.43,3.3,1.12,3.34.18,7.76-.14,11.21,2,1.24,4.58,2.38,5.28,4.85,1.2,4.26-.37,9.81-2.59,13.55a5.49,5.49,0,0,1-3.79,3,46.54,46.54,0,0,1-10.86,1.48c-1.13-.06-2.37-.4-3.48-.48-3.83-.27-7.52,0-11.09-1.87-3.31-1.72-4-4.86-5.5-7.94a31.93,31.93,0,0,1-2.3-4.34c-1.42-4.16-.47-9.26-.31-13.59a54.77,54.77,0,0,1,.15-6.41c0-.06-1.35.38-1.26.7a75.54,75.54,0,0,1,.47,8.23c-.24,5.7-1.62,11.34-2.93,16.83-.06.26.14.51,0,.79s-.61.53-.79.81a17.05,17.05,0,0,1-.88,1.65c-1.3,1.64-7.35,4.46-9.45,4.94-6.8,1.53-13.11-.72-19.61-2.44-2.9-.77-5.83-.78-6.63-4.43-1.16-5.31-2-9.86,2.42-13.8.59-.52,3.47-2.42,3.49-2.92,0-.3-1.26-3-1.48-3.69s-.37-1.38-.5-2a23,23,0,0,1-.66-3.93c0-1.39.18-3,1.41-3.83-.71-3.55.15-6.91.8-10.38-.07-.26-2.51-.86-3-1.07A79.51,79.51,0,0,1,33,132c-4.22-2.35-4-3.61-6-7.57-.68-1.35-2.41-3.36-2.34-4.92a35.7,35.7,0,0,1,2-5.41,77.05,77.05,0,0,1,5.81-8.58C35,102.16,39,100.17,42,97.14c-2.33.59-4.15-.16-3.32-2.85-2,.39-3.51.73-5.42-.35a5.42,5.42,0,0,1-1.79-1.7c-.23-.83.84-2,.72-2.43C31,89,30.11,88.69,29.59,87.17c-.81-2.33,0-4.86-.09-7.27-2.87.93-5.95.13-5.84-3.39,1.46-2.13,3.43-3.92,5.05-5.94a10,10,0,0,1-7.11-4.18c-.85-1.3-1.31-2.12.32-2.85s3.43-.6,4.95-1.53c2.25-1.38,4.47-5.9,5.59-8.32.13-.28.83-1.79.68-1.93-1.11,0-4.48,0-5.13-1-1-1.45,1.37-4.72,3-5.06l2-.47a13.16,13.16,0,0,1-5.41-4.79c-1.76-2.47-2.2-3.53-2-6.67s1.83-6.19.75-9.45c-.29-.87-1.21-.72-2-1a4.44,4.44,0,0,1-2.4-2.19c-1-2.22,1.55-2.06,3-2.5.15-.05.36,0,.31-.24-1.53.11-4.85-2.68-4.4-4.16a9.82,9.82,0,0,1,.77-.81c.58-.31,2.49.51,3.29.66,5.08.9,11.54-.78,15.89,1.65C48.3,20,51.13,28,55.62,34.88c1,1.5,2,3,2.89,4.54,0-.76-.34-1.5-.4-2.29-.09-1.28.17-5.24,1.7-5.58,2-.46,3.29,1,4.55,2.33.42-.5,1.09-1,1.48-1.52C67.34,30.5,68,27.85,71,29.49c1.32.73,3.65,3.55,3.9,5,.22,1.26,0,1.69-1,.67s-2.6-4.57-4.35-4.64c-1,0-2.09,2.17-2.75,2.95s-2.06,2.24-3.23,1.63c-.69-.36-2.24-2.75-3.26-2.12-.35.22-.91,3.11-.95,3.65-.05.75.27,2.56.14,3s-.52.12-.77-.05c0,1.15,1.3,2.14,1.41,3.26s-.69,1.17-1.23.43c-1.12-1.54-2.17-4-3.28-5.73s-2.22-3.08-3.19-4.71c-2.76-4.64-4.91-10.26-9.22-13.71-1.3-1.05-4-3-5.64-3.22-3.05-.44-7.29,0-10.54-.2a23.67,23.67,0,0,1-5-1.1,4.88,4.88,0,0,0,3.36,2.57c.66.21,2.47.4,2.63,1,.4,1.59-4.73,2.06-4.73,2.34.45,1.73,2.3,1.47,3.37,2,.6.29.24.73.35,1.07a12.26,12.26,0,0,1,.67,2c.77,4.39-2.48,8.59,0,12.83,1.36,2.35,3.75,5,6.39,5.86-.34-1,.89-1.53,1.43-2.12a17.74,17.74,0,0,0,1.41-1.75c-2.33-1.57-2.06-2.91-.47-4.9.18-.22,1.47-1.69,1.58-1.75a.65.65,0,0,1,1,.48c0,.72-2.54,2.6-2.54,3.8,0,1.35,2,1.21,2.38,2.37l-1.11.32c-.19.64-2.53,2.65-2.53,3,0,.67,1.29.95,1.6,1.26s.24.61.34.68.53,0,.77.26c.47,2.1-1.74.42-2.46.4a29.39,29.39,0,0,0-4,.59,4.34,4.34,0,0,0-2.37,2.85l0,.21c.17.28,1.51.44,1.91.47a43,43,0,0,1,4.86.19c.86.19.59.87,0,1s-1,0-1.44.06A44.88,44.88,0,0,1,31,59.45a10.55,10.55,0,0,1-4,4.08c-1.43.68-3.26.75-4.74,1.35a8.9,8.9,0,0,0,4.39,3.91c1.21.42,2.63.31,3.69,1.08,0,.76-.69.75-1.28.7-.08.06.31.29.29.53-.06.75-2.58,3.63-3.21,4.38-.37.43-1.19.92-1.19,1.47,0,2,2,2.38,3.61,1.89,1.26-.38,1.88-1.64,2.09.66.25,2.84-1.55,7.83,2.11,9,.34-1,1.25-1.26,1.21.07a9.58,9.58,0,0,1-1.11,3.32c1.59,2.14,4.05,1.42,6.29.92.87-.2,1.53-.76,2.4-.37-.25.87-.87,1.13-1.59,1.53l-.16,1.85c1.51.63,3.72-.18,4.91-1.24.4-.35.91-1.24,1.34-1.2s1.11,1.06,1.52,1.35c1.9,1.33,3.06.34,5,.24,1.47-.07,2.77,1.26,4.19,1.82a14.73,14.73,0,0,0,3.08.87H69.89c.42,0,.42.83.08,1.11.93.17,1.83.52,2.77.63a20.08,20.08,0,0,0,8.49-.68,3.43,3.43,0,0,0,1.55-1c0-.23-2.7-.51-3.17-1a.37.37,0,0,1-.13-.45.68.68,0,0,1,.53-.42c.58-.05,2.64.54,3.48.63,3.14.33,7.47.49,10.4-.66.47-.19,1-.72,1.46-.75s1.68.4,2.37.46a14.68,14.68,0,0,0,4.89-.48,15.7,15.7,0,0,1,4.76-.92c.36,0,1,.39,1.59.44,2.16.19,2.38-1,2.1-2.89-.07-.49-1-1.78-.06-1.85.5,0,1.53,1.07,2.13,1.36,1.69.84,3.86.73,5.69.55l-1.12-3.62-1.26-.09-.16-.62c.78-.58,1.83-.38,2.74-.62a6.24,6.24,0,0,0,3.13-2.55c.85-1.91.34-4.63.79-6.64,0-.19-3.37-2-2-2.6.34-.06,2.77,1.83,3.33,2.16s1.7,1,2.11,1.21a1.11,1.11,0,0,0,.62.09c.38-.37-3-4.9-3.4-5.53s-1-1.72-.71-2.54c-.63,0-2.75.09-2.46-1s2.07-.28,2.85-.31a8.56,8.56,0,0,0,5.44-3c1.13-1.76,0-1.38-1.24-1.88A11.77,11.77,0,0,1,122.61,61c-.5-.58-2.65-3.44-1.58-4,.32-.15,1.1.08,1-.31a14,14,0,0,1-2.67-6c-1.17-.31-5-2.2-5-3.47-.06-1.89,2.5.56,3,.87a8.48,8.48,0,0,0,5.17,1.55,5.06,5.06,0,0,0-2.69-4,28.87,28.87,0,0,0-2.63-1.3c-.32,0-1.38.55-1.48.44a1.74,1.74,0,0,1,1.58-1.91L116.5,41c-.6-.18-2.49.85-2.59-.24-.08-.91,1.07-.64,1.6-.78a4.31,4.31,0,0,0,1.41-1c-.18-.48-.72-.67-1.1-1.09-.56-.64-2.26-3.68-1-4l.66.2a11.37,11.37,0,0,0,.64,2c.43.82,1.77,1.72,2,2.31.42,1.31-.92,1.72-.86,2.12l1.34,2.47a7.1,7.1,0,0,0,1.28-.6c2.38-1.25,5.17-4.62,5.42-7.38.34-3.65-.28-7.66.17-11.37,0-.38.42-.76.31-1.24.68-.37,3.84-1.72,3.95-2.41.06-.31-.09-.2-.2-.27a9.42,9.42,0,0,0-5.17-1.71v-.53l.24-.23a6.52,6.52,0,0,0,4.17-1.13c-4.54.15-9.49-.49-13.88.9-3.93,1.25-6.23,3.89-9,6.84-5,5.42-9.79,11.42-14.86,16.77-.26.28-1,1.21-1.43.64-.6-.87,1.62-2.88,2.11-3.59-.41-.78-.59-5.41-1.33-5.58C88.65,32.92,88,34.27,86,35c-.41.16-1.13.15-1.4.31s-.14.81-.8.75-.8-1.71-1.09-2.37a4.14,4.14,0,0,0-2.33-2.33c-.15,1.16-2.38,5.18-3.53,5.17-.12,0-.4-.09-.43-.22-.11-.46.16-.68.32-1M91.71,97.77c-.84.11-1.9-.08-2.77,0l1.86,1.55c2.29-.23,4.3-.9,6.44.35.11,0,.14-1.78,1.23-1.56s2.54,2.62,3.91,2.51a13.62,13.62,0,0,1,3.16-5.46c-.65-.66-.6.06-.93.33C103.22,96.61,99.79,97,98,96.83a21.79,21.79,0,0,0-2.49-.45c-.79.11-2.7,1.24-3.83,1.39m25.53,31.78c0-1.21,1.16-2,1.72-3.1a24,24,0,0,0,1.6-4.09c.31-2.87-1.68-11.27-2.88-14-.69-1.6-2-2.34-3.05-3.59-2.15-2.52-4.14-5.11-6.32-7.59-.39-.44-.77-1.23-1.12-1.58-.13-.13-.14-.22-.38-.16,0,.43-.46.51-.72.78a14,14,0,0,0-2.73,4.81c1.16,1.13,2.79,2,3.84,3.26.78.91,1.35,2.14,2.14,3.08.45.54,1.27.68,1.1,1.67-2.25.14-3-2.76-4.27-4.19l-3.79-2.93c.13,1.15.54,2.25.63,3.4.35,4.53-.56,10.61-3.79,14.08a19.3,19.3,0,0,0-2.06,1.89c.11.43,3.77,1.6,4.35,1.66,3.52.33,5.8-2.45,8.93-3.32l-1.19,1.26a18.67,18.67,0,0,1-3.71,2.3c-.38.15-1.82.4-1.73.78a21.14,21.14,0,0,0,1.49,1.83c1.9,1.92,6.62,4.5,9.34,4.4.75,0,1.67-.9,2.6-.61M48.16,117.38a47.61,47.61,0,0,0,1-5.41c.12-.78.49-1.7.53-2.45.08-1.43-.28-4.71-.42-6.29-.15-1.79-.68-6.39-2.28-7.37-.82-.5-.65.15-1,.4a6.64,6.64,0,0,1-1.1.32l-.15.18a18,18,0,0,1,.46,9.07l-.48-.07-.15-.32c.28-2.6.61-5.29-.16-7.83l-.47.08a64.9,64.9,0,0,0-6.64,5.85A29.26,29.26,0,0,0,34,106.8c-1.68,2.19-5.16,7.07-6.17,9.47a30.36,30.36,0,0,0-1.2,3.55c0,.91,1.71,3.13,2.2,4.14,1.17,2.43,1.4,4.28,4,5.83a93.11,93.11,0,0,0,8.91,4.53,6.74,6.74,0,0,0,1.91.6l.23-.36c-.46-.42,0-1.23.14-1.81.5-1.76,1.44-3.54,1.92-5.19.79-2.69.4-5.84,1.58-8.49a6.82,6.82,0,0,0-4.83-2.46c-.51-.08-2.81.21-2.57-.71.35-1.28,4.81-.23,5.78.18s1.45.94,2.27,1.3m15.33-18.5a16.63,16.63,0,0,1-8.38-1.82c-.8-.41-1.38-1.22-2.37-1,2.56,5.25,7.07,9.11,11.31,13h.23c.43-1.13,1.91-1.55,2.75-2.35.13-.13.14-.11.1-.33-2.19-1.1-4.69-2.51-5.39-5h-.62c-.54-.49,2.27-1.94,2.37-2.37m-11.4-2.67c-.9,0-1.78.61-2.67.14.25.76.58,1.48.84,2.24a18,18,0,0,0,3.05,5.81c5.9,7.82,15.66,13.81,24,18.66,4.89,2.85,9.29,6.15,14.41,8.67.22.11.38.37.53.43,1.06.43,3.09-.31,4.26-.24.27-.2-.57-.59-.68-.65-7-4.1-14-8.07-20.8-12.4A90.26,90.26,0,0,1,61.59,108c-3.64-3.44-7.32-7.2-9.5-11.76m30.19,5.17c.09-.06.09-.47.45-.58s1.13,0,1.67-.07c1.43-.22,3.35-.7,4.78-1.06.21,0,.41,0,.55-.24l-2-1.63H84.46c-1.65,2.43-4.84,2.76-7.53,3l.08,2a7.17,7.17,0,0,1,3.63-1.59c.39,0,1.51.22,1.64.14M68.36,98.91a22.32,22.32,0,0,0-3.17,0,31.53,31.53,0,0,0-2.64,1.79c-.43.49.77,1.9,1.18,2.29a19.34,19.34,0,0,0,3.13,2.08,16,16,0,0,1,2.47,1.18c0,1.43-1,.43-1.41.61s-1.78,1.84-2.53,2.06c.44.31.93,1.1,1.34,1.35a22.62,22.62,0,0,1,2.15,1.48c.82.59,2.07,1,2.73,1.54.46.35.69,1.08,1.45,1.2.23,0,.68-1.12.78-1.4s-.07-.42,0-.61c.18-.42,1.22-.93,1.32-1.54.06-.43-.81-1.36-.77-2.49.06-1.78,1.13-2.75,1.39-4s-.38-2.56.67-3.67a25,25,0,0,1-5.19-.43,13.13,13.13,0,0,1-2.56-.93c-.23-.16-.28-.47-.35-.51m31,3.8c-.13-.11-.49-.08-.75-.28s-.54-.86-1.16-1.21c-2.06-1.2-3.91-.9-6.15-.56s-4.61,1.12-7,1.38c-.61,1.18-2.53.47-3.65.53-2.33.13-4,2.37-4.58,4.41-.47,1.51-.51,2.46.84,3.44a3.51,3.51,0,0,1,.78-1.19,8,8,0,0,1,2.07-1.73c1.22-.49,3.46-1.11,3.79.7-.68.08-1.27-.49-1.94-.28-.12,0-1.79,1.28-2,1.47-1.68,1.44-2.68,3.22-1,5.13a3.22,3.22,0,0,0,3,1.1c1-1.11.79-2.75,1.84-3.7.84-.76,1.78-1.19,2.82-.53V112c-.06.11-1.87.51-2.2.92a24.35,24.35,0,0,0-1.22,3.49c-.19,2,2.46,2.62,4,2.72,1.92.14,6.08-.76,8-1.29.51-.14.64-.56.9-.68s.7,0,1-.24c.84-.68,1.91-4.27,2.61-5.3,0-.12-.3-.08-.4-.22-.28-.44.66-3.62.72-4.51,0-.56-.08-3.92-.36-4.16m2.23-1-1.88-1c-.08.46.52.44.62.74s-.12.63-.09.9a22.38,22.38,0,0,1,.4,5.22c-.09,1-.68,2.35-.73,3.22-.12,2.21.07,2.27-1,4.37-.79,1.54-2.17,3.83-4.09,3.9.49,1.06,1.09,1.56,2.21.86,4.38-2.73,5.44-11,5.06-15.65-.07-.89-.43-1.7-.49-2.59M70,122.91c0-.64.64-2.35.32-2.77-5.68-3.63-11.29-7.61-15.74-12.72-1.33-1.52-2.45-3.18-3.71-4.75V104c.54.16.16,1.48.16,2-.06,5.86-.91,9.54-2.32,15.08-.42,1.65-.47,3.3-.73,5-.09.57-.73,2.51-.51,2.83,3.52,1,7.17,2,10.78,2.66.92.15,3.69.68,4.41.66.5,0,.55-.41.94-.48,1.77-.35,4.44.81,6.25.95v-.64h.64a9.12,9.12,0,0,0-.17-2.92c-.07-2.13.07-4.28,0-6.41Zm6.48-11.54h-.88c.13.86-3,4.69-2.75,5,3,1.82,6.18,3.46,9.21,5.27s6,3.9,9.17,5.69c2.44,1.39,5.14,2.39,7.32,4.2a35.78,35.78,0,0,0,4.48-1c1.35-.43,2.44-1.32,3.8-1.35a30.2,30.2,0,0,1-3-2.76,16,16,0,0,0-1.17-1.51c-.46-.31-2.77-.61-3.65-.94a14.08,14.08,0,0,1-1.92-.92,29,29,0,0,1-3.61-2.4c-.29-.3-.65-.7-.4-1.11-3.07.71-6.92,1.76-9.84,0-1.31-.8-1.25-1.9-1.74-2.3-.23-.2-1.7-.26-2.28-.48-1.85-.73-3.54-3.42-2.73-5.41m-7,2.21v.16c.1,0,.1-.11,0-.16m.24.16c-.09.35.2.35.36.51a14.11,14.11,0,0,0,1.48,1.2c.14.1.9.74,1,.26s-.13-.43-.32-.62a11.18,11.18,0,0,0-2.52-1.35m20.23,18.5L71.24,120.86,71.4,133a2.55,2.55,0,0,1,1.58.32c.23-.67-.36-.64-.45-.89a16.41,16.41,0,0,1-.32-1.68,1.57,1.57,0,0,1,2-.95c.71.3.9,1.36,1,1.44s2.86.38,3.48.54c.81.22,1.78.34,1.55,1.38l9.41-.63ZM73,137.3v-2.69c-2.1.53-3.92-.24-5.93-.47-3.35-.38-6.73-.77-10.07-1.32a51.82,51.82,0,0,1-7.72-1.61c-1-.35-1.28-.93-2.27-1.19-.54.4-.38,1.38-1,1.29-.35,1.48-.73,1.89.83,2.51A78.44,78.44,0,0,0,54.9,136c.5,0,.61-.25.94-.31.87-.16,2.7.69,3.66.91a36.26,36.26,0,0,0,9,.82c.79,0,2.12.38,2.85.34.28,0,.75-1,1.66-.49m7.43-3v3.63a21.72,21.72,0,0,1,4-.15c2.86-.18,5.71-.86,8.55-1.25,4.39-.59,8.86-1.05,13.22-1.8a3.15,3.15,0,0,0,2.34-3.68c-.11-.82-1-.29-1.33-.21-4.41,1.07-9.65,2.65-14.09,2.66-1.94,0-3.15.34-4.91.48-2.54.2-5.27-.2-7.82.32m-6.17-2.85c-.3-1-1.21-1.11-1.26,0Zm-.16,1.26v5.38l5.21.78c.41-1.88,0-3.78,0-5.68-1.71.23-3.4-.78-5.22-.48M69.5,145.05v-6c-2-.15-4.07-.13-6.09-.32a94.53,94.53,0,0,1-12.88-2.13c-1-.24-3.41-.37-4.15-.75-.51-.25-.39-.7-.27-1.15-.45-.35-.66.29-.75.68-.3,1.17-.33,2.55-.68,3.75A8.78,8.78,0,0,0,48,141.49c5.23,2.23,11.13,2.85,16.7,3.54a17.94,17.94,0,0,0,4.8,0m40-10.28c-.62-.05-1,.48-1.58.71-6.24,2.73-15.73,3.32-22.53,3.41a15.41,15.41,0,0,0-2.86.29c-.51.08-1.41-.08-1.85.17-.17.1,0,.35-.2.49-1.37,1.19-5.14.17-6.7-.41-.75-.27-1.45-1-2.41-.83a1.35,1.35,0,0,0-.59.4,17.8,17.8,0,0,0-.32,2.65,21.62,21.62,0,0,0,0,3c.08.56.53,1.12.35,1.87l.12.19a41.69,41.69,0,0,0,5.29.05c1.82-.21,4-1.53,5.71-1.72,1.25-.14,3,.19,4.42.15,2.3,0,4.54-.68,6.8-.79,2.46-.12,5.24.45,7.57.46a29.09,29.09,0,0,0,9.9-2.28c1.35-.62,1.24-.82.87-2.28-.47-1.84-1.68-3.62-2-5.54M49,143.26c-.59-.28-1.88-1-2.53-1.35a18.39,18.39,0,0,0-2.11-1.45l-.56,6.48a6.9,6.9,0,0,0,4.52,1.59l-.09-3c.38-.34.59-.17.71.25.27.94.21,3.16,1,3.82a11.45,11.45,0,0,0,2.48.76,35.5,35.5,0,0,0,12.21.19c3.92-.62,7.44-1.69,11.45-1.27a3.1,3.1,0,0,0,2.27-.67,19.69,19.69,0,0,0,1.27-1.74c.08-.2,0-.27-.23-.22-.53.12-1.21.53-1.83.7a15.38,15.38,0,0,1-5.44.7,15.52,15.52,0,0,1-2-.65c-.14-.2-.09-1.21-.28-1.24H66.57a74.13,74.13,0,0,1-9-.81A35.87,35.87,0,0,1,49,143.26m61.92,1.31c-.31-.29-2.81.79-3.28.91a38.74,38.74,0,0,1-8.33.84c-2.67,0-5.2-.25-7.75.77l-.25-.38.32-.55c-1.27.07-2.78.48-4,.48-.56,0-1-.18-1.57-.18-.75,0-3.5.35-3.89.09-.15-.09-.11-.44-.23-.39L80.09,149c1.91.84,3.09,2.69,5.34,3,2,.25,3.15-2.26,5.09-2.49.23.23-.64,1.13-.78,1.35l-1.9,1.49c.34,0,.67.14,1,.17a45.47,45.47,0,0,0,12.92-.85c1.81-.44,5.87-1.54,7.29-2.51,1.72-1.17,1.4-2.73,1.85-4.56m-62,6.65a2.63,2.63,0,0,1-1.52-1.09l-3.86-1.92a16.32,16.32,0,0,0,.59,8,26.34,26.34,0,0,0,2,4.36c.43.56,3.44,2,3.93,1.68a10.45,10.45,0,0,1-.82-1.95,29.83,29.83,0,0,1-.62-8.41,1.43,1.43,0,0,1,.33-.7M111,161.93a21,21,0,0,0,.67-3.52,35.34,35.34,0,0,0,.16-4.59c0-.51-.4-3.13-.88-3.24-.38.1-.55.46-.91.67s-1.94.83-2,.92.16.3.12.51-.31.57-.37.9c-.4,2-.32,4-.71,6l-.31-.31-.79,3.08.79-.23-.48.63c1.64.17,3.13-.56,4.71-.83M75.66,151.38c-5-.07-9.76,1.45-14.7,1.73.44,1.21-.41,2.62-.46,3.74,0,.47.26.89.11,1.36l-2.49,6.6c.92.14,1.84.39,2.77.48A7.88,7.88,0,0,0,64,165.2a1.29,1.29,0,0,0,.77-.5c.59-1,.84-2.91,1.54-4,.46-.62.7-.28.71.39,0,.47-.52,2.63-.66,3.31-.19,1-1.64,2-2.43,2.62a36.5,36.5,0,0,0-3.33,2.68,1.7,1.7,0,0,0-.39.8c-.05,0-.45-.17-.68-.14s-.44.35-.74.29c-.43-1.23,1.29-2,2.13-2.69.57-.48,1.11-1.07,1.66-1.57-.86-.34-1.8,0-2.56,0a41.16,41.16,0,0,1-4.74-1.28c-2.58-.64-5.4-1.09-7.82-2.29-1.15-.58-.85-1.22-2.34-.35-.36.21-4.56,3.44-4.35,3.64a76.15,76.15,0,0,0,12.77,4.06,36.28,36.28,0,0,1,3.66.61c.65,1.15,1.89,1.65,2.41,3s0,1.47,0,2.56c-.1,1.38-.13,2.8-.16,4.19l7.75-2.61a19.71,19.71,0,0,0,3.44-3c0-1.89-.47-3.76-.28-5.66.22-2.22,2-4.2,3.32-5.84A11.09,11.09,0,0,1,76,161.07a36.58,36.58,0,0,0-.29-9.69m-15.49,1.73a26.75,26.75,0,0,1-10.43-1.42c0,.9.24,1.88.28,2.77.09,2-.14,4.2.55,6.13.25.73.84,1.3.77,2.14.14.21,3.88.84,4.53,1.09.43.15.57.47,1,.52Zm36.52,11.07a7.1,7.1,0,0,1-.93-2.47c-.11-1,.23-6.24-.33-6.63-5.05-.23-10.68.52-14.86-2.92l.19,6.22c.77,1.26,2.55,2.6,2.8,4.15a21,21,0,0,1-.26,7.63c-.16.6-.75,1.1-.4,1.73,1.61,1.85,3.22,5.11,5.36,6.34A23.85,23.85,0,0,0,95,180.16c.42,0,.8-.18,1.26-.17,1.25,0,2.47.22,3.72.16l.45-8.44c0-.19-.38-.31-.55-.4a32.88,32.88,0,0,1-3.68-2,33.8,33.8,0,0,1-3.41-2.45c-.74-.9-.91-2.41-1.23-3.5s-.66-1.86-.91-2.82l.63.16.32-.63c.27.57.74,4.11,1.35,4.11Zm10.12-11.54A41,41,0,0,1,97.16,155c.14.75.38,1.55.46,2.31a39.34,39.34,0,0,1-.15,4.41c0,.63.25,1.24.19,1.88.1.31,1.42.58,1.79.58a29.19,29.19,0,0,0,4.89-.82c1-.48,1.15-2.3,1.34-3.4.42-2.43.54-4.93,1.13-7.33m-26.24,7.59v7.19a22.26,22.26,0,0,0,1,3.24H82a12.17,12.17,0,0,0,.47-4c0-.66,0-1.37,0-2a5.73,5.73,0,0,0-1.9-4.35m-8.7,13.44a7.38,7.38,0,0,0,2.64-2.82l1.31-7.93c-1,.24-2.72,4-3.1,4.07-.1,0-.26-.08-.37-.12a27.18,27.18,0,0,0-.48,6.8m39.18-10.73-3.89,1.21c-1.37-.53-1.59.63-2.82.81a60.49,60.49,0,0,1-8.37.32,17.42,17.42,0,0,1-2.53.18c-.35,0-.19-.3-.23-.33-.3-.25-.58.29.11.77,1.77.82,4.47,1.76,5.89,3.11.2.2.38.28.33.63l-.32.15,1.65,1a4.31,4.31,0,0,1,3.06-2c2.45-.61,5.56-.58,8.15-.86,1.5-.17,3-.77,4.53-.46-.87-2.57-4.27-2.57-5.56-4.56M58.12,176.67c-.07-1.52,0-4.58-2-4.73a40.83,40.83,0,0,1-8.8-2.1l-7.32-3c-.14.07-.19.22-.26.34-1.14,1.84-.66,6-.06,8,.27.91,1.49,1.68,2.3,2.13,2.35,1.31,6.13,2.05,8.82,2.56a56.25,56.25,0,0,0,7,.52l-.31-4.9c.63-.14.22,1,.63,1.1m42.84,3.8c1.14-.16,2.81.57,3.86.47.49,0,1.85-.87,2.59-1.06,1.34-.34,6.3-.53,6.92-1a17.8,17.8,0,0,0,1.2-2.12,27.26,27.26,0,0,0,1.54-6.21c0-1.16-.82-1.41-1.8-1.49-1.8-.15-2.62.35-4.11.48-2.35.21-3.73-.24-6.29.51-.77.24-1.6.78-2.38,1.06-1.55,2.86-1.29,6.17-1.53,9.34"/><path class="a43a283c-5694-4a7d-9fed-db9107d6e6ac" d="M48.16,117.38c-.82-.36-1.41-.94-2.27-1.3s-5.43-1.47-5.78-.18c-.24.92,2.06.63,2.58.7a6.82,6.82,0,0,1,4.82,2.47c-1.18,2.65-.79,5.8-1.58,8.49-.48,1.65-1.42,3.43-1.92,5.19-.17.58-.6,1.39-.14,1.81l-.23.36a6.74,6.74,0,0,1-1.91-.6,93.11,93.11,0,0,1-8.91-4.53c-2.57-1.55-2.8-3.4-4-5.83-.49-1-2.16-3.23-2.2-4.14a30.36,30.36,0,0,1,1.2-3.55c1-2.4,4.49-7.28,6.17-9.47a30.15,30.15,0,0,1,3.23-3.26,64.9,64.9,0,0,1,6.64-5.85l.47-.08c.77,2.54.44,5.23.16,7.83l.15.32.48.07a18,18,0,0,0-.46-9.07l.15-.18a6.64,6.64,0,0,0,1.1-.32c.39-.25.22-.9,1-.4,1.6,1,2.13,5.58,2.28,7.37.14,1.58.5,4.86.42,6.29,0,.75-.41,1.67-.53,2.45a47.61,47.61,0,0,1-1,5.41m-2.06,2.21c-.28-.43-3.38.08-4,0l-.39.39c.13.58,3.81.54,4.26.16.16-.14.25-.42.16-.55m.16,2.85c-.38-.45-2.26,2.7-2.4,2.89-.33.45-2.42,2.73-2,3.11a1.21,1.21,0,0,0,.87-.15c.84-.47,4.17-5.12,3.55-5.85"/><path class="a43a283c-5694-4a7d-9fed-db9107d6e6ac" d="M117.24,129.55c-.93-.29-1.85.58-2.6.61-2.72.1-7.44-2.48-9.34-4.4a21.14,21.14,0,0,1-1.49-1.83c-.09-.38,1.35-.63,1.73-.79a18.18,18.18,0,0,0,3.71-2.29l1.19-1.26c-3.13.87-5.41,3.65-8.93,3.32-.58-.06-4.24-1.23-4.35-1.66a19.3,19.3,0,0,1,2.06-1.89c3.23-3.47,4.14-9.55,3.79-14.08-.09-1.15-.5-2.25-.63-3.4l3.79,2.93c1.24,1.43,2,4.33,4.27,4.19.17-1-.65-1.13-1.1-1.67-.79-.94-1.36-2.17-2.14-3.08-1-1.23-2.68-2.13-3.84-3.26a14,14,0,0,1,2.73-4.81c.26-.27.7-.35.72-.78.24-.06.25,0,.38.16.35.35.73,1.14,1.12,1.58,2.18,2.48,4.17,5.07,6.32,7.59,1.07,1.25,2.36,2,3.05,3.59,1.2,2.77,3.19,11.17,2.88,14a24,24,0,0,1-1.6,4.09c-.56,1.08-1.73,1.89-1.72,3.1m-6.43-19.81c.24.28,1.39.81,1.85,1.23a7.73,7.73,0,0,1,1.94,3.6c.14.44.55,2.94,1.14,2.81.51-.65.35-2,.22-2.75-.35-2.19-1.75-4.71-3.83-5.66-.92-.42-2.08-.12-1.32.77m2.48,4.47c-.47-.12-.35.39-.3.7.16,1.06.69,2.23.88,3.39.23,1.39.15,2.92.5,4.25.08.27-.11.43.34.36a17.73,17.73,0,0,0-1.42-8.7"/><path class="e4c2d21c-02a8-4624-a00b-ca3ce78c9c59" d="M99.34,102.71c.28.24.4,3.6.36,4.16-.06.89-1,4.07-.72,4.51.1.14.43.1.4.22-.7,1-1.77,4.62-2.61,5.3-.33.26-.68.09-1,.24s-.39.54-.9.68c-2,.53-6.11,1.43-8,1.29-1.54-.1-4.19-.71-4-2.72A24.35,24.35,0,0,1,84,112.9c.33-.41,2.14-.81,2.2-.92v-.59c-1-.66-2-.23-2.82.53-1,1-.87,2.59-1.84,3.7a3.22,3.22,0,0,1-3-1.1c-1.66-1.91-.66-3.69,1-5.13.23-.19,1.9-1.44,2-1.47.67-.21,1.26.36,1.94.28-.33-1.81-2.58-1.19-3.79-.7a8,8,0,0,0-2.07,1.73,3.51,3.51,0,0,0-.78,1.19c-1.35-1-1.31-1.93-.84-3.45.63-2,2.25-4.27,4.58-4.4,1.12-.06,3,.65,3.65-.53,2.35-.26,4.63-1,7-1.38s4.08-.64,6.15.56c.62.35.79.91,1.16,1.21s.62.17.75.28"/><path class="a43a283c-5694-4a7d-9fed-db9107d6e6ac" d="M70,122.91l.31-.16c.07,2.13-.08,4.28,0,6.41a9.12,9.12,0,0,1,.17,2.92h-.64v.64c-1.81-.14-4.48-1.3-6.25-.95-.39.07-.44.46-.94.48-.72,0-3.49-.51-4.41-.67a110.77,110.77,0,0,1-10.78-2.65c-.22-.32.42-2.26.51-2.83.27-1.66.31-3.31.73-5,1.41-5.54,2.26-9.22,2.32-15.08,0-.57.38-1.89-.16-2.06v-1.33c1.26,1.57,2.38,3.22,3.71,4.75,4.45,5.11,10.06,9.09,15.74,12.72.32.42-.36,2.13-.32,2.77M65.24,125c.11-.1.94.24,1.09-.56a27.51,27.51,0,0,0,0-4c-.15-1.11-2.55-1-3.49-1.25-3-.7-4.6-1.59-7.82-1.66-.44,0-1.38-.44-1.74,0-.79.94-.67,3.75-.89,5l1.27.42,0,.76a34.56,34.56,0,0,0,4.22,1.24,48.26,48.26,0,0,0,6,.83,3.08,3.08,0,0,0,1.19-.06Z"/><path class="a43a283c-5694-4a7d-9fed-db9107d6e6ac" d="M109.49,134.77c.3,1.92,1.51,3.7,2,5.54.37,1.46.48,1.66-.87,2.28a29.09,29.09,0,0,1-9.9,2.28c-2.33,0-5.11-.58-7.57-.46-2.26.11-4.5.74-6.8.79-1.41,0-3.17-.29-4.42-.15-1.73.19-3.89,1.51-5.71,1.72a41.67,41.67,0,0,1-5.29-.05l-.12-.19c.18-.75-.27-1.31-.35-1.87a21.62,21.62,0,0,1,0-3,17.8,17.8,0,0,1,.32-2.65,1.35,1.35,0,0,1,.59-.4c1-.2,1.66.56,2.41.83,1.56.58,5.33,1.6,6.7.41.15-.14,0-.39.2-.49.44-.25,1.34-.09,1.85-.17a15.41,15.41,0,0,1,2.86-.29c6.8-.09,16.29-.68,22.53-3.41.53-.23,1-.76,1.58-.71"/><path class="a43a283c-5694-4a7d-9fed-db9107d6e6ac" d="M76.46,111.37c-.81,2,.88,4.68,2.73,5.41.58.22,2,.28,2.28.48.49.4.44,1.5,1.74,2.3,2.92,1.79,6.77.74,9.84,0-.25.41.11.81.4,1.1a28,28,0,0,0,3.61,2.41A14.08,14.08,0,0,0,99,124c.88.33,3.19.63,3.65.94a16,16,0,0,1,1.17,1.51,30.2,30.2,0,0,0,3,2.76c-1.36,0-2.45.92-3.8,1.35a35.78,35.78,0,0,1-4.48,1c-2.18-1.81-4.88-2.81-7.32-4.2-3.12-1.79-6.09-3.85-9.17-5.69s-6.18-3.45-9.21-5.27c-.26-.36,2.88-4.19,2.75-5Z"/><path class="e3aeac0d-9416-4f4e-afa4-e40b77caa68c" d="M52.09,96.21c2.18,4.56,5.86,8.32,9.5,11.76a89.57,89.57,0,0,0,13.46,10.89c6.83,4.34,13.83,8.31,20.8,12.41.11.06,1,.45.68.65-1.17-.08-3.2.67-4.26.23-.15-.05-.31-.31-.53-.42-5.12-2.52-9.52-5.82-14.41-8.67-8.36-4.86-18.12-10.84-24-18.66a18,18,0,0,1-3.05-5.81c-.26-.76-.59-1.48-.84-2.24.89.47,1.77-.17,2.67-.14"/><path class="f954aaf2-1020-44d2-8628-d2820ed1f447" d="M110.92,144.57c-.45,1.83-.13,3.39-1.85,4.56-1.42,1-5.48,2.07-7.29,2.51a45.47,45.47,0,0,1-12.92.85c-.35,0-.68-.13-1-.17l1.9-1.49c.14-.22,1-1.12.78-1.35-1.94.23-3.06,2.74-5.09,2.49-2.25-.28-3.43-2.13-5.34-3l1.82-2.84c.12,0,.08.3.23.39.39.26,3.14-.07,3.89-.09.53,0,1,.18,1.57.18,1.25,0,2.76-.41,4-.48l-.32.55.26.38c2.54-1,5.07-.73,7.74-.77a38.61,38.61,0,0,0,8.33-.84c.47-.12,3-1.2,3.28-.91"/><path class="f954aaf2-1020-44d2-8628-d2820ed1f447" d="M49,143.26a35.87,35.87,0,0,0,8.58,2.08,76.19,76.19,0,0,0,9,.81h3.31c.19,0,.14,1,.28,1.24a15.52,15.52,0,0,0,2,.65,15.38,15.38,0,0,0,5.44-.7c.62-.17,1.3-.58,1.83-.7.21,0,.31,0,.23.22a19.69,19.69,0,0,1-1.27,1.74,3.1,3.1,0,0,1-2.27.67c-4-.42-7.53.65-11.45,1.27a35.5,35.5,0,0,1-12.21-.19,11.45,11.45,0,0,1-2.48-.76c-.79-.66-.73-2.88-1-3.82-.12-.42-.33-.59-.71-.25l.09,3a6.9,6.9,0,0,1-4.52-1.59l.57-6.48a18.27,18.27,0,0,1,2.1,1.45c.65.38,1.94,1.07,2.53,1.35"/><path class="a43a283c-5694-4a7d-9fed-db9107d6e6ac" d="M69.5,145.05a17.94,17.94,0,0,1-4.8,0c-5.57-.69-11.47-1.31-16.7-3.54a8.78,8.78,0,0,1-3.32-2.37c.35-1.2.38-2.58.67-3.75.1-.39.31-1,.76-.68-.12.45-.24.9.27,1.15.74.38,3.12.51,4.15.75a94.53,94.53,0,0,0,12.88,2.13c2,.19,4.07.17,6.09.32Z"/><path class="a43a283c-5694-4a7d-9fed-db9107d6e6ac" d="M68.36,98.91c.07,0,.12.35.35.51a13.13,13.13,0,0,0,2.56.93,24.31,24.31,0,0,0,5.19.42c-1,1.11-.42,2.43-.67,3.68s-1.33,2.21-1.39,4c0,1.13.83,2.06.77,2.49-.1.61-1.14,1.12-1.32,1.54-.08.19.07.4,0,.61s-.55,1.38-.78,1.4c-.76-.12-1-.85-1.45-1.2-.66-.51-1.91-1-2.73-1.54a22.62,22.62,0,0,0-2.15-1.48c-.41-.25-.9-1-1.34-1.35.75-.22,2.09-1.88,2.53-2.07s1.46.83,1.41-.6a16,16,0,0,0-2.47-1.18A19.34,19.34,0,0,1,63.73,103c-.41-.39-1.61-1.8-1.18-2.29a31.53,31.53,0,0,1,2.64-1.79,20.93,20.93,0,0,1,3.17,0M65,100.17c-1.57.47-.82,3.13,1,2.09,1.42-.82.61-2.56-1-2.09m3.78,8.24a1.48,1.48,0,0,0-1.19,1l.06.35c1.5,1.8,3.22-1.48,1.13-1.37"/><path class="a43a283c-5694-4a7d-9fed-db9107d6e6ac" d="M89.89,132.24l-.23.32-9.41.63c.23-1.05-.74-1.16-1.55-1.38-.62-.16-3.32-.45-3.48-.55s-.31-1.13-1-1.43a1.57,1.57,0,0,0-2,.95,15.75,15.75,0,0,0,.32,1.67c.09.26.68.23.45.9A2.55,2.55,0,0,0,71.4,133l-.16-12.17Zm-16.64-9c-2.89,1.7,1.69,4.13,2.22,1.59.35-1.69-1-1.59-2.22-1.59"/><path class="e3aeac0d-9416-4f4e-afa4-e40b77caa68c" d="M80.41,134.3c2.55-.52,5.28-.12,7.82-.32,1.76-.14,3-.48,4.91-.48,4.44,0,9.68-1.59,14.09-2.66.35-.08,1.22-.61,1.33.21a3.15,3.15,0,0,1-2.34,3.68c-4.36.75-8.83,1.21-13.22,1.8-2.84.39-5.69,1.07-8.55,1.25a21.72,21.72,0,0,0-4,.15Z"/><path class="e3aeac0d-9416-4f4e-afa4-e40b77caa68c" d="M73,137.3c-.91-.56-1.38.48-1.66.49-.73,0-2.06-.34-2.85-.35a36.25,36.25,0,0,1-9-.81c-1-.22-2.79-1.07-3.66-.91-.33.06-.44.35-.94.31a78.44,78.44,0,0,1-8.09-2.21c-1.56-.62-1.18-1-.83-2.51.63.09.47-.89,1-1.29,1,.26,1.24.84,2.27,1.19A51.82,51.82,0,0,0,57,132.82c3.34.55,6.72.93,10.07,1.32,2,.23,3.83,1,5.93.47Z"/><path class="a43a283c-5694-4a7d-9fed-db9107d6e6ac" d="M63.49,98.88c-.1.43-2.91,1.88-2.37,2.37h.62c.7,2.54,3.2,3.95,5.39,5,0,.22,0,.2-.1.33-.84.8-2.32,1.22-2.75,2.35h-.23c-4.24-3.85-8.75-7.71-11.31-13,1-.19,1.57.62,2.37,1a16.63,16.63,0,0,0,8.38,1.82"/><path class="a43a283c-5694-4a7d-9fed-db9107d6e6ac" d="M91.71,97.77c1.13-.16,3-1.28,3.83-1.39a21.79,21.79,0,0,1,2.49.45c1.76.13,5.19-.22,6.58-1.35.33-.26.28-1,.93-.32a13.62,13.62,0,0,0-3.16,5.46c-1.37.11-2.92-2.3-3.91-2.51s-1.12,1.56-1.23,1.56c-2.14-1.25-4.15-.58-6.44-.35l-1.86-1.55c.87-.09,1.93.11,2.77,0"/><path class="ad46a700-9b7f-4e0c-bc62-bd1c931f94da" d="M101.57,101.74c.06.89.42,1.7.49,2.59.38,4.68-.68,12.92-5.06,15.65-1.12.7-1.72.2-2.21-.86,1.92-.07,3.3-2.36,4.09-3.9,1.08-2.1.89-2.16,1-4.37,0-.87.64-2.22.73-3.22a22.38,22.38,0,0,0-.4-5.22c0-.27.19-.58.09-.9s-.7-.28-.62-.74Z"/><path class="f4aa7c6f-2ef0-4136-9329-379194bb1650" d="M74.08,132.71c1.82-.3,3.51.71,5.22.48,0,1.9.4,3.8,0,5.68l-5.21-.78Z"/><path class="a43a283c-5694-4a7d-9fed-db9107d6e6ac" d="M69.66,113.74a11.18,11.18,0,0,1,2.52,1.35c.19.19.39.28.32.62s-.86-.16-1-.26A13,13,0,0,1,70,114.24c-.16-.15-.45-.15-.36-.5"/><path class="f4aa7c6f-2ef0-4136-9329-379194bb1650" d="M74.24,131.45H73c0-1.12,1-1,1.26,0"/><path class="a43a283c-5694-4a7d-9fed-db9107d6e6ac" d="M69.42,113.58c.1,0,.1.11,0,.16Z"/><path class="a43a283c-5694-4a7d-9fed-db9107d6e6ac" d="M82.28,101.38c-.13.08-1.25-.16-1.64-.14A7.17,7.17,0,0,0,77,102.83l-.08-2.06c2.69-.22,5.88-.55,7.53-3h3.26l2,1.63c-.14.25-.34.19-.55.24-1.43.36-3.35.84-4.78,1.06-.54.09-1.25-.06-1.67.07s-.36.52-.45.58"/><path class="bbeaa6df-edff-4d23-a1b2-e2c0f8d00082" d="M46.26,122.44c.62.73-2.71,5.38-3.55,5.85a1.21,1.21,0,0,1-.87.15c-.4-.38,1.69-2.66,2-3.11.14-.19,2-3.34,2.4-2.89"/><path class="ba38bf83-9acd-41c6-a82f-e76689ab394c" d="M46.1,119.59c.09.13,0,.41-.16.55-.45.38-4.13.42-4.26-.16l.39-.39c.65.08,3.75-.43,4,0"/><path class="bbeaa6df-edff-4d23-a1b2-e2c0f8d00082" d="M110.81,109.74c-.76-.89.4-1.19,1.32-.77,2.08,1,3.48,3.47,3.83,5.66.13.78.29,2.1-.22,2.75-.59.13-1-2.37-1.14-2.81a7.73,7.73,0,0,0-1.94-3.6c-.46-.43-1.61-1-1.85-1.23"/><path class="ba38bf83-9acd-41c6-a82f-e76689ab394c" d="M113.29,114.21a17.73,17.73,0,0,1,1.42,8.7c-.45.07-.26-.09-.34-.36-.35-1.33-.27-2.86-.5-4.25-.19-1.16-.72-2.33-.88-3.39,0-.31-.17-.82.3-.7"/><path class="bbeaa6df-edff-4d23-a1b2-e2c0f8d00082" d="M65.24,125l-.16.72a3.08,3.08,0,0,1-1.19.06,48.26,48.26,0,0,1-6-.83,34.56,34.56,0,0,1-4.22-1.24l0-.76-1.27-.43c.22-1.21.1-4,.89-5,.36-.43,1.3,0,1.74,0,3.22.07,4.83,1,7.82,1.66.94.21,3.34.14,3.49,1.25a27.51,27.51,0,0,1,0,4c-.15.8-1,.46-1.09.56m-.17-4.12c-3.77-.16-7.23-1.81-10.89-2.51a9.2,9.2,0,0,1-1.12,3.46l8.11,1.77c.3,0,.2.59.35.61a.91.91,0,0,0,.79-.32h2.53l.23-.24Z"/><path class="bbeaa6df-edff-4d23-a1b2-e2c0f8d00082" d="M65,100.17c1.59-.47,2.4,1.27,1,2.09-1.8,1-2.55-1.62-1-2.09"/><path class="bbeaa6df-edff-4d23-a1b2-e2c0f8d00082" d="M68.81,108.41c2.09-.11.37,3.17-1.13,1.37l-.06-.35a1.48,1.48,0,0,1,1.19-1"/><path class="bbeaa6df-edff-4d23-a1b2-e2c0f8d00082" d="M73.25,123.26c1.19,0,2.57-.1,2.22,1.59-.53,2.54-5.11.11-2.22-1.59m.46.62c-.49.16-.58.91.17,1.06,1.15.23.71-1.35-.17-1.06"/><path class="a43a283c-5694-4a7d-9fed-db9107d6e6ac" d="M65.07,120.86v2.76l-.23.24H62.31a.91.91,0,0,1-.79.32c-.15,0-.05-.58-.35-.61l-8.11-1.77a9.2,9.2,0,0,0,1.12-3.46c3.66.7,7.12,2.35,10.89,2.52m-7.27,0c.27.39,0,.75,0,1.14a1.11,1.11,0,0,0,2.16-.14c.07-.86-1.53-1.15-2.18-1"/><path class="f4aa7c6f-2ef0-4136-9329-379194bb1650" d="M73.71,123.88c.88-.29,1.32,1.29.17,1.06-.75-.15-.66-.9-.17-1.06"/><path class="ba38bf83-9acd-41c6-a82f-e76689ab394c" d="M57.8,120.86c.65-.15,2.25.14,2.18,1a1.11,1.11,0,0,1-2.16.14c-.06-.39.25-.75,0-1.14"/></svg>