<svg id="ae4c435b-d1dc-456f-bbc9-29c5c74da055" data-name="Capa 1" xmlns="http://www.w3.org/2000/svg" width="30.56mm" height="34mm" viewBox="0 0 86.64 96.38"><defs><style>.a7060874-7757-4ae4-8f72-b3858396264d{fill:#f9b66c;}.eb6cd8de-1b90-428a-bfdb-734cef6b3bf2{fill:#b8b7b7;}.a9c508e1-f061-479a-aedb-9f1c1ca9d609{fill:#8c7557;}.a46461ce-5a9e-4daa-85cc-d8f39362938e{fill:#6f6b6d;}.bf1a9a0e-6992-4aee-a58f-6cc1e78a068f{fill:#191919;}.b9b41a20-eed4-4b44-9529-983d944e5039{fill:#0e0d0b;}.a3fa84bf-f267-4b09-a506-d4ffc4e67f61{fill:#6b5943;}.b304f53d-ef07-4eb4-a032-9901a3e6a04a{fill:#5b4d44;}.f2f313f8-cc62-47f3-a152-a8309121cb60{fill:#1c1712;}.b77da5d5-5d76-4fad-a6d6-68a83887c8fb{fill:#28221b;}.afc87a57-0014-47c5-b64b-17f1f9928c36{fill:#382c1f;}.ad63055c-edc5-4b09-825f-f7fd91e3dd59{fill:#3f352e;}.e5479ffb-f9c1-4dd7-a7d3-0ef3d12ebbef{fill:#1d1d1b;}</style></defs><path class="a7060874-7757-4ae4-8f72-b3858396264d" d="M13.1,86.38C8.41,62.51,11.1,38.1,10.15,14l.92-.33a80,80,0,0,1,10.58-2.37c3.81-.58,7.66-.88,11.5-1.19L62.42,7.76c5.32-.42,11.68-.38,14.72,4l.21,1.09Q78.79,50.41,80.24,88l-1.93-.09-7.88-.59c-9.57-.72-19.18-1.44-28.75-.74-9.21.66-18.41,2.63-27.62,1.79Z"/><path class="eb6cd8de-1b90-428a-bfdb-734cef6b3bf2" d="M25.78,38.37a8.23,8.23,0,0,1-1.19,3.29,17.85,17.85,0,0,0-1.17,1.94c-.15.64.17.41.47.56.05,0,.52.33.54.36.24.4-.21,1-.34,1.4a19.11,19.11,0,0,1-.86,2.24c-.12.24-.89,1.46-.73,1.61s.13,0,.18,0,.11.18.2.22.39,0,.52.18a.28.28,0,0,1-.19.09,1.26,1.26,0,0,1-.63-.29c-.07,0-.06-.18-.08-.21s-.28.13-.11-.39c.24-.74,1-1.82,1.3-2.64a16.68,16.68,0,0,0,.61-1.86c0-.65-1.25-.47-1.11-1.18a19.19,19.19,0,0,1,1.23-2.06,11.46,11.46,0,0,0,1.19-3c0-.15-.09-.33.17-.28"/><path class="eb6cd8de-1b90-428a-bfdb-734cef6b3bf2" d="M22.58,52.32c-.2.44-.22.79-.65,1.06-.85,1.49-2.33,2.06-3.49,3.12-.15.14-.74.87-.6,1.06.46.17,1,.23,1.46.38.19.06.39.2.58.28v.17c0,.77-.83,1.27-1,2,.14,0,.15.19.17.21s.17-.06.17.12a1.07,1.07,0,0,1-.17.46c-.22.36-.78.59-.66,1.15,0,0-.12,0-.15-.14-.16-.6,1.07-1.31.81-1.59,0-.05-.43.11-.31-.43s1.12-1.33,1-1.81c-.11-.31-1.9-.4-2.09-.79s.47-1,.7-1.19c.51-.47,1.29-.9,1.84-1.36s1.17-1.26,1.77-1.64c.15-.27.27-.57.42-.85.06-.11,0-.26.23-.21"/><path class="eb6cd8de-1b90-428a-bfdb-734cef6b3bf2" d="M15,73.24c.17,0,.35.32.38.4.15.52-.82,1.28-1.28,1.4-.12.18.48,1.24.82,1.23a2.51,2.51,0,0,1-.08.33c-.06.05-.21.05-.25.08-.07-.4-.75-1.21-.66-1.59,0-.09.16,0,.17,0s0-.14.08-.2a3.88,3.88,0,0,0,1.06-.93c.06-.21-.17-.42-.24-.67"/><path class="eb6cd8de-1b90-428a-bfdb-734cef6b3bf2" d="M15.29,72v.24c-.52.1-.39.44-.33.82-.28.05-.27-.45-.23-.6s.43-.36.56-.46"/><path class="eb6cd8de-1b90-428a-bfdb-734cef6b3bf2" d="M16.85,70.61c0,.31-.28.31-.41.41,0-.31.28-.31.41-.41"/><path class="eb6cd8de-1b90-428a-bfdb-734cef6b3bf2" d="M25.86,37.47c0,.15.06.4-.08.49,0-.08-.17-.32-.09-.49Z"/><path class="a9c508e1-f061-479a-aedb-9f1c1ca9d609" d="M71,80.54l.33-.09v.17a1.69,1.69,0,0,1-.33-.08"/><path class="eb6cd8de-1b90-428a-bfdb-734cef6b3bf2" d="M26.19,35.91H26.1a1.48,1.48,0,0,1,0-.33c.14.06.07.23.09.33"/><path class="eb6cd8de-1b90-428a-bfdb-734cef6b3bf2" d="M26.35,34.35c0,.09,0,.21-.08.25s-.14-.13-.08-.25Z"/><path class="a46461ce-5a9e-4daa-85cc-d8f39362938e" d="M61.5,19.91h-.17c0-.12.08-.21.08-.24s.07.16.09.24"/><path class="a46461ce-5a9e-4daa-85cc-d8f39362938e" d="M62.23,26.72c.34,0,.09.18.09.25h-.09a2.08,2.08,0,0,0,0-.25"/><path class="eb6cd8de-1b90-428a-bfdb-734cef6b3bf2" d="M26.27,34.93l-.08.16s-.12-.08-.08-.16Z"/><path class="eb6cd8de-1b90-428a-bfdb-734cef6b3bf2" d="M26.43,33.78l-.08.16s-.11-.07-.08-.16Z"/><path class="eb6cd8de-1b90-428a-bfdb-734cef6b3bf2" d="M26.6,32.71l-.09.17s-.11-.08-.08-.17.14,0,.17,0"/><path class="eb6cd8de-1b90-428a-bfdb-734cef6b3bf2" d="M26.92,31.48v.17h-.16c0-.32.11-.11.16-.17"/><path class="eb6cd8de-1b90-428a-bfdb-734cef6b3bf2" d="M16,71.35c0,.16,0,.19-.17.16.08-.08-.13-.05.17-.16"/><path class="a46461ce-5a9e-4daa-85cc-d8f39362938e" d="M70.18,67.25c-.15.24-.08.08-.16.16,0-.15,0-.19.16-.16"/><path class="eb6cd8de-1b90-428a-bfdb-734cef6b3bf2" d="M26,36.49l-.08.16s-.11-.08-.08-.16Z"/><path class="a46461ce-5a9e-4daa-85cc-d8f39362938e" d="M61.58,20.57l-.08,0,.08-.12a.7.7,0,0,1,0,.16"/><path class="a46461ce-5a9e-4daa-85cc-d8f39362938e" d="M61.42,19.5h-.17l.08-.16a.17.17,0,0,1,.09.16"/><path class="a9c508e1-f061-479a-aedb-9f1c1ca9d609" d="M69.69,79.63c-.15,0-.58-.32-.61-.32H67.44c-.15,0-.19-.25-.33-.26a4.1,4.1,0,0,0-1,.26c-.08,0-.24,0-.32.08-.76-.23-1.8.1-1.64-1.07-.24,0-.5,0-.74,0a.86.86,0,0,1-.16,0c-.06-.11-.1-.31-.17-.41a1.88,1.88,0,0,0,1.16.28c.21.16-.14.68.31.83a4.63,4.63,0,0,0,1.44.12c.41,0,.71-.3,1.14-.24.22,0,.47.2.76.23.49.06,1.69-.17,1.83.5"/><path class="a9c508e1-f061-479a-aedb-9f1c1ca9d609" d="M40.61,65.44a10.19,10.19,0,0,1,2.81.67c.51.12,1,.15,1.53.23s1.2.14,1.8.25,1.75.53,2.38.58h.16l.16.08a20.36,20.36,0,0,1,2.44.88c.47.1.83.06,1.25.14a13.89,13.89,0,0,1,2.29,1c0,.25.29.18.38.32s-.28,1.07-.29,1.37.12.28.14.42a13.28,13.28,0,0,1,.27,2.27l-.25.05v.19c.41.36.68.86,1.05,1.24.09.09.82.75.64.26a6.61,6.61,0,0,0-.36-.62c-.13-.17-.66-.58-.67-.63s.09-.25.07-.4-.2-.28-.24-.5A7.62,7.62,0,0,1,56,70.44a3,3,0,0,1,.37-.73,12.11,12.11,0,0,0,1.41.35,16.69,16.69,0,0,0,2.19.71A1.63,1.63,0,0,0,60.43,72l-.49.32c.24,0,.24.31.37.49.4.55,1.37,1.46,1.64,2a.72.72,0,0,1,0,.32L61.42,75c-.23.23.75,1.33,1.14,1.15,0,0,.22,0,.25.12s-.19.17-.25.21c0-.28-.51-.21-.65-.25,0,.5.35.8.57,1.15s.36.83.74.9a1.22,1.22,0,0,0,.08.17c.21.27.23.11.49.08v.16a1.84,1.84,0,0,0-.33.45c.47.77,1.23.41,2,.37-.05.17.32.55.42.61a4.83,4.83,0,0,0,2.53,0l.49.08.16.24a9.66,9.66,0,0,0-1.3.71c-.28.18-2,1.26-2.06,1.38s0,.33-.08.48-.18.11-.26.24a6,6,0,0,0-.56,1.3,1.14,1.14,0,0,1-.16.16c-.07-.19-.22,0-.29.08a10.59,10.59,0,0,0-1.43,2H61.17a2.06,2.06,0,0,0,.1-1.45c-.25-.22-.53-.61-.75-.81s-.51-.32-.66-.44a3,3,0,0,1-.66-.74,1.92,1.92,0,0,1-.16-.58c.07,0,.14-.25.33-.32s.21,0,.33,0,.06-.2.08-.21a8.3,8.3,0,0,0,2.08-2.55,1.38,1.38,0,0,0,.08-1.54A6.46,6.46,0,0,0,60,75.53c-.15-.07,0-.17-.33-.08s-.33.06-.49.33c-.41.19-.91.17-1.31.33,0,0-.1,0-.15,0a3.45,3.45,0,0,0,.32,1.15l.16,1.55a5.89,5.89,0,0,0-.57-.65c-.45-.46-1-.81-1.48-1.23,0,0,0-.13-.13-.16A9.09,9.09,0,0,1,54,76.68H53.8L51.44,76a2.09,2.09,0,0,1-1-.1,3.81,3.81,0,0,1-1.15-.41,4.62,4.62,0,0,0-1.8-.66h-.17a.4.4,0,0,0-.32-.08c-.08,0-.17,0-.25,0s-.21-.07-.33-.08H44.37c-.73,0-1.23.3-1.76.33s-.49-.42-.68-.88c-.1-.26-.2-.49-.3-.76-.18-.49-.75-1.66-.83-2s.15-.48.13-.82c.27,0,.46.19.71.24s.32.06.28-.12c-.12-.4-1.12-.81-1.48-1a8.31,8.31,0,0,1-1.32-.93c-.1-.09-.25-.11-.23-.3.21,0,.43,0,.65,0l.16-2.21a4.23,4.23,0,0,1,.17-.58c.25,0,.48-.07.74-.08"/><path class="bf1a9a0e-6992-4aee-a58f-6cc1e78a068f" d="M19.47,79.8A12.25,12.25,0,0,1,20.3,78c.13-.2.42-.54.67-.46.4.27-.14.5-.11.77,0,0,.14,0,.16.1a5.1,5.1,0,0,1,.33,1.5c.08.08.6-.45.66-.53.19-.28,0-.62.61-.63.81,0,2.78,1.21,3.44,1.74a8.54,8.54,0,0,1,2,2.37c.14.19.47.41.55.6s-.05.35,0,.38A1.18,1.18,0,0,1,29,84c.53.56.74,1.79,1.72,1.85a2.32,2.32,0,0,0-.08-.7c0-.12.1-.26.07-.39s-.6-.66-.24-.93.47.28.62.38.28.07.41.16.45.54.62.62.4-.06.61-.05a25.52,25.52,0,0,1,3,1.66c.11.06.26,0,.22.23H12.83V80.21c.43,0,.71-.55,1-.82.13-.12.31-.16.45-.29s.65-.84.85-.77.18.27.29.36.47.42.7.61,1,.66,1.23.9.38.92.67,1.3c.1.13.19.2.27,0,0,.32.12.8.53.74s.2-.78.24-1.07.21-.35.28-.55a1.89,1.89,0,0,0,.1-.84"/><path class="a9c508e1-f061-479a-aedb-9f1c1ca9d609" d="M42.08,81.93h.16v.16c.1,0,.16-.08.17-.08h.16c.08,0,.37.13.49.17s.06.09.12.08l0-.08.33.08.11.08,0-.08c1.44.26,2.65.8,4,1.16a20.71,20.71,0,0,0,8.9.15l.17-.08a.86.86,0,0,0,.16,0c.12,0,.27-.08.4-.1v-.15c.1,0,.22,0,.33,0l.16-.08a1,1,0,0,0,.17,0h.24V83c.13,0,.3,0,.41,0l-.06.6.08.2s.13,0,.15,0c.3.31.59.66.9,1,.07.08.13.24.24.29s.25-.07.32,0,0,.14.09.19.36,0,.45.21-.08,1,.21,1.39H41.75c.08-.84.44-1.74-.73-1.72A2,2,0,0,0,40.6,85a1.07,1.07,0,0,1-.15-.37,16.07,16.07,0,0,1,.69-1.6s.1-.11.12-.09c0,.23-.08.5.12.66.37.08.49-1.37.45-1.64h.25"/><path class="bf1a9a0e-6992-4aee-a58f-6cc1e78a068f" d="M77.06,84.31v2.54H68.3l1.77-4.41a6.71,6.71,0,0,1,2.18.25Z"/><path class="b9b41a20-eed4-4b44-9529-983d944e5039" d="M70.26,80.29a2.25,2.25,0,0,1,.33.08l.08.17-.14,0c-.16.31-.59.34-.68.76l.14.19a17.69,17.69,0,0,1,3.63.55,13.29,13.29,0,0,0,1.72.74c.21,0,.47.13.41-.13a.21.21,0,0,1,.17.08s0,.09,0,.17.43.23.44.08a.35.35,0,0,1,.16.08s0,.27.28.23l.05-.07s.14,0,.17.06c.06.25,0,.72,0,1l-4.81-1.62a6.71,6.71,0,0,0-2.18-.25L68.3,86.85H67.07a7.2,7.2,0,0,1,1-2,17.37,17.37,0,0,1,.77-1.69c.21-.3.83-.59.52-1s-1,.07-1.4.26c-.9.45-1.58.47-2.06,1.46l-1.14,2.92H63.3A10.1,10.1,0,0,1,64.52,85c.06-.09.06-.23.09-.27a1.14,1.14,0,0,0,.16-.16s.11,0,.17-.06c.62-.81.26-1.18,1.47-1.75s.94-.29,1.75-1.2a5.16,5.16,0,0,0,.63-.69,3.85,3.85,0,0,1,1.47-.57"/><path class="b9b41a20-eed4-4b44-9529-983d944e5039" d="M18.32,81.52c-.08.17-.17.11-.27,0-.29-.38-.38-1-.67-1.3s-.9-.63-1.23-.9-.47-.41-.7-.61-.19-.33-.29-.36-.65.59-.85.77-.32.17-.45.29c-.32.27-.6.77-1,.82V78.57a6.16,6.16,0,0,0,1.92-1.73,1.13,1.13,0,0,0,.05-.24,2.51,2.51,0,0,0,.08-.33s.09,0,.12-.09c.14-.29.17-.53.51-.72.12,0,.36.32.48.32h1.72c.38.34-.09.69-.13,1a12.88,12.88,0,0,0,.55,3c.12.64.11,1.22.19,1.82m-1.31-5c-.45,0-.75-.2-1.14.12-.23.19-.54.93-.38,1.19l1.68,1.23Z"/><path class="bf1a9a0e-6992-4aee-a58f-6cc1e78a068f" d="M67.07,86.85h-2.3l1.14-2.93c.48-1,1.16-1,2.06-1.45.36-.19,1-.79,1.4-.26s-.31.68-.52,1a18.34,18.34,0,0,0-.77,1.68,7.41,7.41,0,0,0-1,2"/><path class="a3fa84bf-f267-4b09-a506-d4ffc4e67f61" d="M61.17,86.85h-.08c-.29-.37-.05-1.09-.21-1.39s-.32-.13-.45-.21-.07-.18-.09-.19-.19.09-.32,0-.17-.21-.24-.29h.32c0-.25-.33-.33-.24-.65.15.12.47.28.66.44s.5.59.75.81a2.06,2.06,0,0,1-.1,1.45"/><path class="a3fa84bf-f267-4b09-a506-d4ffc4e67f61" d="M64.61,84.72s0,.18-.09.27a10.1,10.1,0,0,0-1.22,1.86h-.41a10.29,10.29,0,0,1,1.43-2c.07-.06.22-.27.29-.08"/><path class="a3fa84bf-f267-4b09-a506-d4ffc4e67f61" d="M41.75,86.85h-.24l-.25-1.5c-.28,0-.23-.21-.24-.22,1.17,0,.81.88.73,1.72"/><path class="b304f53d-ef07-4eb4-a032-9901a3e6a04a" d="M12.83,78.57v-.25c.34-.27.75-.56,1.07-.86s.48-.64.65-.78.19,0,.25-.08,0,.14-.05.24a6.16,6.16,0,0,1-1.92,1.73"/><path class="f2f313f8-cc62-47f3-a152-a8309121cb60" d="M30.45,25.74c.11.14.05.22,0,.35-.86,1.71-2.44,3.36-3,5.21a43.6,43.6,0,0,0-1.26,6.77,21.15,21.15,0,0,1-.69,2.84c-.32.32-.17,0-.43.55-.37.75-.72,1.51-1.16,2.22,0,.22,1.27.75,1.49,1a.26.26,0,0,1,.06.25c-.19,0-.58-.07-.7.08s-.37,1.33-.49,1.65c-.42,1.1-1.1,2-1.51,3h1.59c.29,0,1,.28.94.66l-.74-.05A8.71,8.71,0,0,1,24,51.44c-1,1.6-3.22,4.45-4.92,5.24a.9.9,0,0,1-.39.07.37.37,0,0,0,0,.25,14.9,14.9,0,0,0,2.58.65l-.08.33.33.08c0,.44-.61.2-.78.32s-1.55,1.78-1.35,2c.24,0,.6-.08.81,0,.05,0,.07.14.12.17s.27.06.34.19c.3.55-.77.25-.9.27s-.52.55-.7.15a1.07,1.07,0,0,0,.17-.46c0-.18-.16-.1-.17-.12s0-.18-.17-.21c.16-.73,1-1.23,1-2h.24c.06-.28-.13-.12-.24-.17s-.39-.22-.58-.28c-.45-.16-1-.22-1.46-.38-.14-.19.45-.92.6-1.06,1.16-1.06,2.64-1.63,3.49-3.12.43-.27.45-.62.65-1.06,0,0,0-.06,0-.09l1-.85a1.79,1.79,0,0,0,.48-1.07c0-.16-.28-.12-.4-.13H23.4c-.13-.14-.36-.09-.52-.18s-.1-.15-.2-.22-.17,0-.18,0,.61-1.37.73-1.61a19.11,19.11,0,0,0,.86-2.24c.13-.37.58-1,.34-1.4,0,0-.49-.33-.54-.36-.29-.15-.62.08-.47-.56a17.85,17.85,0,0,1,1.17-1.94,8.23,8.23,0,0,0,1.19-3.29c0-.13,0-.27,0-.41s.07-.34.08-.49.09-.62.08-.82l.08-.17c-.08-.14.08-.36.08-.41h.17c0-.09-.08-.14-.08-.16s0-.27-.09-.33a1.93,1.93,0,0,0,.09-.49l.08-.16c0-.11,0-.22,0-.33s.08-.16.08-.25a2.81,2.81,0,0,0,0-.41l.08-.16c-.06-.3.11-.63.08-.9l.09-.17a5.41,5.41,0,0,0,.16-1.07h.16v-.16c.06-.06.57-1.27.66-1.48.22.07.2-.22.24-.41,0,0,0-.12,0-.16.22,0,.2-.14.28-.26.75-1.2,1.52-2.31,2.35-3.43"/><path class="b77da5d5-5d76-4fad-a6d6-68a83887c8fb" d="M15.29,72.25c.06,0,.15,0,.16.08s-.27.21-.23.28l1.38,1.81c0,.17-.19.16-.32.26s-.07.16-.11.18-.57-.11-.55.26a6.28,6.28,0,0,0,2.1.46c.29,0,1.05-.21,1.22.12.31.61-1.1.87-1.12,1,.12.52.16,1.07.3,1.59.08.32.6,1.36.49,1.56l-.29.16.42.81.43-.06a3.36,3.36,0,0,1,.3-.91,1.9,1.9,0,0,1-.11.84c-.06.2-.23.35-.27.55s.27,1-.24,1.07-.49-.42-.53-.74c-.08-.6-.07-1.18-.19-1.82a12.88,12.88,0,0,1-.55-3c0-.26.51-.61.13-1H16c-.12,0-.36-.35-.48-.32-.34.19-.37.43-.51.72,0,.06-.11.08-.12.09-.34,0-.94-1-.82-1.23.46-.12,1.43-.88,1.28-1.4,0-.08-.21-.45-.38-.4,0,0,0-.12,0-.17-.06-.38-.19-.72.33-.82"/><path class="b304f53d-ef07-4eb4-a032-9901a3e6a04a" d="M63.22,38.45c.2,0,.17.1.23.22,1.4,2.6,1.13,5,1.49,7.77a.54.54,0,0,1,.24.43c0,.2-.17,0-.16.2.09,0,.19,0,.25,0,.17.28.18,1,.4,1.3s2.29.73,2.89.88c.21.06.4.21.63.27,1.84.49,3.54.5,4.88,2.1a1.6,1.6,0,0,1-.1,1.85c-.18.3-.9,1-.92,1.14s.09.68.08,1c0,.73,0,1.18.08,1.89a11.36,11.36,0,0,1-1.1,5.21c-.06.12,0,.29-.09.4s-.47.12-.54.22A22.68,22.68,0,0,0,71,65.59a6.85,6.85,0,0,1-.36,1c-.06.12,0,.26-.23.21.17-.48.41-1.13.53-1.64a9.68,9.68,0,0,1,.35-1.78c.13-.25.43-.23.55-.43s.37-.61.49-.83a30.73,30.73,0,0,0,.7-3.56c0-.94-.09-1.95-.08-2.95a5.44,5.44,0,0,1-.08-1c0-.23.88-1,1-1.32s.43-1.35-.24-1.51a2.4,2.4,0,0,0-.65-.74c-1-.77-3.11-1.07-4.34-1.47a1.19,1.19,0,0,0-.41-.08,1,1,0,0,0-.17,0,4.89,4.89,0,0,0-1.21-.39,7.87,7.87,0,0,0-1.08-.19.6.6,0,0,1-.08-.08,3.83,3.83,0,0,1-.41-.57s0-.12,0-.17l-.08-.24a.27.27,0,0,1,0-.09s0-.11,0-.16H65.1c0-.25.07-.44-.33-.41A2.14,2.14,0,0,0,64.61,46c.31-.23-.08-.74-.08-.78V42.68a7.9,7.9,0,0,0-.25-1.23c0-.22.1-.23-.24-.21-.14-.52-.46-1.27-.66-1.8.24,0,.19-.12.15-.27s-.23-.46-.31-.72"/><path class="f2f313f8-cc62-47f3-a152-a8309121cb60" d="M19.88,63.39c.54.08.87.78,1.22,1.12.11.1.31.1.37.2a1.79,1.79,0,0,1,.13.65,2.43,2.43,0,0,0-1.71.67c-.05.08.07.36.07.52,0,1.51-.72,1.93-1.33,3.1-.08.15-.07.45-.18.55s-.33.07-.5.16c-.76.41-1.58,1.41-2.5,2,0-.07-.1-.09-.16-.08V72a5.43,5.43,0,0,0,.57-.49c.16,0,.19,0,.17-.16,0,0,.07,0,.08,0,.16,0,.25-.08.24-.25,0,0,0,0,.09-.08s.41-.1.41-.41c.14-.11.26-.23.41-.33a4.49,4.49,0,0,0,1.22-.94,8.51,8.51,0,0,0,.93-1.86c.13-.52-.05-1.17.19-1.62.07-.14.29-.21.28-.42,0,0,.06,0,.08,0,.61-.23,1-.23.61-1.06-.05-.1-.6-.88-.69-1"/><path class="bf1a9a0e-6992-4aee-a58f-6cc1e78a068f" d="M70.67,80.54a1,1,0,0,1,.17,0,.86.86,0,0,1,.16,0,1.69,1.69,0,0,0,.33.08.86.86,0,0,1,.16,0,1.69,1.69,0,0,0,.66.24,1.92,1.92,0,0,0,.24,0c0,.21.16.22.33.25s.18,0,.25,0c0,.22.11.16.24.2l.82.29a4,4,0,0,0,.49.17v.16h.17s0,0,.08,0c0,.23.16.19.33.25s.05,0,.08,0c-.05.23.31.26.49.33,0,0,.06,0,.08,0v.16c.06.26-.2.17-.41.13a12.72,12.72,0,0,1-1.72-.74A17.69,17.69,0,0,0,70,81.51l-.14-.19c.09-.42.52-.45.68-.76Z"/><path class="b304f53d-ef07-4eb4-a032-9901a3e6a04a" d="M38.8,15.48c-.78-.4-.6-1-1.64-.73h-.08a1.45,1.45,0,0,0-.33.16,1.41,1.41,0,0,0-.24.16c-.47.34-.25.25-.49.58-.09.12-.15.18-.25.33a23,23,0,0,0-1.31,2.87,2.41,2.41,0,0,0-.25.57l-.41.74a47.39,47.39,0,0,1-2.7,4.76c-.06.08-.11.16-.16.24a4.08,4.08,0,0,1-.25.33c-.06.08-.15.12-.24.25-.83,1.12-1.6,2.23-2.35,3.43-.08.12-.06.28-.28.26C28.28,28,30.07,26,31,24.75a41.51,41.51,0,0,0,3.4-6.12c.5-1.1,1.06-3.23,2.13-3.85a3.72,3.72,0,0,1,1-.36,2,2,0,0,1,1.27,1.06"/><path class="b304f53d-ef07-4eb4-a032-9901a3e6a04a" d="M60.76,17.37c-.35-.27-.41-.75-.67-1.17s-.82-1.17-1.47-1c-.16,0-.17.2-.29.28s-.5.24-.52.26c-.18.2-.87,1.79-1.06,2.18a19.19,19.19,0,0,1-2.13,4c-.87,1.06-1.85,2-2.75,3A5.36,5.36,0,0,0,51.09,26c-.1.06-.16.19-.33.17a18.62,18.62,0,0,1,3-3.49,15.8,15.8,0,0,0,2.52-3.95,11.93,11.93,0,0,1,1.57-3s0-.16.12-.25c.91-.88,1.63-.49,2.24.47a4,4,0,0,1,.59,1.42"/><path class="afc87a57-0014-47c5-b64b-17f1f9928c36" d="M66.08,79.31a4.1,4.1,0,0,1,1-.26c.14,0,.18.26.33.26h1.63s.47.34.62.32a1,1,0,0,1,0,.17c0,.31,0,.51-.41.49l.08-.25c-.17-.07-.42.16-.49.17l-.49-.08A1.29,1.29,0,0,0,68,80c-.59-.08-1.77.17-1.92-.66"/><path class="b304f53d-ef07-4eb4-a032-9901a3e6a04a" d="M50.76,26.23a11.84,11.84,0,0,1-1.1,1.65A8.85,8.85,0,0,1,49,29c-.31.28-1.9.19-2.4.23s-.18-.8-.22-1.09c0-.12,0-.14-.12-.12-1,.31-1.95.91-2.91,1.19-.38.11-1.19.36-1.48,0s-.13-.63-.16-.91c.32,0,.08.37.24.63.32.49,1.53,0,2-.15.63-.23,1.47-.76,2.1-.93,1.09-.3.23.92.57,1.16s1.62-.15,2-.07a18.69,18.69,0,0,0,1.89-2.53c.08-.11.11-.25.29-.24"/><path class="a46461ce-5a9e-4daa-85cc-d8f39362938e" d="M59.94,70.77c.19,0,.42-.27.69-.16l2.3.74c.52-.3,1.34-1.57,2-1.55a.55.55,0,0,1,.28.09,12.66,12.66,0,0,0,.65,1.27c0,.09,0,.11.14.11.52,0,1-1,1.6-.91a9.19,9.19,0,0,1-.91.78c-.22.16-.54.46-.81.33S65.08,70.06,65,70a.6.6,0,0,0-.41.08L62.93,71.6l-2.66-.83a2.24,2.24,0,0,0,0,.58c.08.32.31.45.21.74L60.43,72a1.59,1.59,0,0,1-.49-1.23"/><path class="a3fa84bf-f267-4b09-a506-d4ffc4e67f61" d="M70,80a.21.21,0,0,0,.24.25v.08a3.85,3.85,0,0,0-1.47.57s-.18,0-.24,0c-.35.4-1.91,1-2.08,1.37a1.07,1.07,0,0,0-.06.47c-1.21.57-.85.94-1.47,1.75-.06.08-.16,0-.17.06a6,6,0,0,1,.56-1.3c.08-.13.24-.17.26-.24s0-.3.08-.48,1.78-1.2,2.06-1.38a9.66,9.66,0,0,1,1.3-.71l-.16-.24c.07,0,.32-.24.49-.16l-.08.24c.38,0,.4-.18.41-.49.09.1.24.11.33.16"/><path class="b304f53d-ef07-4eb4-a032-9901a3e6a04a" d="M38.8,15.57c.21-.05.17.11.23.21,1.82,2.91,1.42,4.74,2,7.91a2.41,2.41,0,0,1,.13.65,1.79,1.79,0,0,1-.32-.7c-.48-2.05-.22-4.27-1.09-6.22-.28-.64-.67-1.19-1-1.85"/><path class="a3fa84bf-f267-4b09-a506-d4ffc4e67f61" d="M60.51,72.09c0,.13-.23.34-.15.48a6.24,6.24,0,0,1,1,1.12c.28.36,1.39,1.59.58,1.76,0-.12,0-.13,0-.33a.72.72,0,0,0,0-.32c-.27-.52-1.24-1.43-1.64-2-.13-.18-.14-.49-.37-.49l.49-.32a.6.6,0,0,1,.08.08"/><path class="a46461ce-5a9e-4daa-85cc-d8f39362938e" d="M62.32,27.13c0,1.73.24,3.47.16,5.22a3.88,3.88,0,0,1-.16,1V30.05c0-.13-.08-.47-.09-.7,0-.65,0-1.28-.08-1.93,0-.15-.07-.34.17-.29"/><path class="eb6cd8de-1b90-428a-bfdb-734cef6b3bf2" d="M19.88,65.44c0,.21-.21.28-.28.42-.24.45-.06,1.1-.19,1.62a8.51,8.51,0,0,1-.93,1.86,4.49,4.49,0,0,1-1.22.94c.06-.33.46-.43.69-.65a6.92,6.92,0,0,0,1.35-2.26V66.06c0-.25.35-.53.58-.62"/><path class="a46461ce-5a9e-4daa-85cc-d8f39362938e" d="M62.32,33.94A3.25,3.25,0,0,1,62,35.09c-.13.27-.57.54-.52.76s1.06,1.26,1.28,1.59a2.77,2.77,0,0,1,.43.77c-.18,0-.18-.1-.25-.2-.5-.74-1.06-1.38-1.62-2.08-.05-.44.37-.59.54-.9Z"/><path class="eb6cd8de-1b90-428a-bfdb-734cef6b3bf2" d="M19.88,63.39c.09.11.64.89.69,1,.38.83,0,.83-.61,1.06,0-.29.42-.24.58-.45s-.2-.62-.3-.77a11.65,11.65,0,0,0-1.76-1.81,2.45,2.45,0,0,1,1.4,1"/><path class="afc87a57-0014-47c5-b64b-17f1f9928c36" d="M62,75.12c0,.2,0,.21,0,.33a4.08,4.08,0,0,0,.57.74c-.39.18-1.37-.92-1.14-1.15Z"/><path class="eb6cd8de-1b90-428a-bfdb-734cef6b3bf2" d="M22.58,52.24c.35-.77,1.19-1,1.31-1.89l-.24-.17c.12,0,.36,0,.4.13a1.79,1.79,0,0,1-.48,1.07Z"/><path class="afc87a57-0014-47c5-b64b-17f1f9928c36" d="M62.48,77.42c-.22-.35-.6-.65-.57-1.15.14,0,.7,0,.65.25-.4.26-.08.55.08.82Z"/><path class="b304f53d-ef07-4eb4-a032-9901a3e6a04a" d="M41.42,26.31c.25,0,.15.12.18.28a2.47,2.47,0,0,1,.07,1.61c-.07-.6-.19-1.26-.25-1.89"/><path class="ad63055c-edc5-4b09-825f-f7fd91e3dd59" d="M62.64,77.34c.14.22.3.39.41.57s.11.3.17.41c-.39-.07-.55-.6-.74-.9Z"/><path class="ad63055c-edc5-4b09-825f-f7fd91e3dd59" d="M63.38,78.32l-.08.17a1.22,1.22,0,0,1-.08-.17.86.86,0,0,0,.16,0"/><path class="b304f53d-ef07-4eb4-a032-9901a3e6a04a" d="M41.18,24.67c.26,0,.15.13.16.29,0,.35.06.72.08,1a2.85,2.85,0,0,1-.24-1.32"/><path class="a9c508e1-f061-479a-aedb-9f1c1ca9d609" d="M75.75,82.51a6.51,6.51,0,0,1,1.1.48c.09.07,0,.15.05.17l-.33-.08a.35.35,0,0,0-.16-.08l-.49-.25a.21.21,0,0,0-.17-.08Z"/><path class="a46461ce-5a9e-4daa-85cc-d8f39362938e" d="M62.15,25.41h.17c0,.34.1.79-.09,1.07a2.24,2.24,0,0,1-.08-.33c0-.19,0-.39,0-.58a.86.86,0,0,0,0-.16"/><path class="a9c508e1-f061-479a-aedb-9f1c1ca9d609" d="M73,81.11a6.82,6.82,0,0,1,.84.27c.13.05.26,0,.22.22l-.82-.29c-.13,0-.29,0-.24-.2"/><path class="a46461ce-5a9e-4daa-85cc-d8f39362938e" d="M62.15,25.25a.78.78,0,0,1-.08-.29c0-.15,0-.44.08-.53,0,.24.21.55,0,.82"/><path class="a9c508e1-f061-479a-aedb-9f1c1ca9d609" d="M71.49,80.62s.05-.07.11-.06.35.15.54.15v.15a1.69,1.69,0,0,1-.66-.24"/><path class="a9c508e1-f061-479a-aedb-9f1c1ca9d609" d="M75.18,82.18c.18.06.54.09.49.32-.18-.06-.54-.09-.49-.32"/><path class="b304f53d-ef07-4eb4-a032-9901a3e6a04a" d="M27.82,29.59c0,.19,0,.48-.24.41.06-.13,0-.47.24-.41"/><path class="a9c508e1-f061-479a-aedb-9f1c1ca9d609" d="M72.39,80.86c.17,0,.38,0,.33.25-.17,0-.38,0-.33-.25"/><path class="a9c508e1-f061-479a-aedb-9f1c1ca9d609" d="M74.77,81.93c.15.06.38,0,.33.25-.17-.06-.38,0-.33-.25"/><path class="a3fa84bf-f267-4b09-a506-d4ffc4e67f61" d="M76.9,83.16s0,.07,0,.08l-.05.07c-.3,0-.26-.22-.28-.23Z"/><path class="eb6cd8de-1b90-428a-bfdb-734cef6b3bf2" d="M16.35,71.1c0,.17-.08.26-.24.25.09-.1,0-.07.24-.25"/><path class="a9c508e1-f061-479a-aedb-9f1c1ca9d609" d="M70.26,80.21A.22.22,0,0,1,70,80c.1.06.26,0,.24.25"/><path class="a46461ce-5a9e-4daa-85cc-d8f39362938e" d="M60.92,18c.07.08.09-.19.17.24h-.17Z"/><path class="a9c508e1-f061-479a-aedb-9f1c1ca9d609" d="M70.59,80.37a2.08,2.08,0,0,0,.25,0v.17a1,1,0,0,0-.17,0Z"/><path class="a46461ce-5a9e-4daa-85cc-d8f39362938e" d="M61.58,20.9c0,.06.11-.15.16.16h-.16Z"/><path class="a46461ce-5a9e-4daa-85cc-d8f39362938e" d="M61.17,18.93c0,.06.11-.15.16.16h-.16Z"/><path class="a9c508e1-f061-479a-aedb-9f1c1ca9d609" d="M74.52,81.77s.15,0,.17,0,0,.13,0,.16h-.17Z"/><path class="a46461ce-5a9e-4daa-85cc-d8f39362938e" d="M61.74,21.47l-.08,0,.08-.12a.81.81,0,0,1,0,.16"/><path class="a46461ce-5a9e-4daa-85cc-d8f39362938e" d="M61.74,21.88h.17c0,.08-.09.16-.09.17Z"/><path class="b304f53d-ef07-4eb4-a032-9901a3e6a04a" d="M26.19,35.91s.11.07.08.16H26.1a.86.86,0,0,0,0-.16Z"/><path class="a46461ce-5a9e-4daa-85cc-d8f39362938e" d="M61.58,20.24h-.16l.08-.16a.2.2,0,0,1,.08.16"/><path class="f2f313f8-cc62-47f3-a152-a8309121cb60" d="M39.7,66.1c-.39,0,.08-.67,0-.74-1.75,0-3.81,1.3-5.54.59-1.1-.45-.55-1.62-.69-2.55-.36-.08-.7-.28-1.06-.38s-1.88-.27-2-.53l0-1.3.76-.83H28.6c-.24,0-.46.1-.74.09a14.27,14.27,0,0,0-1.63-.17c-.63-.24-.28-.57-.22-1a18.72,18.72,0,0,1,.83-3.76,20.78,20.78,0,0,0,1-2.54c0-.21-1.12-.91-1.34-1s-.81.22-.7-.33c.05-.23.86-.86,1.09-1.12a10.23,10.23,0,0,0,.73-1c.33-.49,1.64-3.07,2-3.17s.51.17.37.53a25.85,25.85,0,0,1-1.7,2.89c-.17.26-1.17,1.51-1.19,1.61a.37.37,0,0,0,0,.11c.45.16,1.76,1,1.72,1.53,0,.29-.34.15-.4.21-.22,1.07-.74,2.06-1,3.11a20.79,20.79,0,0,0-.52,2.18c0,.36,0,.74,0,1.1l.66.08c0-.18-.09-.33-.08-.52a21.68,21.68,0,0,1,1.22-3.91l.33-.08a14.89,14.89,0,0,0-.9,3.65,1.84,1.84,0,0,0,0,.62,9.67,9.67,0,0,0,1.48.14c.73,0,1.54,0,2.29-.06.3,0,2.06-.4,1.91.27-.07.32-.5.27-.71.36a7.58,7.58,0,0,0-1.9,1.13c-.14.19-.07.47-.08.7a6.8,6.8,0,0,1,1.48.29c.39.11,1.82.53,1.8,1l-.25.32.12,1.6c.07.12.92.16,1.11.16,1.76,0,4.22-1.37,5.86-.74.19.08.19.23.26.25.37.1,1.39.16,1.91.25l-.45.16c-.23.09.3.34.37.37.24.08.55.06.76.13s.07.13.12.15c.2.07.77.07.76.33-.51-.08-1-.11-1.53-.23a10.19,10.19,0,0,0-2.81-.67v-.16c-.27,0-.55-.08-.75.12s0,.12,0,.12a4.23,4.23,0,0,0-.17.58"/><path class="b77da5d5-5d76-4fad-a6d6-68a83887c8fb" d="M38.88,68.31c0,.19.14.21.24.3a8.31,8.31,0,0,0,1.32.93c.14.45.47.36.49.91,0,.34-.18.57-.13.82s.65,1.56.83,2c.1.27.2.5.3.76.19.46.07.92.68.88s1-.3,1.76-.33c0,.2-.09.18-.22.22a4.3,4.3,0,0,0-1.34.55,2.73,2.73,0,0,1-.76.22c-.16-.58-.58-1-.38-1.65l-.41.09c0-.29-.19-.34-.27-.59-.13-.4-.18-.88-.28-1.29s-.31-.82-.33-1.06.29-.6.21-.86-1.48-1-1.76-1.32c-.1-.1-.54-.61-.44-.71s.38.07.49.08"/><path class="f2f313f8-cc62-47f3-a152-a8309121cb60" d="M22.5,71.59c-.17,0,0,.26.05.33a21.79,21.79,0,0,0,1.84,1.6c1.51,1.17,3.41,2.13,5,3.16.1.06.21.09.2.25a24.45,24.45,0,0,1-6.56-4,6.67,6.67,0,0,1-1.31-1.36c.21,0,.51,0,.49-.24l.25.24"/><path class="f2f313f8-cc62-47f3-a152-a8309121cb60" d="M34.05,20.57a25,25,0,0,1-2.67,4.26c-.06.07-.2.29-.28.09a49.51,49.51,0,0,0,2.71-4.76c.25,0,.26.2.24.41"/><path class="a3fa84bf-f267-4b09-a506-d4ffc4e67f61" d="M41.34,81.77a3.11,3.11,0,0,0,.49.16c0,.27-.08,1.72-.45,1.64-.2-.16-.1-.43-.12-.66,0,0-.09,0-.12.09a16.07,16.07,0,0,0-.69,1.6.93.93,0,0,0,.16.37c-.19-.08-.58-.14-.48-.52,0-.09.48-.69.6-1a6.93,6.93,0,0,0,.45-1.72s.11,0,.16,0"/><path class="b77da5d5-5d76-4fad-a6d6-68a83887c8fb" d="M34.54,19.42c-.18.45-.28.73-.49,1.15,0-.21,0-.42-.24-.41l.4-.74Z"/><path class="f2f313f8-cc62-47f3-a152-a8309121cb60" d="M36.59,70.94a3.35,3.35,0,0,1-1.15-.21c-.13,0-.29,0-.24-.2a3.71,3.71,0,0,1,1.39.41"/><path class="f2f313f8-cc62-47f3-a152-a8309121cb60" d="M34.71,18.93c-.06.15-.1.33-.17.49h-.33a2.41,2.41,0,0,1,.25-.57Z"/><path class="b77da5d5-5d76-4fad-a6d6-68a83887c8fb" d="M41.18,74.22c-.11.24-.11.2-.45.25-.09,0,0-.18,0-.25a.6.6,0,0,0,.49,0"/><path class="f2f313f8-cc62-47f3-a152-a8309121cb60" d="M36.75,14.91l-.08.25h-.08s0-.11-.08-.09a1.41,1.41,0,0,1,.24-.16"/><path class="bf1a9a0e-6992-4aee-a58f-6cc1e78a068f" d="M21.93,70.77c0,.08.25.29-.09.25,0-.08,0-.2.09-.25"/><path class="f2f313f8-cc62-47f3-a152-a8309121cb60" d="M30.94,25.16l.08.05-.17.36h-.12l0-.08a4.08,4.08,0,0,0,.25-.33"/><path class="b304f53d-ef07-4eb4-a032-9901a3e6a04a" d="M55.43,69.22c.34.14.68.38.91.49a3,3,0,0,0-.37.73,7.62,7.62,0,0,0,.21,2.75c0,.22.22.35.24.5s-.09.31-.07.4.54.46.67.63a6.61,6.61,0,0,1,.36.62c.18.49-.55-.17-.64-.26-.37-.38-.64-.88-1.05-1.24v-.19l.25-.05a13.28,13.28,0,0,0-.27-2.27c0-.14-.14-.22-.14-.42s.38-1.22.29-1.37-.43-.07-.38-.32"/><path class="bf1a9a0e-6992-4aee-a58f-6cc1e78a068f" d="M63.38,78.32c.24,0,.5,0,.74,0-.16,1.17.88.85,1.64,1.07-.1.11.16.14-.33.16-.74,0-1.5.4-2-.37a1.84,1.84,0,0,1,.33-.45s.33,0,.16-.16h-.16c-.26,0-.28.19-.49-.08Z"/><path class="a3fa84bf-f267-4b09-a506-d4ffc4e67f61" d="M66.08,79.31c.15.83,1.33.58,1.92.66a1.29,1.29,0,0,1,.38.16,4.83,4.83,0,0,1-2.53,0c-.1-.06-.47-.44-.42-.61.49,0,.23,0,.33-.16s.24-.06.32-.08"/><path class="afc87a57-0014-47c5-b64b-17f1f9928c36" d="M53.8,76.68a12.64,12.64,0,0,1-2.68-.47c-.21,0-.61.16-.68-.35a2.09,2.09,0,0,0,1,.1Z"/><path class="b304f53d-ef07-4eb4-a032-9901a3e6a04a" d="M59.2,83.41a3,3,0,0,0,.66.74c-.09.32.23.4.24.65h-.32c-.31-.32-.6-.67-.91-1l-.08-.49Z"/><path class="b304f53d-ef07-4eb4-a032-9901a3e6a04a" d="M40.44,69.54c.36.22,1.36.63,1.47,1,.05.18-.16.14-.28.12s-.43-.26-.7-.24c0-.55-.35-.46-.49-.91"/><path class="f2f313f8-cc62-47f3-a152-a8309121cb60" d="M46.75,66.59c.08-.15.29-.07.41,0,.43.07,1.12.13,1.5.22.06,0,.52.24.47.39-.63,0-1.7-.44-2.38-.57"/><path class="b77da5d5-5d76-4fad-a6d6-68a83887c8fb" d="M49.29,75.45l-1.41-.27c-.16-.08-.39-.16-.39-.39a4.62,4.62,0,0,1,1.8.66"/><path class="a3fa84bf-f267-4b09-a506-d4ffc4e67f61" d="M59,82.83a1.92,1.92,0,0,0,.16.58l-.41-.08.09.49s-.11,0-.15,0l-.08-.2.06-.6.33-.17"/><path class="b77da5d5-5d76-4fad-a6d6-68a83887c8fb" d="M46.18,74.63l-.06.17h-.93v-.16h1"/><path class="afc87a57-0014-47c5-b64b-17f1f9928c36" d="M39.87,65.52s-.09,0,0-.12.48-.11.75-.12v.16c-.26,0-.49.07-.74.08"/><path class="b77da5d5-5d76-4fad-a6d6-68a83887c8fb" d="M47.32,74.79s-.18.16-.32.09v-.17a.4.4,0,0,1,.32.08"/><path class="b77da5d5-5d76-4fad-a6d6-68a83887c8fb" d="M46.75,74.71s-.18.16-.33.08v-.16c.12,0,.23,0,.33.08"/><path class="b77da5d5-5d76-4fad-a6d6-68a83887c8fb" d="M60,75.53l-.33-.08c.38-.09.18,0,.33.08"/><path class="ad63055c-edc5-4b09-825f-f7fd91e3dd59" d="M63.79,78.57H64c.17.17-.15.15-.16.16Z"/><path class="f2f313f8-cc62-47f3-a152-a8309121cb60" d="M49.29,67.17s.07-.12.16-.09v.17Z"/><path class="b304f53d-ef07-4eb4-a032-9901a3e6a04a" d="M57.4,83.24v.16c-.13,0-.28.08-.4.09-.07-.2.23-.21.41-.25"/><path class="b304f53d-ef07-4eb4-a032-9901a3e6a04a" d="M58.3,83v.16h-.24V83a1.92,1.92,0,0,1,.24,0"/><path class="a3fa84bf-f267-4b09-a506-d4ffc4e67f61" d="M43.72,82.26l0,.08-.12-.08s0,0,.17,0"/><path class="a3fa84bf-f267-4b09-a506-d4ffc4e67f61" d="M42.41,81.93V82s-.07.12-.17.08v-.16h.17"/><path class="a3fa84bf-f267-4b09-a506-d4ffc4e67f61" d="M43.23,82.18l0,.08c-.06,0-.09-.08-.12-.08l0-.08c.06,0,.1.07.12.08"/><path class="b304f53d-ef07-4eb4-a032-9901a3e6a04a" d="M57.89,83.16l-.16.08v-.16c.09,0,.15.08.16.08"/><path class="b304f53d-ef07-4eb4-a032-9901a3e6a04a" d="M56.83,83.49l-.17.08v-.16c.1,0,.16.08.17.08"/><path class="ad63055c-edc5-4b09-825f-f7fd91e3dd59" d="M68.79,80.86a5.16,5.16,0,0,1-.63.69c-.81.91-.67.69-1.75,1.2a1.07,1.07,0,0,1,.06-.47c.17-.37,1.73-1,2.08-1.37.06-.06.2,0,.24,0"/><path class="a3fa84bf-f267-4b09-a506-d4ffc4e67f61" d="M76.41,83c0,.15-.39,0-.44-.08s0-.15,0-.17Z"/><path class="bf1a9a0e-6992-4aee-a58f-6cc1e78a068f" d="M17,76.52l.16,2.54-1.68-1.23c-.16-.26.15-1,.38-1.19.39-.32.69-.08,1.14-.12"/><path class="afc87a57-0014-47c5-b64b-17f1f9928c36" d="M19.88,58.22c.11.05.3-.11.24.17h-.24v-.17"/><path class="f2f313f8-cc62-47f3-a152-a8309121cb60" d="M37.16,14.75l.09,0v.12h-.13l0-.16h.08"/><path class="afc87a57-0014-47c5-b64b-17f1f9928c36" d="M36.67,15.16a6.4,6.4,0,0,0,1-.17c-.09.39.22.4.41.61,1.4,1.61,2,4.59,2.43,6.68.44,2.34.7,4.74.94,7.1,0,.12,0,.44.23.38a11.7,11.7,0,0,0,.18,1.66l.52,1.13c.26.06.22-.56.2-.7,0-.31-.78-1.79-.65-1.93.74.42,1.58-.61,2.16-.57.05,0,0,.27.38.13.23-.09.25-.29.41-.41s1.13-.8,1.22-.71L45.77,30c.43.16.57-.5.79-.56s1,.14,1.21.15A5.57,5.57,0,0,0,50,29.35c0,.32-.12.71.21.9a2.34,2.34,0,0,1,2.62.41,7.79,7.79,0,0,1,.61.86c.19.26.57.39.49.78l-.74-.08c0,.24.07.27.26.36a4.21,4.21,0,0,0,1.87.13c.14-.45-.38-.42-.49-.62s0-.13.11-.11a10,10,0,0,1,1.34.55c.62.31,1.32.68,1.91,1a8.73,8.73,0,0,1,.94.9c.07.07.51.61.45.66-.71-.38-1.48-.09-2.16-.4-.18,0-.5.61-.63.68s-.27,0-.4.18S56,36.86,56,36.94v3.73h-.33l-.25-1.89c-.19,0-.14,0-.16.12a4.49,4.49,0,0,0,0,.82,41.21,41.21,0,0,0,1,4.82c.14.68.44.53.84.8A19.07,19.07,0,0,1,58.87,47a11,11,0,0,1,1.33,2.19,9.42,9.42,0,0,1,.21,2.63c0,.11-1,1.07-1.21,1.33a11.08,11.08,0,0,0-1.55,2.79c-.09.81.3,3-.87,3.23a20.13,20.13,0,0,1-3.11.17c-.56,0-1.59-.3-2.05-.25-.19,0-.29.17-.48.17a15.2,15.2,0,0,1-2.83-.86c-.51-.24-.84-.61-1.31-.86.06-.49.94-.88,1.37-1.05.26-.11,1.46-.29,1.32-.71-.36-.24-.46-.64-.81-.91a1.35,1.35,0,0,0-1.18-.28,16.11,16.11,0,0,0-1.93.36c-1.62.57-2.61,3.06-1.47,4.5.43.53.74,0,1.12-.09.66-.14,2,.81,2.72,1A6.31,6.31,0,0,0,50.22,62c.65.47,1.24,1,1.86,1.5a8,8,0,0,1,1.47,1.56,8,8,0,0,1,1.76,2.59c0,.1.19.34,0,.41-3.71-1.54-8-2.18-12-2.87-.52-.1-1.54-.15-1.91-.25-.07,0-.07-.17-.26-.25-1.64-.63-4.1.74-5.86.74-.1-.11-.11-.3-.16-.41,1,.31.55.09.44-.41,0-.13,0-.25,0-.41s-.49-.88-.46-1c.23-.08.23-.31.33-.41.37-.37,1.35-.5,1.85-.77.19-.09,1.09-.69.85-.92h-.4l-.09-.4c.07-.07.59.49.49.13a19.4,19.4,0,0,0-1.51-1.93,12.94,12.94,0,0,0-1.81-1.56A20.73,20.73,0,0,1,33.31,56c0-.12.07-.14.14-.19A6.86,6.86,0,0,1,35.9,55c.25,0,0-.37-.06-.39s-.44,0-.65-.05-1.08-.61-1.25-.72-.87-.54-.87-.83a11.51,11.51,0,0,1,.31-1.43c.14-.44,1.2-2.24,1.63-2.31a3.71,3.71,0,0,0,1.41.23s0-.13,0-.16,0-.09.11-.08c.23-.05.47.09.66.08.44,0,.94-.07,1.36-.08-.07.09-.19.26,0,.25.55,0,3.14-.38,3.36-.82l0-.11c-.36-.32.18-.39.09-.8,1,.06,1.33,1,2,1.56a7.15,7.15,0,0,0,.7.53c.21.14.79.37.9.49s-.25.4.37.7a16.62,16.62,0,0,0,3.53.73,5.72,5.72,0,0,0,1.15,0c.12-.05.13,0,.11-.19l-.41-.16c1,0,2.55-.26,3.13-1.18.83-1.33.94-3.56,1-5.09A16.42,16.42,0,0,0,53.67,41c-.1-.28-.31-.43-.41-.66-.31-.75-.42-1.41-.65-2.13a13.81,13.81,0,0,0-.71-1.59,24.12,24.12,0,0,0-2.64-1.3c-.81-.35-2.07-.94-2.95-.63-.15.06-.12.26-.22.36a3.84,3.84,0,0,1-1,.46l-.1-.18-.19.05-5.62,4.3a2.84,2.84,0,0,1-1,1.13c-.05,0-.15,0-.22,0,0,.41.36-.12.58-.08-.5.38-1.08.83-1.64,1.23a.86.86,0,0,1,0-.16s.16,0,.23,0l.1-.23c-.25,0-.29,0-.33.25a11.08,11.08,0,0,0-2.19,1.45c-.12.11-.23.13-.19.35-.14.1-.26.23-.41.33-.05-.17-.25,0-.32,0a5.55,5.55,0,0,0-1.23,1.3c-.24.29-.9.55-.91,1,0,0-.12.12-.16.16a.42.42,0,0,0-.37.16,7.17,7.17,0,0,0-1.06,1.65c-.26.49-.87,1.75-.7,2.21a.54.54,0,0,1,.08.17H29A5.16,5.16,0,0,0,29.21,52a7.63,7.63,0,0,1-.57,3.39,21.68,21.68,0,0,0-1.22,3.91c0,.19.08.34.08.52l-.66-.08c0-.36,0-.74,0-1.1a20.79,20.79,0,0,1,.52-2.18c.3-1.05.82-2,1-3.11.06-.06.38.08.4-.21,0-.5-1.27-1.37-1.72-1.53a.37.37,0,0,1,0-.11c0-.1,1-1.35,1.19-1.61A25.85,25.85,0,0,0,30,47c.14-.36.08-.67-.37-.53s-1.66,2.68-2,3.17a10.23,10.23,0,0,1-.73,1c-.23.26-1,.89-1.09,1.12-.11.55.4.25.7.33s1.32.76,1.34,1a20.78,20.78,0,0,1-1,2.54A18.72,18.72,0,0,0,26,59.32c-.06.38-.41.71.22,1a14.94,14.94,0,0,1,1.64.17c.27,0,.49-.09.73-.09h2.58l-.76.83,0,1.3c.13.26,1.61.41,2,.53s.68.3,1,.38c.14.93-.41,2.1.69,2.55,1.73.71,3.79-.56,5.54-.59.08.07-.39.78,0,.74l-.16,2.21c-.21,0-.44,0-.66,0s-.31-.14-.49-.08.34.61.44.71c.28.29,1.72,1.16,1.76,1.32s-.24.55-.21.86a10.62,10.62,0,0,0,.34,1.06c.09.41.14.89.27,1.29.08.25.28.3.27.59a1.18,1.18,0,0,1-.08.16.6.6,0,0,1-.49,0,5.06,5.06,0,0,0-4.1-3.28,3.71,3.71,0,0,0-1.39-.41,17.38,17.38,0,0,1-2.71-1.27c-.6-.31-.63-.61-1.41-.52-.53.07-1.8.56-2.15.56H27.66c-.09-.34.19-.42.32-.63s.14-.4.22-.52.57-.32.14-.48A8.86,8.86,0,0,0,26,67.49c-.39.05-.83.36-1.24.38s-1.26-.44-1.7-.28a10.25,10.25,0,0,0-.81,1.56,9.49,9.49,0,0,0-.3,1.62c-.12,0-.07.17-.09.25-.06.26-.15.33-.08.57A6.67,6.67,0,0,0,23.07,73a24.45,24.45,0,0,0,6.56,4c2.21.92,4.09,2.3,6.27,3.28a28.66,28.66,0,0,0,5.28,1.56,6.93,6.93,0,0,1-.45,1.72c-.12.27-.58.87-.61,1-.1.38.3.44.48.52a1.74,1.74,0,0,1,.41.16s0,.19.25.22l.25,1.5H35.93c0-.2-.1-.17-.21-.23a26.33,26.33,0,0,0-3-1.66c-.21,0-.4.15-.61.05s-.43-.5-.62-.62-.29-.07-.41-.16-.28-.62-.62-.38.21.81.24.93-.08.26-.07.39a2.32,2.32,0,0,1,.08.7c-1-.06-1.19-1.29-1.72-1.85a1.18,1.18,0,0,0-.41-.21s.09-.2,0-.38-.41-.41-.55-.6a8.54,8.54,0,0,0-2-2.37c-.66-.53-2.63-1.75-3.44-1.74-.56,0-.42.35-.61.63-.06.08-.58.61-.66.53a5.1,5.1,0,0,0-.33-1.5c0-.06-.16-.06-.16-.1,0-.27.51-.5.11-.77-.25-.09-.54.26-.67.46a12.25,12.25,0,0,0-.83,1.83,3.4,3.4,0,0,0-.3.9l-.43.07L18.32,80l.29-.16c.11-.2-.41-1.24-.49-1.56-.14-.52-.18-1.07-.3-1.59,0-.08,1.43-.34,1.12-1-.17-.33-.93-.1-1.22-.12a6.28,6.28,0,0,1-2.1-.46c0-.37.4-.18.55-.26s0-.15.11-.18.35-.09.32-.26l-1.38-1.81c0-.07.2-.26.23-.28.92-.56,1.74-1.56,2.5-2,.17-.09.39,0,.5-.16s.1-.4.18-.55c.61-1.17,1.33-1.6,1.33-3.1,0-.16-.12-.44-.07-.52a2.44,2.44,0,0,1,1.71-.67,1.79,1.79,0,0,0-.13-.65c-.07-.1-.26-.1-.37-.2-.35-.34-.68-1-1.22-1.12a2.46,2.46,0,0,0-1.39-1l-.09-.09c-.12-.55.43-.78.66-1.14.18.4.57-.12.7-.15s1.2.28.9-.27c-.07-.13-.24-.12-.35-.19s-.06-.14-.1-.17c-.22-.12-.58,0-.82,0-.2-.2,1.08-1.81,1.35-2s.76.12.78-.32L21.19,58l.08-.33A14.9,14.9,0,0,1,18.69,57a.37.37,0,0,1,0-.25.9.9,0,0,0,.39-.07c1.7-.79,3.89-3.64,4.92-5.24a8.71,8.71,0,0,0,.58-1.14l.74.05c.06-.38-.65-.66-.94-.66h-1.6c.42-1.08,1.1-1.93,1.52-3,.12-.32.38-1.5.49-1.65s.51,0,.7-.08c0-.11,0-.15-.06-.25s-1.52-.78-1.49-1c.44-.71.79-1.47,1.16-2.22.26-.54.11-.23.43-.55a21.15,21.15,0,0,0,.69-2.84,43.6,43.6,0,0,1,1.26-6.77c.56-1.85,2.14-3.5,3-5.21.06-.13.12-.21,0-.35.09-.13.18-.17.24-.25l0,.08h.12l.17-.36-.08-.05c0-.08.1-.16.16-.24.08.2.22,0,.28-.09a25,25,0,0,0,2.67-4.26c.21-.42.31-.7.49-1.15.07-.16.11-.34.17-.49.32-.8.77-2.17,1.14-2.87l.25-.33c.13-.16.49-.3.49-.57h.08m.25.82s0-.15-.05-.17a.59.59,0,0,0-.41.08,8.53,8.53,0,0,0-.68,1,31.46,31.46,0,0,0-2.15,7.12,47.37,47.37,0,0,0-1.06,6.32,13.2,13.2,0,0,0,.34,4.35c0,.24-1,.58-1.07,1.31s.36,2.17,1,2.41c.22.08.16-.11.25-.15a2.51,2.51,0,0,0,.42-.13c.3-.17.47-.67.86-.61a6.07,6.07,0,0,1,.7.29c.51.4.44,1.39,1.4,1.27.13-.14-.3-.91-.41-1.07l2.58-2.62a8.47,8.47,0,0,0,1.8-1.15c.33-.28.49-.34.62-.74.38-1.21.1-1.24-1-1.47a5.81,5.81,0,0,0,.49-3.16,89.61,89.61,0,0,0-1.49-10.48,3.35,3.35,0,0,0-.68-1.54c-.34-.43-.85-1-1.43-.74,0-.1-.06-.12-.08-.16m.65,25.35h-.24v.16h.12Z"/><path class="b77da5d5-5d76-4fad-a6d6-68a83887c8fb" d="M62.32,33.37c0,.19,0,.38,0,.57L61.89,35c-.17.3-.59.46-.54.9.56.7,1.12,1.34,1.62,2.07.07.11.07.25.25.21,0,.06,0,.18,0,.24.08.26.25.51.31.72s.09.31-.15.27c0,0,0-.13,0-.17s-.06-.05-.08-.08a4.35,4.35,0,0,0-.49-.57,5,5,0,0,0-1.68-2.47,7.75,7.75,0,0,0-.92-.22c-.4-.16-.82-.75-1.33-.43-.28-.11-1-.38-1.2-.25a16,16,0,0,0-1,1.24c-.69,1.3-.08,5.95.32,7.46a2.64,2.64,0,0,0,1.19,1.72,1.82,1.82,0,0,0,0,.33c.64,0,1,.56,1.64.49l-.09.17c.11,0,.24,0,.33,0s.49.17.74.24c-.1.5.23.28.58.37a26.18,26.18,0,0,1,4,1.52c.12.06.28.17.38,0a.6.6,0,0,0,.08.08s0,.1,0,.17a8,8,0,0,0,1.08.47,11.56,11.56,0,0,0,1.16-.06,1,1,0,0,1,.17,0v.24h-.17c-.22,0-.23.16-.24.17a10.65,10.65,0,0,0-1.48.44c-.13.14,0,.33-.1.48s-.57.55-.55,1.08a9.72,9.72,0,0,0,.29,1.36c.27.78.62.82,1.14,1.23a16.44,16.44,0,0,1,1.35,1.15,10.54,10.54,0,0,1-.71,3.67c-.12.34-.3.63-.43,1-.22.59-.23.26-.66.46-.13.06-.27.3-.49.41-1.44.74-3,.5-4.63.69-.56.07-1.13.17-1.68.29-.17,0-.32.19-.45.2A14.63,14.63,0,0,1,58,62.08c-.76-.06-1.55,0-2.36-.09a22.63,22.63,0,0,1-6.09-2.36c-.94-.45-2.74-.76-2.56-2.14.47.25.8.62,1.31.86a15.2,15.2,0,0,0,2.83.86c.19,0,.29-.16.48-.17.46,0,1.49.24,2.05.25a20.13,20.13,0,0,0,3.11-.17c1.17-.18.78-2.42.88-3.23A10.73,10.73,0,0,1,59.2,53.1c.2-.26,1.18-1.22,1.22-1.33a9.82,9.82,0,0,0-.22-2.63A11,11,0,0,0,58.87,47a19.07,19.07,0,0,0-1.76-1.61c-.4-.27-.7-.12-.83-.8a39.28,39.28,0,0,1-1-4.82,4.49,4.49,0,0,1,0-.82c0-.15,0-.13.16-.12l.25,1.89H56V36.94c0-.08.37-1.33.41-1.39s.28-.1.4-.18.45-.65.63-.68c.68.31,1.45,0,2.16.4.06-.05-.38-.59-.45-.66a8.73,8.73,0,0,0-.94-.9v-.41a14.53,14.53,0,0,1,1.3.79c.35.26,1.29,1.29,1.49,1.38.49.23.58-.31.71-.67a22.26,22.26,0,0,0,.43-5.27h.08c0,.23.09.56.09.7v3.32m-.6,20.85c-1,.18-2,1.94-.88,2.4a2.78,2.78,0,0,0,1.4.09,2.3,2.3,0,0,0,1.1-.94c.35-1.17-.56-1.73-1.62-1.55m3.36,1.07a3.89,3.89,0,0,0-.87.69c-.53.92.73,2,1.71,1.71.37-.1,1.07-.78,1-1.19a8.42,8.42,0,0,0-.67-1,1.44,1.44,0,0,0-1.12-.24M62.62,57.5a1.8,1.8,0,0,0-.84.88c-.44,1.69,1.55,2.79,2.3,1.32A1.39,1.39,0,0,0,63.83,58a1,1,0,0,0-1.21-.48"/><path class="b9b41a20-eed4-4b44-9529-983d944e5039" d="M73.05,51c-.15.13-.22,0-.36,0a5.78,5.78,0,0,0-2.87-.73c-.13,0-.23.14-.41.16-.6.09-1.32-.33-1.89.16-.09.08-.13.23-.21.29s-.71.46-.78.7,0,.3,0,.45a2.53,2.53,0,0,0-.08.57c.07.64,1.11,1.23,1.6.79.18-.17.1-.61.6-.37.18.07.68.75.54.94s-.5-.2-.72-.16-.62.21-.55.36a16.76,16.76,0,0,0,2.13,1.31.75.75,0,0,0,.36.05,14.33,14.33,0,0,0,1.68-.92c.17-.29-.39-.37-.41-.44,0-.25.48-.67.7-.61s.15.82.82.08a1.63,1.63,0,0,0,.45-1.89c.67.16.46,1.07.24,1.51s-1,1.09-1,1.32a5.44,5.44,0,0,0,.08,1c0,1,.1,2,.08,2.95a30.73,30.73,0,0,1-.7,3.56c-.12.22-.34.56-.49.83s-.42.18-.55.43A9.68,9.68,0,0,0,71,65.11c-.12.51-.36,1.16-.53,1.64a2.13,2.13,0,0,1-.25.5c-.16,0-.19,0-.16.16s0,.19-.09.26a18,18,0,0,1-2.37,2.69c-.6-.06-1.09.92-1.6.91-.15,0-.1,0-.14-.11-.24-.4-.46-.85-.66-1.27a.48.48,0,0,0-.27-.09c-.63,0-1.44,1.25-2,1.55l-2.3-.74c-.27-.12-.5.16-.69.16a18.34,18.34,0,0,1-2.19-.71,11.62,11.62,0,0,1-1.41-.35c-.23-.11-.57-.35-.91-.49a13.89,13.89,0,0,0-2.29-1c-.42-.08-.78,0-1.25-.14a20.36,20.36,0,0,0-2.44-.88v-.17c-.09,0-.15.08-.16.08a.43.43,0,0,1-.16,0c0-.15-.41-.37-.47-.39-.38-.09-1.07-.15-1.5-.22-.12,0-.33-.11-.41,0-.6-.11-1.21-.15-1.8-.25,0-.26-.56-.26-.76-.33,0,0,0-.13-.13-.15s-.51,0-.75-.13c-.07,0-.6-.28-.37-.37l.45-.16c4,.69,8.25,1.33,12,2.87.82.33,1.59.83,2.44,1.13a36,36,0,0,1,3.71,1,10.3,10.3,0,0,0,1.79.53,2,2,0,0,1,.88-1.3c.32-.15.7-.06,1-.25.28.07.73,1.08.93,1.37,0,.06,0,.14.15.1.4-.5,1.15-.84,1.55-1.31a21.2,21.2,0,0,0,2.79-5.08,5.89,5.89,0,0,0,.19-1.51c-.12-.4-1.13-1.18-1.25-1.45s0-.33-.09-.49-.54-.78-.75-.81c-.32.14-.52.5-.82.71a11.24,11.24,0,0,0-1,.55c-.11.12-.11.29-.29.45a15.53,15.53,0,0,1-3.45.9,23.19,23.19,0,0,0-2.76.25c-.09,0-.08.16-.14.2-.28.19-.89-.18-1.23-.25-1-.22-2.11-.05-3-.22-1.26-.23-2.64-.84-3.91-1.17a8.2,8.2,0,0,1-1-.19c-.1-.07,0-.24-.06-.32a3.26,3.26,0,0,0-.56-.23c-.33-.06-.5.08-.77.05s-1.25-.33-1.53-.41c-.76-.24-2.06-1.19-2.72-1-.37.07-.69.62-1.12.09-1.14-1.44-.15-3.93,1.47-4.5a16.11,16.11,0,0,1,1.93-.36,1.35,1.35,0,0,1,1.18.28c.35.27.45.67.81.91.14.42-1.06.6-1.32.71-.43.17-1.31.56-1.37,1.05-.18,1.38,1.62,1.69,2.56,2.14A22.63,22.63,0,0,0,55.65,62c.81.12,1.6,0,2.36.09a14.63,14.63,0,0,0,1.48.24c.13,0,.28-.17.45-.2.54-.12,1.12-.22,1.68-.29,1.58-.19,3.19.05,4.63-.69.22-.11.36-.35.49-.41.43-.2.44.13.66-.46a6.29,6.29,0,0,0,1.14-.73l.2.08c.13,0,.1-.17.13-.25.14-.37.14-1,.25-1.47h.4l.09.32c0,.05,0,.12,0,.17h-.17v.2l.09,0c-.06.2-.14.16-.16.23a3.54,3.54,0,0,0-.09.7c0,.06.17.1.23.19.28.36.57.73.83,1.1a6.37,6.37,0,0,0,1.28,1.64c.11,0,.14-.06.18-.14a4.84,4.84,0,0,0,.43-2.2c0-.17-.19-.22-.23-.34-.19-.62.44-1.13.31-1.79-.07-.34-1-.56-.9-1.39a1,1,0,0,1,.41-.58c.18-.08.35,0,.52-.06.35-.1.18-.76.22-1.05-.39,0-.45.55-.66.7a9.9,9.9,0,0,1-1.23.37h-.08l0-.17h-.12V56c-.11,0-.23,0-.33,0l-.33-.08-.65-.17c0-.3-.2-.18-.33-.16h-.25a16.44,16.44,0,0,0-1.35-1.15c-.52-.41-.87-.45-1.14-1.23a9.72,9.72,0,0,1-.29-1.36c0-.53.47-.81.55-1.08s0-.34.1-.48a10.65,10.65,0,0,1,1.48-.44h.24v-.17h.17c.06,0,.25.16.41.08v-.24c1.23.4,3.37.7,4.34,1.47"/><path class="afc87a57-0014-47c5-b64b-17f1f9928c36" d="M51.09,26c.43-.25.43-.46.7-.65s.32-.11.45-.21A30.47,30.47,0,0,0,55.18,22c.69-1.33,1.34-2.66,2.1-4,.06-.11,0-.21.2-.17a9.13,9.13,0,0,1-.1.93c-.32,1.45-.26,2.55-.48,3.95-.26,1.71-.59,3.45-.88,5.18-.09.52-.09,1-.22,1.59a11,11,0,0,0-.53,2c-.24-.06-.39-.22-.65-.29s-.44,0-.58-.08-.41-.58-.57-.74a3.29,3.29,0,0,0-2.71-.89c-.19-.13.06-.68-.21-.78S49.4,29.16,49,29a8.85,8.85,0,0,0,.7-1.14,11.84,11.84,0,0,0,1.1-1.65s0-.06,0-.08c.17,0,.23-.11.33-.17"/><path class="f2f313f8-cc62-47f3-a152-a8309121cb60" d="M57.81,15.73s.42-.19.52-.26.13-.24.29-.28c.65-.16,1.17.53,1.47,1s.32.9.67,1.17c.18.14.13.61.16.66v.24h.17c0,.13.06.63.08.66v.16h.16a2.09,2.09,0,0,1,0,.25l-.08.16h.16a.48.48,0,0,1,0,.17s-.13.12-.08.24h.17a1,1,0,0,0,0,.17l-.08.16h.16a1,1,0,0,0,0,.17l-.08.12.08,0a1.79,1.79,0,0,0,0,.33v.16h.16a2.09,2.09,0,0,1,0,.25l-.08.12.08,0c0,.14,0,.28,0,.41l.08.17a17.2,17.2,0,0,0,.33,2.38c-.13.09-.09.38-.08.54a.77.77,0,0,0,.08.28.86.86,0,0,1,0,.16,1,1,0,0,1,0,.17h-.24v-.17a1.33,1.33,0,0,0,0-.41c-.31-2.08-.79-6.38-1.89-8,.17-.05,0-.24,0-.33s-.55-1.07-.75-1.13c-.57-.17-1.4.65-1.34,1.22.25,0,.25-.28.41-.37a.49.49,0,0,1,.25,0c-.06.25-.28.26-.37.57a8.06,8.06,0,0,0-.19.88,107.77,107.77,0,0,1-1.77,12.17c-.12.45-.54,1.26-.33,1.71a16.88,16.88,0,0,0,2.33,1.48v.41c-.59-.32-1.29-.69-1.91-1A10.54,10.54,0,0,0,55,32c-.11,0-.16,0-.11.12s.63.16.49.61a4.21,4.21,0,0,1-1.87-.13c-.19-.09-.31-.12-.26-.36l.74.08c.08-.39-.3-.52-.49-.78a7.79,7.79,0,0,0-.61-.86,2.34,2.34,0,0,0-2.62-.41c-.33-.19-.19-.58-.21-.9a5.57,5.57,0,0,1-2.26.24c-.25,0-1.05-.19-1.21-.15s-.36.72-.79.56l.32-1.64c-.09-.09-1.08.6-1.22.71s-.18.32-.41.41c-.39.14-.33-.13-.38-.13-.58,0-1.41,1-2.16.57-.13.14.6,1.62.65,1.94,0,.13.06.75-.2.69l-.52-1.13a11.7,11.7,0,0,1-.18-1.66v-.49h.16c.28.32,1.1.07,1.48,0,1-.28,1.94-.88,2.91-1.19.17,0,.1,0,.12.12,0,.29-.15,1,.22,1.09s2.09.05,2.4-.23c.44.14,1.24-.35,1.59-.24s0,.65.21.78a3.29,3.29,0,0,1,2.71.89c.15.16.53.72.57.74s.39,0,.58.08.41.23.65.29a11,11,0,0,1,.53-2c.13-.55.13-1.07.22-1.59.29-1.73.62-3.47.88-5.18.22-1.4.15-2.5.48-3.95a9.13,9.13,0,0,0,.1-.93c-.22,0-.14.06-.2.17-.76,1.3-1.41,2.63-2.11,4a28.37,28.37,0,0,1-2.93,3.13c-.13.1-.32.11-.45.21s-.27.4-.7.66a5.15,5.15,0,0,1,.78-1.07c.9-1,1.88-1.94,2.75-3a19.19,19.19,0,0,0,2.13-4c.19-.39.88-2,1.06-2.18M54.74,31.89V32s0,0,0-.08"/><path class="b77da5d5-5d76-4fad-a6d6-68a83887c8fb" d="M38.8,15.48s0,.06,0,.09c.3.66.69,1.21,1,1.85.87,1.95.61,4.17,1.09,6.22a1.79,1.79,0,0,0,.32.7c0,.11,0,.22,0,.33A2.78,2.78,0,0,0,41.42,26c0,.11,0,.22,0,.33.06.63.18,1.29.25,1.89,0,.05,0,.11,0,.16,0,.28-.05.66.16.91h-.16v.49c-.21.06-.22-.26-.24-.38-.23-2.36-.49-4.76-.93-7.1-.4-2.09-1-5.07-2.43-6.68-.19-.21-.5-.22-.41-.61a6.4,6.4,0,0,1-1,.17l.08-.25a1.45,1.45,0,0,1,.33-.16l0,.16h.13v-.12l-.09,0c1-.24.86.33,1.64.73"/><path class="afc87a57-0014-47c5-b64b-17f1f9928c36" d="M62.23,27h.09a.86.86,0,0,0,0,.16c-.24-.05-.18.14-.17.29,0,.65.06,1.28.08,1.93h-.08c0-.77-.2-1.57-.16-2.38Z"/><path class="f2f313f8-cc62-47f3-a152-a8309121cb60" d="M62.23,26.48a1.92,1.92,0,0,1,0,.24,2.08,2.08,0,0,1,0,.25H62c0-.11,0-.22,0-.33a4,4,0,0,1,.16-.49,2.24,2.24,0,0,0,.08.33"/><path class="a9c508e1-f061-479a-aedb-9f1c1ca9d609" d="M52,38.7c-.48-.21-.71-.1-.91.35-.07.14-.17.86-.32.44a7.2,7.2,0,0,1-.28-1.2l-.16-.08a17.94,17.94,0,0,0-5.7,1.27A5.28,5.28,0,0,0,43,40.71c-.37.34-1,.65-1,1.23A2.54,2.54,0,0,0,42.26,43a1.46,1.46,0,0,0,.51,0c.43-.08,1.35-.69,1.83-.79,1.65-.37,3.55.31,5.22.39a12.53,12.53,0,0,0,1.84-.09,2.51,2.51,0,0,1,.29-.9,7.79,7.79,0,0,0,.45-2,.57.57,0,0,1,.26.27c.89,1.46,1.33,6.37,1.29,8.13a3.06,3.06,0,0,1-1.64,2.38,4.55,4.55,0,0,1-2.05.49,3.08,3.08,0,0,1-2-.05l-1.79-.51a4.36,4.36,0,0,1-2.62-1.76c0-.11.31,0,.21-.17a2.12,2.12,0,0,0-.78-.57c-.22-.14-.89-.61-1.09-.56-.49.1-.75.7-1,1a1.89,1.89,0,0,1-1,.53,6.9,6.9,0,0,1-1,.25c-.15,0-.33-.1-.29.16h-.24c-.42,0-.92.08-1.35.08-.21,0-.44-.13-.66-.08s-.1,0-.12.08l-.33-.08a.3.3,0,0,0-.16-.08,2.21,2.21,0,0,0-1.48,0l0-.49c-.27.15-.28.48-.37.65a20.47,20.47,0,0,0-1.52,3.37c0,.05,0,.72,0,.75,0,.2.27.35.39.48a4.91,4.91,0,0,0,1.4,1c-.33.12-1.6.45-1.75.57s-.28.59-.16.72c1.1.89,2.17,1.83,3.26,2.73a7.35,7.35,0,0,1,1.51,1.36,9.17,9.17,0,0,1,.58.81,1.47,1.47,0,0,1,0,.21,6.46,6.46,0,0,0-2.08.92,7.71,7.71,0,0,0-.91.89c-.27.58.2,1.39.45,1.88,0,.11.06.3.16.41-.19,0-1,0-1.11-.16l-.12-1.6.25-.32c0-.46-1.41-.88-1.8-1a6.8,6.8,0,0,0-1.48-.29c0-.23-.06-.51.08-.7a7.58,7.58,0,0,1,1.9-1.13c.21-.09.64,0,.71-.36.15-.67-1.61-.28-1.91-.27-.75,0-1.56.07-2.29.06a9.67,9.67,0,0,1-1.48-.14,1.84,1.84,0,0,1,0-.62,14.89,14.89,0,0,1,.9-3.65,9.06,9.06,0,0,0,.57-2.62c.11,0,.08-.16.09-.25a7.49,7.49,0,0,0-.17-1.72.54.54,0,0,0-.08-.17c.36-.58.48-1.28.78-1.89a15.39,15.39,0,0,1,1.35-2.13s.12-.13.16-.16.45-.27.62-.41l1.35-1.23a1.17,1.17,0,0,0,.6-.27,10.71,10.71,0,0,0,2.19-1.58L36,42.72c.26-.18.59-.52.9-.74.56-.4,1.14-.85,1.64-1.23A68.19,68.19,0,0,1,45,36c.23-.13,1.8-1,1.91-1s.83.46,1.11.6c1.19.6,2.52.88,3.67,1.57Zm.49,7.22a1.36,1.36,0,0,0-.32-.77c.13-.16.79-.75.65-.95a3.27,3.27,0,0,0-.53-.17,17.71,17.71,0,0,0-6.51.78,8.64,8.64,0,0,0-2.42,1.6c.08,1.09,1.13,2,2,2.53,1.73,1.16,3.94.77,5.76.1.33-.13,1.33-.36,1.44-.74a1.24,1.24,0,0,0,0-.33c.19.05.18-.1.2-.24a4.06,4.06,0,0,0-.12-1.43l-.17,0a2.08,2.08,0,0,0,0-.25.22.22,0,0,0,0-.08"/><path class="b77da5d5-5d76-4fad-a6d6-68a83887c8fb" d="M48.14,60.36c.28.08,1.31.38,1.53.41s.44-.11.77-.05A3.26,3.26,0,0,1,51,61c0,.08,0,.25.06.32a8.2,8.2,0,0,0,1,.19c1.27.33,2.65.94,3.91,1.17.94.17,2,0,3,.22.34.07,1,.44,1.23.25.06,0,0-.17.14-.2a23.19,23.19,0,0,1,2.76-.25,15.53,15.53,0,0,0,3.45-.9c.18-.16.18-.33.29-.45a11.24,11.24,0,0,1,1-.55c.3-.21.5-.57.82-.71.21,0,.67.61.75.81s0,.33.09.49,1.13,1,1.25,1.45a5.84,5.84,0,0,1-.19,1.51,21.2,21.2,0,0,1-2.79,5.08c-.4.48-1.15.81-1.55,1.31-.16,0-.1,0-.15-.1-.2-.29-.65-1.3-.93-1.37-.34.19-.72.1-1,.25a2,2,0,0,0-.88,1.3,10.3,10.3,0,0,1-1.79-.53,36,36,0,0,0-3.71-1c-.85-.3-1.62-.8-2.44-1.13.15-.07,0-.31,0-.41a8,8,0,0,0-1.76-2.59,8,8,0,0,0-1.47-1.56c-.62-.51-1.21-1-1.86-1.5a6.31,6.31,0,0,1-2.08-1.65"/><path class="b304f53d-ef07-4eb4-a032-9901a3e6a04a" d="M40.11,32.06c-.49-.11-.15-.83-.17-1.19s-.85-.84-1.1-1.28a1.7,1.7,0,0,1,0-.49,4.42,4.42,0,0,0,.17-1.39c0-.54,0-.28-.17-.41s0-.33-.16-.45-.89,0-1-.26c-.19-.58.51-1.52.73-2,0-.16-1-.87-1.14-1.25a13.31,13.31,0,0,1,.15-1.5,1.92,1.92,0,0,0,0-.24c.12-.12.08-.27.08-.41a2.78,2.78,0,0,0,0-.5c.12-.12.08-.26.09-.41a2,2,0,0,0-.09-.81h-.24a9.39,9.39,0,0,0-.17,1.15.36.36,0,0,0-.08.25c0,.1,0,.22,0,.33a5.82,5.82,0,0,0-.31,2.32c.11.38,1,.74,1.2,1.17-.08.42-.48.65-.54,1.08,0,.1,0,1,0,1a2.52,2.52,0,0,0,1.22.79,6.44,6.44,0,0,1-.08,1.4s-.19.07-.23.22c-.29,1,.82,1.06,1,1.59s-.06,1,.17,1.47c.11.15,1.34,0,1.43.53a4.17,4.17,0,0,1,0,.5c0,.16-.08.33.17.28-.13.4-.29.46-.62.74a8.47,8.47,0,0,1-1.8,1.15L36.1,38a3.29,3.29,0,0,0-.74-.7c-.06-.23.15-.18.16-.25a3.87,3.87,0,0,0-.41-2c-.15-.21-.36-.22-.54-.33s-.07-.17-.16-.21-1,.28-1.18.13-.07-.16-.08-.25a19.77,19.77,0,0,1,.08-3.53c.05-.88,0-1.64.1-2.53a36.56,36.56,0,0,1,1-3.67l-.24,0a32.23,32.23,0,0,1,2-6.93l.08-.16c.1-.07.07-.16.08-.25.42-.17.56-.78,1.07-.82l-.33-.17c0-.08.08-.15.08-.16.58-.26,1.09.31,1.43.74a3.35,3.35,0,0,1,.68,1.54A89.91,89.91,0,0,1,40.6,28.9a5.81,5.81,0,0,1-.49,3.16"/><path class="b77da5d5-5d76-4fad-a6d6-68a83887c8fb" d="M38.56,40.75c-.21,0-.61.49-.58.08a.32.32,0,0,0,.22,0,2.77,2.77,0,0,0,1-1.13l5.62-4.3.2-.05.09.18a3.84,3.84,0,0,0,1-.46c.1-.1.07-.3.22-.36.88-.31,2.14.28,2.95.63a24.12,24.12,0,0,1,2.64,1.3,13.81,13.81,0,0,1,.71,1.59c.23.72.34,1.38.65,2.13.1.23.31.38.41.66a16.42,16.42,0,0,1,.87,4.23c0,1.53-.14,3.76-1,5.09-.58.92-2.13,1.16-3.13,1.18l.41.16c0,.17,0,.14-.11.19a5.72,5.72,0,0,1-1.15,0,16.62,16.62,0,0,1-3.53-.73c-.62-.3-.2-.51-.36-.7s-.7-.35-.91-.49a7.15,7.15,0,0,1-.7-.53c-.68-.6-1-1.5-2-1.56.09.41-.45.48-.09.8l0,.11c-.22.44-2.81.79-3.36.82-.23,0-.11-.16,0-.25h.24a2.54,2.54,0,0,0,1-.14c.14,0,.39,0,.34-.27a1.89,1.89,0,0,0,1-.53c.29-.31.55-.91,1-1,.2,0,.87.42,1.09.56.06.32.39.53.57.74a4.36,4.36,0,0,0,2.62,1.76l1.79.51a3.08,3.08,0,0,0,2,.05,4.55,4.55,0,0,0,2.05-.49A3.06,3.06,0,0,0,54,48.08c0-1.76-.4-6.67-1.29-8.13a.57.57,0,0,0-.26-.27s-.07-.06-.07-.13c0-.36.08-.67-.34-.85l-.32-1.52c-1.15-.69-2.49-1-3.68-1.57-.28-.14-.86-.62-1.11-.6s-1.68.84-1.91,1a68.19,68.19,0,0,0-6.41,4.77"/><path class="f2f313f8-cc62-47f3-a152-a8309121cb60" d="M36.1,38c.11.16.54.93.41,1.07-.95.12-.89-.87-1.4-1.27a6.07,6.07,0,0,0-.7-.29c-.39-.06-.56.44-.86.61a2.51,2.51,0,0,1-.42.13c-.09,0,0,.23-.25.15-.68-.24-1.12-1.75-1-2.41s1.05-1.07,1.07-1.31a13.2,13.2,0,0,1-.34-4.35,47.64,47.64,0,0,1,1.06-6.32,31.46,31.46,0,0,1,2.15-7.12,9.91,9.91,0,0,1,.68-1,.59.59,0,0,1,.41-.08c.1,0,0,.13.05.17-.53.2-.66.83-.74,1.31,0,.09,0,.18-.08.25s-.12,0-.16,0l.08.16a32.82,32.82,0,0,0-2,6.93l.24,0a36.56,36.56,0,0,0-1,3.67c-.12.89,0,1.65-.09,2.53a18.87,18.87,0,0,0-.09,3.53c0,.09,0,.18.08.25s.94-.2,1.18-.13.11.18.16.21.39.12.54.33a3.87,3.87,0,0,1,.41,2c0,.07-.22,0-.16.25a3.29,3.29,0,0,1,.74.7"/><path class="b77da5d5-5d76-4fad-a6d6-68a83887c8fb" d="M35.94,49.2v.16l.16-.08.33.08s0,.14,0,.16A3.71,3.71,0,0,1,35,49.29c-.43.07-1.49,1.87-1.63,2.31A13.65,13.65,0,0,0,33.07,53c0,.29.62.67.87.83s1.13.68,1.25.72.54,0,.65.05.31.36.06.39a6.86,6.86,0,0,0-2.45.76c-.07,0-.16.07-.14.19s1.4,1.19,1.6,1.35a13,13,0,0,1,1.8,1.56,18.19,18.19,0,0,1,1.52,1.93c.11.36-.42-.2-.49-.12l.09.39.4,0c.23.22-.66.82-.84.91-.51.27-1.49.4-1.86.77-.1.1-.1.33-.33.41a7.38,7.38,0,0,0,.46,1c0,.16,0,.28,0,.41.11.5.54.72-.44.41-.25-.49-.72-1.3-.45-1.88a7.71,7.71,0,0,1,.91-.89,6.46,6.46,0,0,1,2.08-.92,1.47,1.47,0,0,0,0-.21,9.17,9.17,0,0,0-.58-.81A7.35,7.35,0,0,0,35.65,59c-1.09-.9-2.16-1.84-3.26-2.73-.11-.13.07-.64.16-.72s1.42-.45,1.75-.57c.13,0,.43.08.41-.24-.63-.19-1.1-.83-1.81-.74-.12-.13-.35-.28-.39-.47s0-.71,0-.76a20.47,20.47,0,0,1,1.52-3.37c.25.1.33-.12.41-.16a2.21,2.21,0,0,1,1.48,0"/><path class="ad63055c-edc5-4b09-825f-f7fd91e3dd59" d="M38.88,29.1a1.7,1.7,0,0,0,0,.49c.25.44,1.09.8,1.1,1.28s-.32,1.08.17,1.19c1.09.23,1.37.26,1,1.47-.25,0-.16-.12-.17-.28a4.17,4.17,0,0,0,0-.5c-.09-.49-1.32-.38-1.43-.53-.23-.45,0-1-.17-1.47s-1.29-.62-1-1.59c0-.15.22-.2.23-.22Z"/><path class="b77da5d5-5d76-4fad-a6d6-68a83887c8fb" d="M29.46,50.68a7.49,7.49,0,0,1,.17,1.72c-.34,0-.09.18-.08.25A9.42,9.42,0,0,1,29,55.27l-.33.08A7.63,7.63,0,0,0,29.21,52,5.16,5.16,0,0,1,29,50.68Z"/><path class="a3fa84bf-f267-4b09-a506-d4ffc4e67f61" d="M36,42.72l.41.12a10.71,10.71,0,0,1-2.19,1.58,1.17,1.17,0,0,1-.6.27l.49-.74c.15-.1.27-.23.41-.33.46-.32,1-.58,1.48-.9"/><path class="b77da5d5-5d76-4fad-a6d6-68a83887c8fb" d="M31.51,46.49a15.39,15.39,0,0,0-1.35,2.13c-.3.61-.42,1.31-.78,1.89-.17-.46.44-1.72.7-2.21a7.17,7.17,0,0,1,1.06-1.65.42.42,0,0,1,.37-.16"/><path class="b77da5d5-5d76-4fad-a6d6-68a83887c8fb" d="M34.13,44l-.49.74-1.35,1.23c-.16.14-.5.31-.61.41,0-.48.66-.74.9-1A5.4,5.4,0,0,1,33.81,44c.07-.06.28-.22.32,0"/><path class="b77da5d5-5d76-4fad-a6d6-68a83887c8fb" d="M35.77,16l.08.08c-.37.7-.82,2.07-1.14,2.87l-.25-.08A23,23,0,0,1,35.77,16"/><path class="b77da5d5-5d76-4fad-a6d6-68a83887c8fb" d="M36.92,41.82c0-.23.08-.28.33-.25l-.1.23c-.07.05-.18,0-.23,0"/><path class="b77da5d5-5d76-4fad-a6d6-68a83887c8fb" d="M36.92,41.82a.86.86,0,0,0,0,.16c-.31.22-.64.56-.9.74-.46.32-1,.58-1.48.9,0-.22.07-.24.19-.35a11.54,11.54,0,0,1,2.19-1.45"/><path class="ad63055c-edc5-4b09-825f-f7fd91e3dd59" d="M36.92,16s.08.06.08.16-.11.08-.08.17l.33.16c-.51.05-.65.65-1.07.82.08-.48.21-1.11.74-1.31"/><path class="b77da5d5-5d76-4fad-a6d6-68a83887c8fb" d="M36.51,15.07c.07,0,.08.09.08.09,0,.27-.36.41-.49.57L36,15.65c.24-.32,0-.24.49-.58"/><path class="f2f313f8-cc62-47f3-a152-a8309121cb60" d="M36.1,15.73l-.25.33L35.77,16c.1-.15.16-.21.25-.33Z"/><polygon class="b77da5d5-5d76-4fad-a6d6-68a83887c8fb" points="37.57 41.33 37.45 41.49 37.33 41.49 37.33 41.33 37.57 41.33"/><path class="b304f53d-ef07-4eb4-a032-9901a3e6a04a" d="M60,17c1.1,1.66,1.58,6,1.89,8-.13.05-.13.36,0,.41v.16A2.5,2.5,0,0,0,62,26.64c0,.1,0,.22,0,.33,0,.81.13,1.61.16,2.38a22.26,22.26,0,0,1-.43,5.27c-.13.36-.22.9-.71.67-.2-.09-1.14-1.12-1.49-1.38s-.87-.52-1.3-.79a16.88,16.88,0,0,1-2.33-1.48c-.21-.45.21-1.26.33-1.71A107.77,107.77,0,0,0,58,17.76a8.06,8.06,0,0,1,.19-.88c.09-.31.31-.32.37-.57a2.89,2.89,0,0,1,.51-.16A3.06,3.06,0,0,1,60,17m-.33,10.17a.31.31,0,0,0,.31-.22,11.12,11.12,0,0,0,.58-3.1.91.91,0,0,0-.15-.49c-.37-.09-.47-.48-.9-.37a9.45,9.45,0,0,0,.16-2.75c0-.11-.06-.21-.2-.2s-.44,1.38-.45,1.67a10.77,10.77,0,0,0,.08,1.94c1.27-.36,1,.36.88,1.24a18.7,18.7,0,0,0-.31,1.87c-.34,0-.17.5-.28.66s-.59.11-.45.57c.07.08,1.29-.37,1.52-.08s-.83,1.49-.95,1.77l.13.18a1.75,1.75,0,0,1,.56,0c.06,0,.11-.08.13-.08.19,0,.38,0,.57,0a11.37,11.37,0,0,1-.5,2.33c-.22.46-.72.76-.81,1.28.23.22,1.09-.89,1.18-1.08a12.29,12.29,0,0,0,.46-1.67V29.39c0-.19-.71-.09-.82,0-.14-.11-.2,0-.12-.24.16-.45.68-1,.52-1.51-.08-.26-1-.3-1.22-.22,0-.1.08-.2.08-.25"/><path class="a9c508e1-f061-479a-aedb-9f1c1ca9d609" d="M58.88,35.5c1.86.72,2.63,1.69,3.93,3.12a4.35,4.35,0,0,1,.49.57l.08.08s0,.13,0,.17c.2.53.52,1.28.66,1.8a7.68,7.68,0,0,1,.16,2.14l0,.06,0,.1A7,7,0,0,0,64.61,46a2.14,2.14,0,0,1,.16,1.15c0,.24-.32.42-.49.57a12.11,12.11,0,0,0-1.8-.32c.05-.31.34-.34.41-.66l.06-.05s-.06-.11-.06-.12.13-.16.16-.24c.24,0,.2,0,.3-.16a7.51,7.51,0,0,0,.43-1.05c0-.34-1.34-1-1.67-1.17a10.5,10.5,0,0,0-3.1-.56c-.44,0-.85.26-1.28.31-.07.08.37.82.4,1s0,.64,0,.94A2.64,2.64,0,0,1,57,44c-.4-1.51-1-6.16-.32-7.46a16,16,0,0,1,1-1.24c.23-.13.92.14,1.2.25M63.08,40c-1.19-1-1.89-1.74-3.59-1.87a4.9,4.9,0,0,0-3,.47,6.33,6.33,0,0,0,1,3.31c.13,0,.26.06.39.06a28.19,28.19,0,0,0,2.87-.23c.33,0,.76-.23,1.06-.23s1,.42,1.38.3.51-1.39.2-1.69c-.06-.06-.2,0-.28-.12"/><path class="b9b41a20-eed4-4b44-9529-983d944e5039" d="M58.14,45.67c0-.3,0-.65,0-.94s-.47-.95-.4-1c.43-.05.84-.27,1.28-.31a10.5,10.5,0,0,1,3.1.56c.33.12,1.67.83,1.66,1.17a5.68,5.68,0,0,1-.43,1.05c-.09.16-.05.2-.29.16.16-.36.35-.56.25-1s-1-.87-1.56-.9a2,2,0,0,1,.17.82,3,3,0,0,1-.18,1.43c0,.12,0,.25-.23.21a5.83,5.83,0,0,0,.16-1.56l-1.07,0A2.66,2.66,0,0,1,60,46.66c-.09,0-.22,0-.33,0l.09-.17c-.68.07-1-.48-1.64-.49a1.82,1.82,0,0,1,0-.33"/><path class="f2f313f8-cc62-47f3-a152-a8309121cb60" d="M61.72,54.22c1.06-.18,2,.38,1.62,1.55a2.3,2.3,0,0,1-1.1.94,2.78,2.78,0,0,1-1.4-.09c-1.08-.46-.13-2.22.88-2.4"/><path class="f2f313f8-cc62-47f3-a152-a8309121cb60" d="M62.62,57.5a1,1,0,0,1,1.21.48,1.39,1.39,0,0,1,.25,1.72c-.75,1.47-2.74.37-2.3-1.32a1.8,1.8,0,0,1,.84-.88"/><path class="f2f313f8-cc62-47f3-a152-a8309121cb60" d="M65.08,55.29a1.44,1.44,0,0,1,1.12.24,8.42,8.42,0,0,1,.67,1c.12.41-.58,1.09-1,1.19-1,.26-2.24-.79-1.71-1.71a3.89,3.89,0,0,1,.87-.69"/><path class="b304f53d-ef07-4eb4-a032-9901a3e6a04a" d="M68.79,55.6c0,.19.2.13.33.16l.65.17c.12.37-.14.5-.22.72a10.84,10.84,0,0,0-.43,1.25c-.11.43-.11,1.1-.25,1.47-.39-.1-.31.15-.33.17a6.29,6.29,0,0,1-1.14.73c.13-.37.31-.66.43-1a10.54,10.54,0,0,0,.71-3.67h.25"/><path class="afc87a57-0014-47c5-b64b-17f1f9928c36" d="M60,46.66a2.62,2.62,0,0,0,.57-1.28l1.07,0a5.83,5.83,0,0,1-.16,1.56.27.27,0,0,0,0,.09l-.17.08c-.3,0-.35-.1-.57-.17s-.51-.19-.74-.24"/><path class="afc87a57-0014-47c5-b64b-17f1f9928c36" d="M62.81,38.62c-1.3-1.43-2.07-2.4-3.94-3.12.52-.32.94.27,1.34.43a7.75,7.75,0,0,1,.92.22,5,5,0,0,1,1.68,2.47"/><path class="f2f313f8-cc62-47f3-a152-a8309121cb60" d="M61.33,47.07h.08c.2.23.49.2.74.24l.33.09a12.35,12.35,0,0,1,1.8.32c.09,0,.37.19.49.25s.34.27.58.25a3.83,3.83,0,0,0,.41.57c-.1.17-.26.06-.38,0a25.24,25.24,0,0,0-4-1.53c-.35-.09-.68.14-.58-.37.22.07.27.18.57.17"/><path class="f2f313f8-cc62-47f3-a152-a8309121cb60" d="M68.13,49.45a11.56,11.56,0,0,1-1.16.06A8,8,0,0,1,65.89,49c-.09-.07,0-.16,0-.17a7.87,7.87,0,0,1,1.08.19,4.89,4.89,0,0,1,1.21.39"/><path class="f2f313f8-cc62-47f3-a152-a8309121cb60" d="M68.71,49.53v.24c-.16.08-.35-.07-.41-.08v-.24a1.19,1.19,0,0,1,.41.08"/><path class="f2f313f8-cc62-47f3-a152-a8309121cb60" d="M68.13,49.69v.17h-.24s0-.14.24-.17"/><path class="b304f53d-ef07-4eb4-a032-9901a3e6a04a" d="M63.38,39.27l-.08-.08s.07.05.08.08"/><path class="bf1a9a0e-6992-4aee-a58f-6cc1e78a068f" d="M73.05,51a2.4,2.4,0,0,1,.65.74,1.63,1.63,0,0,1-.45,1.89c-.67.74-.68,0-.82-.08s-.73.36-.7.61c0,.07.58.15.41.44a14.33,14.33,0,0,1-1.68.92.75.75,0,0,1-.36-.05A16.76,16.76,0,0,1,68,54.16c-.07-.15.47-.27.55-.36s.5.46.72.16-.36-.87-.54-.94c-.5-.24-.42.2-.6.37-.49.44-1.53-.15-1.6-.79a2.53,2.53,0,0,1,.08-.57c0-.15-.11-.27,0-.45s.57-.52.78-.7.12-.21.21-.29c.57-.49,1.29-.07,1.89-.16.18,0,.28-.14.41-.16a5.78,5.78,0,0,1,2.87.73c.14,0,.21.13.36,0"/><path class="b77da5d5-5d76-4fad-a6d6-68a83887c8fb" d="M70.67,56a9.9,9.9,0,0,0,1.23-.37c.21-.15.27-.69.66-.7,0,.29.13,1-.22,1.05-.17,0-.34,0-.52.06a1,1,0,0,0-.41.58c0,.83.83,1,.9,1.39.13.66-.5,1.17-.31,1.79,0,.12.19.17.23.34a4.84,4.84,0,0,1-.43,2.2c0,.08-.07.16-.18.14a6.37,6.37,0,0,1-1.28-1.64c0-.28,0-.58,0-.86s.16-.56.16-.66V58c0-.2.14-.66.16-.9s0-.75,0-1.11"/><path class="b304f53d-ef07-4eb4-a032-9901a3e6a04a" d="M70.43,56h.24c0,.36,0,.74,0,1.11s-.16.7-.16.9v1.31c0,.1-.14.46-.16.66s0,.58,0,.86c-.27-.37-.56-.74-.84-1.1-.06-.09-.22-.13-.23-.19a3.54,3.54,0,0,1,.09-.7c0-.07.1,0,.16-.23s0-.14.08-.24,0-.12,0-.17c.19-.73.33-1.47.49-2.21.1,0,.22,0,.33,0"/><path class="b77da5d5-5d76-4fad-a6d6-68a83887c8fb" d="M70.1,56c-.16.74-.3,1.48-.49,2.21l-.09-.32h-.4a11.7,11.7,0,0,1,.43-1.26c.08-.21.34-.34.22-.71l.33.08"/><path class="b77da5d5-5d76-4fad-a6d6-68a83887c8fb" d="M68.87,59.37c0,.08,0,.2-.13.25l-.2-.08s-.06-.27.33-.17"/><path class="b77da5d5-5d76-4fad-a6d6-68a83887c8fb" d="M68.79,55.6c.13,0,.35-.14.33.16-.13,0-.28,0-.33-.16"/><path class="b77da5d5-5d76-4fad-a6d6-68a83887c8fb" d="M69.61,58.39c0,.1-.06.17-.08.24l-.09,0v-.2Z"/><path class="b77da5d5-5d76-4fad-a6d6-68a83887c8fb" d="M70.43,56v-.16h.12l0,.17h-.16"/><path class="afc87a57-0014-47c5-b64b-17f1f9928c36" d="M60,17a3.06,3.06,0,0,0-1-.81,2.89,2.89,0,0,0-.51.16.6.6,0,0,0-.25,0c-.16.1-.16.4-.41.38-.06-.57.77-1.39,1.34-1.22.2.06.65.91.75,1.13s.21.28,0,.33"/><path class="afc87a57-0014-47c5-b64b-17f1f9928c36" d="M62.15,25.57c0,.19,0,.39,0,.58a4,4,0,0,0-.16.49,2.5,2.5,0,0,1-.08-1.07Z"/><path class="afc87a57-0014-47c5-b64b-17f1f9928c36" d="M61.91,25.41c-.13-.05-.13-.36,0-.41a1.33,1.33,0,0,1,0,.41"/><path class="afc87a57-0014-47c5-b64b-17f1f9928c36" d="M54.74,31.89s0,.06,0,.08Z"/><path class="f2f313f8-cc62-47f3-a152-a8309121cb60" d="M64,41.24c.33,0,.2,0,.24.21a7.9,7.9,0,0,1,.25,1.23v2.54s.39.55.08.78a7,7,0,0,1-.41-2.46l.08,0-.08-.12A8.07,8.07,0,0,0,64,41.24"/><path class="afc87a57-0014-47c5-b64b-17f1f9928c36" d="M65.1,47.56s0,.11,0,.16h.17a.27.27,0,0,0,0,.09l-.09.08s-.38,0-.41.08c-.12-.06-.4-.22-.49-.25.17-.15.45-.33.49-.57.4,0,.29.16.33.41"/><path class="b77da5d5-5d76-4fad-a6d6-68a83887c8fb" d="M65.18,47.89s0,.23.17.16c0,.05,0,.13,0,.17-.24,0-.39-.16-.58-.25,0-.11.38-.11.41-.08"/><path class="f2f313f8-cc62-47f3-a152-a8309121cb60" d="M65.35,48.05c-.2.07-.15-.15-.17-.16l.09-.08.08.24"/><path class="b77da5d5-5d76-4fad-a6d6-68a83887c8fb" d="M65.1,47.56h.17s0,.12,0,.16H65.1s0-.11,0-.16"/><path class="b9b41a20-eed4-4b44-9529-983d944e5039" d="M51.09,49c-1.82.67-4,1.06-5.76-.1-.85-.57-1.9-1.44-2-2.53a8.64,8.64,0,0,1,2.42-1.6A17.74,17.74,0,0,1,52.28,44a3.27,3.27,0,0,1,.53.17c.14.2-.52.79-.65.95a1.36,1.36,0,0,1,.32.77l-.07,0,.07,0a2.08,2.08,0,0,1,0,.25H52.4s-.06-.1-.08-.17a5,5,0,0,0-.46-.89A9,9,0,0,0,50.4,45c-.13,0-.24,0-.21.13a6.56,6.56,0,0,1,.33.94,9.73,9.73,0,0,1,.1,2.34c0,.47.12.43.47.62M50,46.16a2.29,2.29,0,0,0-.13-.73,5.67,5.67,0,0,0-.5-.48,4.53,4.53,0,0,0-1.14.07c-.32,0-.81-.27-.86.28a2.29,2.29,0,0,1,.5,2.26,1.57,1.57,0,0,1-.33.54c-.16.14-1,.4-.82.69.68.22,2.25.68,2.85.27a2.82,2.82,0,0,0,.51-.64A10.13,10.13,0,0,0,50,46.16"/><path class="b9b41a20-eed4-4b44-9529-983d944e5039" d="M52.4,39.68a7.79,7.79,0,0,1-.45,2,2.51,2.51,0,0,0-.29.9,12.53,12.53,0,0,1-1.84.09c-1.67-.08-3.57-.76-5.22-.39-.48.1-1.4.71-1.83.79a1.46,1.46,0,0,1-.51,0,2.54,2.54,0,0,1-.33-1.09c0-.58.68-.89,1-1.23a5.61,5.61,0,0,1,1.64-1.23,17.94,17.94,0,0,1,5.7-1.27l.16.08a7.2,7.2,0,0,0,.28,1.2c.15.42.25-.3.32-.44.2-.45.43-.56.91-.35s.31.49.34.85c0,.07.07.12.07.13m-2.29-.82a17.39,17.39,0,0,0-5,1,13.88,13.88,0,0,0-2.45,1.48c-.25.21-.5.4-.41.77h.23l.13.4A4,4,0,0,1,44,41.77c.35-.07.68,0,1,0a3.69,3.69,0,0,1,1.48,0c.44.07,1.07,0,1.54.09a16.33,16.33,0,0,0,1.67.39c.51,0,1.18-.13,1.73-.08.25-.6,1-2.64.45-3.09a1.08,1.08,0,0,0-.44-.18,1.32,1.32,0,0,1-.12,1c-.63,1.5-1-.32-1.19-1m-7.74,3.61v.09q.08,0,0-.09"/><path class="eb6cd8de-1b90-428a-bfdb-734cef6b3bf2" d="M52.32,46.08c0,.07.08.14.08.17A8.88,8.88,0,0,1,52.57,48a1.24,1.24,0,0,1,0,.33c-.11.38-1.11.61-1.44.74-.35-.19-.47-.15-.47-.62a9.73,9.73,0,0,0-.1-2.34,15.44,15.44,0,0,1,1.8,0"/><path class="afc87a57-0014-47c5-b64b-17f1f9928c36" d="M32.9,54c.71-.09,1.18.55,1.81.74,0,.32-.28.2-.41.24a4.91,4.91,0,0,1-1.4-1"/><path class="ad63055c-edc5-4b09-825f-f7fd91e3dd59" d="M52.48,46.25l.17,0a4.06,4.06,0,0,1,.12,1.43c0,.14,0,.29-.2.24a8.88,8.88,0,0,0-.17-1.72Z"/><path class="ad63055c-edc5-4b09-825f-f7fd91e3dd59" d="M43.23,47.89a2.12,2.12,0,0,1,.78.57c.1.15-.17.06-.21.17-.18-.21-.51-.42-.57-.74"/><path class="afc87a57-0014-47c5-b64b-17f1f9928c36" d="M40.11,48.87c0,.22-.2.22-.34.27a2.54,2.54,0,0,1-1,.14c0-.26.14-.14.29-.16a6.9,6.9,0,0,0,1-.25"/><path class="a3fa84bf-f267-4b09-a506-d4ffc4e67f61" d="M34.46,49.2c-.08,0-.16.26-.41.16.09-.17.1-.5.37-.65Z"/><path class="afc87a57-0014-47c5-b64b-17f1f9928c36" d="M29.63,52.4c0,.09,0,.21-.08.25s-.26-.29.08-.25"/><path class="afc87a57-0014-47c5-b64b-17f1f9928c36" d="M36.1,49.28l-.16.08V49.2a.3.3,0,0,1,.16.08"/><path class="ad63055c-edc5-4b09-825f-f7fd91e3dd59" d="M52.48,46l-.08,0,.08,0a.22.22,0,0,1,0,.08"/><path class="ad63055c-edc5-4b09-825f-f7fd91e3dd59" d="M37.08,21.15a.27.27,0,0,1,.08.19A11.8,11.8,0,0,0,37,23c.22,0,.15,0,.19-.18s.09-.52.14-.77-.1-.33.16-.28a13.31,13.31,0,0,0-.15,1.5c.12.38,1.14,1.09,1.14,1.25-.22.52-.92,1.46-.73,2,.08.25.72.05,1,.26s.12.4.16.45.15-.13.17.41h-.16V27.3c-.18,0-.22.09-.24.24a2.52,2.52,0,0,1-1.22-.79c0-.05,0-.93,0-1,.06-.43.46-.66.54-1.08-.21-.43-1.09-.79-1.2-1.17a5.82,5.82,0,0,1,.31-2.32"/><path class="b77da5d5-5d76-4fad-a6d6-68a83887c8fb" d="M37.16,20.57a9.39,9.39,0,0,1,.17-1.15h.24a2,2,0,0,1,.09.81h-.17c-.08.16.08.39.08.41a2.67,2.67,0,0,1,0,.49h-.16c-.08.16.08.39.08.41a2.08,2.08,0,0,1,0,.25c-.26-.05-.14.13-.16.28s-.07.54-.14.77,0,.22-.19.18a12.08,12.08,0,0,1,.16-1.7.33.33,0,0,0-.08-.19c0-.1,0-.22,0-.32h.17c.06-.21-.08-.23-.09-.25"/><path class="b77da5d5-5d76-4fad-a6d6-68a83887c8fb" d="M38.88,27.3v.41h.17a4.42,4.42,0,0,1-.17,1.39l-.32-.16a6.44,6.44,0,0,0,.08-1.4c0-.15.06-.27.24-.24"/><path class="ad63055c-edc5-4b09-825f-f7fd91e3dd59" d="M37.57,21.15c0,.14,0,.29-.08.41s-.16-.26-.08-.41Z"/><path class="ad63055c-edc5-4b09-825f-f7fd91e3dd59" d="M37.66,20.24c0,.15,0,.29-.09.41s-.16-.25-.08-.41Z"/><path class="ad63055c-edc5-4b09-825f-f7fd91e3dd59" d="M37.16,20.57s.15,0,.09.25h-.17a.36.36,0,0,1,.08-.25"/><path class="ad63055c-edc5-4b09-825f-f7fd91e3dd59" d="M36.1,17.54,36,17.7l-.08-.16s.14,0,.16,0"/><path class="afc87a57-0014-47c5-b64b-17f1f9928c36" d="M59.69,26.72A18.7,18.7,0,0,1,60,24.85c.13-.88.39-1.6-.88-1.24A10.7,10.7,0,0,1,59,21.68c0-.3.16-1.62.45-1.68s.18.09.2.2A9.45,9.45,0,0,1,59.53,23c.43-.11.53.28.9.37a.91.91,0,0,1,.15.49,11.12,11.12,0,0,1-.58,3.1.31.31,0,0,1-.31.22,2.8,2.8,0,0,0,0-.41"/><path class="afc87a57-0014-47c5-b64b-17f1f9928c36" d="M60.43,29.35c.11-.05.82-.15.82,0v1.23a12.29,12.29,0,0,1-.46,1.67c-.09.19-.95,1.3-1.18,1.08.09-.52.59-.82.81-1.28a11.37,11.37,0,0,0,.5-2.33c-.19,0-.38,0-.57,0s0-.37.08-.41"/><path class="ad63055c-edc5-4b09-825f-f7fd91e3dd59" d="M59.69,26.72a2.8,2.8,0,0,1,0,.41c0,.06-.11.15-.08.25.26-.08,1.14,0,1.22.22.16.54-.36,1.06-.52,1.51-.08.21,0,.13.12.24-.08,0-.21.32-.08.41,0,0-.07.08-.13.08a1.75,1.75,0,0,0-.56,0l-.13-.18c.12-.28,1.12-1.54.95-1.77S59,28,59,28c-.14-.46.36-.44.45-.57s-.06-.69.28-.66"/><path class="f2f313f8-cc62-47f3-a152-a8309121cb60" d="M63.08,40c.08.07.22.06.28.12.31.3.32,1.54-.2,1.69s-1-.29-1.38-.3-.73.2-1.06.23a28.19,28.19,0,0,1-2.87.23c-.13,0-.26-.06-.39-.06a6.33,6.33,0,0,1-1-3.31,4.9,4.9,0,0,1,3-.47c1.7.13,2.4.84,3.59,1.87"/><path class="eb6cd8de-1b90-428a-bfdb-734cef6b3bf2" d="M63.3,45.34c.1.43-.08.63-.25,1,0,.08-.13.16-.16.24v.09l-.74.65c-.25,0-.54,0-.73-.24L61.5,47a.27.27,0,0,1,0-.09c.18,0,.18-.09.23-.21a3,3,0,0,0,.18-1.43Z"/><path class="ad63055c-edc5-4b09-825f-f7fd91e3dd59" d="M62.89,46.74c-.07.32-.37.35-.41.66l-.33-.09.74-.65v.08"/><polygon class="ad63055c-edc5-4b09-825f-f7fd91e3dd59" points="64.2 43.54 64.15 43.44 64.2 43.38 64.28 43.5 64.2 43.54"/><path class="b9b41a20-eed4-4b44-9529-983d944e5039" d="M62.89,46.74v-.16s.07.06.06.11Z"/><path class="a46461ce-5a9e-4daa-85cc-d8f39362938e" d="M63.3,45.34l-1.39-.08a2,2,0,0,0-.17-.82c.51,0,1.43.37,1.56.9"/><path class="b9b41a20-eed4-4b44-9529-983d944e5039" d="M61.5,47l-.09.08h-.08Z"/><path class="afc87a57-0014-47c5-b64b-17f1f9928c36" d="M50,46.16a10.13,10.13,0,0,1,.08,2.26,2.82,2.82,0,0,1-.51.64c-.6.41-2.17-.05-2.85-.27-.19-.29.66-.55.82-.69a1.57,1.57,0,0,0,.33-.54c.65-.17.3-.84.32-1.31Z"/><path class="f2f313f8-cc62-47f3-a152-a8309121cb60" d="M47.9,47.56a2.29,2.29,0,0,0-.5-2.26c.05-.55.54-.26.86-.28A4.53,4.53,0,0,1,49.4,45s.48.45.5.48a2.34,2.34,0,0,1,.13.73l-1.81.09c0,.47.33,1.14-.32,1.31"/><path class="a46461ce-5a9e-4daa-85cc-d8f39362938e" d="M52.32,46.08a15.44,15.44,0,0,0-1.8,0,6.56,6.56,0,0,0-.33-.94c0-.18.08-.13.21-.13a9,9,0,0,1,1.46.18,5,5,0,0,1,.46.89"/><path class="f2f313f8-cc62-47f3-a152-a8309121cb60" d="M50.11,38.86c.18.67.56,2.49,1.19,1a1.32,1.32,0,0,0,.12-1,1.08,1.08,0,0,1,.44.18c.57.45-.2,2.49-.45,3.09-.55-.05-1.22.1-1.73.07A14.06,14.06,0,0,1,48,41.82c-.47-.08-1.1,0-1.54-.09a3.69,3.69,0,0,0-1.48,0c-.35,0-.68,0-1,0a4,4,0,0,0-1.35.78l-.13-.4h-.23c-.09-.37.16-.56.41-.77a13.31,13.31,0,0,1,2.45-1.48,17.39,17.39,0,0,1,5-1"/><path class="f2f313f8-cc62-47f3-a152-a8309121cb60" d="M42.37,42.47q.08,0,0,.09Z"/><path class="b9b41a20-eed4-4b44-9529-983d944e5039" d="M22.5,71.6A17.82,17.82,0,0,0,24.22,73c.22.09.33,0,.51,0,.59.06,4.69,2.7,5.58,3.19a14.12,14.12,0,0,0,3.27,1.48c2,.58,4.07,2.26,6,2.67a11.61,11.61,0,0,1,1.52.21c.22.09.33.45.63.26.13-.08.09-.35.51-.27a14.28,14.28,0,0,0,1.85.79c.88.27,2.09.53,3,.73,4.1.88,8,1.68,12-.24A10.09,10.09,0,0,0,61,79.69c.19-.27.66-1,.61-1.29,0-.12-.55-1.24-.71-1.06,0,.28.2.51.22.79,0,.84-.43,1.71-1.31,1.08a1.82,1.82,0,0,1-.08-2.52c.37-.26.47-.13.85,0a2,2,0,0,0-.47-.73c-.39-.13-1.44.66-1.79.9l.13.9c-.26,0-.18-.29-.28-.47s-.13,0-.13,0a3.45,3.45,0,0,1-.32-1.15s.12,0,.15,0c.11.26,1.11,0,1.26-.08s0-.21.05-.25c.16-.27.23-.26.49-.33l.33.08a6.46,6.46,0,0,1,1.92,2.64,1.38,1.38,0,0,1-.08,1.54,8.3,8.3,0,0,1-2.08,2.55l-.41-.08v.33c-.19.07-.26.28-.33.32l-.33.17c-.11,0-.28,0-.41,0a1.92,1.92,0,0,0-.24,0v.16a1,1,0,0,1-.17,0s-.07-.11-.16-.08v.16c-.11,0-.23,0-.33,0s-.48.05-.41.25a.86.86,0,0,1-.16,0s-.07-.12-.17-.08v.16a20.71,20.71,0,0,1-8.9-.15c-1.39-.35-2.6-.9-4-1.16-.19,0-.15,0-.17,0l-.32-.08s-.06-.09-.12-.08l0,.08c-.12,0-.41-.16-.49-.17v-.16c-.09,0-.15.08-.16.08h-.33a.41.41,0,0,0-.74-.16c-.05,0-.11,0-.16,0a27.91,27.91,0,0,1-5.28-1.56c-2.18-1-4.06-2.36-6.27-3.28,0-.16-.1-.18-.2-.25-1.63-1-3.53-2-5-3.16a21.79,21.79,0,0,1-1.84-1.6c-.06-.07-.22-.28-.05-.32M59.72,77c-1,1.14,1.06,3.17,1.18,1.23,0-.54-.58-1.89-1.18-1.23"/><path class="b9b41a20-eed4-4b44-9529-983d944e5039" d="M21.93,70.77a9.49,9.49,0,0,1,.3-1.62A10.25,10.25,0,0,1,23,67.59c.44-.16,1.18.31,1.7.28s.85-.33,1.24-.38a8.47,8.47,0,0,1,2.36.19c.43.15-.07.37-.14.47s-.13.36-.22.52-.41.29-.32.63h1.27c.35,0,1.62-.49,2.15-.56.78-.09.81.21,1.41.52a17.38,17.38,0,0,0,2.71,1.27c-.05.22.11.16.24.2a3.35,3.35,0,0,0,1.15.21,5.06,5.06,0,0,1,4.1,3.28c0,.07,0,.24,0,.25.34,0,.34,0,.45-.25a1.18,1.18,0,0,0,.08-.16l.41-.09c-.2.63.22,1.07.38,1.65a2.73,2.73,0,0,0,.76-.22,4.3,4.3,0,0,1,1.34-.55c.13,0,.26,0,.22-.22h.82v.16h.93l.06-.17h.24v.16c.15.08.31-.08.33-.08s.16,0,.25,0v.17c.14.07.31-.08.32-.09h.17c0,.23.23.31.39.39l1.41.27a3.81,3.81,0,0,0,1.15.41c.07.51.47.31.68.36a12.63,12.63,0,0,0,2.68.46H54c0,.43.4.55.78.58a7.56,7.56,0,0,1,1.06-.08c.07-.31.07-.27.37-.25.48.42,1,.77,1.48,1.23l0,.25-.61.16h-.25l-.24-.33h.33c-.28-1-1.23-.64-2-.65-3.39-.06-5.81-2-9-2.14a9.53,9.53,0,0,0-3.13.31c-.39.18-.66.72-1.06.43s0-.58,0-.86c0-.06-.05-.61-.21-.54s-.54,1.33-.77,1.15c-.31-.92-.38-2.14-1.16-2.82a19,19,0,0,0-1.9-1.21c-.64-.26-1.37-.32-2-.52a27.31,27.31,0,0,1-4.24-2c-.38-.09-.65.2-1,.29a12.11,12.11,0,0,1-1.71.31A12.2,12.2,0,0,0,27,69.87c-.13,0-.38.84-.55,1a2,2,0,0,1-1.6.6c-.47,0-.92-.74-1-1.15,0-.16-.15-.36.11-.31a.31.31,0,0,0,.25.41,4.57,4.57,0,0,1,.41.57s0,.11,0,.16.29-.07.32-.08c.24,0,.51,0,.74,0,.71-.08,1-.79,1-1.44,0-.14.06-.31-.17-.28a1.09,1.09,0,0,0-.94-.91,1.73,1.73,0,0,0-1.27.75l-.41.24a1.21,1.21,0,0,1,.4-.79c0-.18-.4-.39-.56-.32a5,5,0,0,0-1,1.23c-.21.51-.12,1.13-.47,1.58a.33.33,0,0,0,.06.19c0,.29-.28.26-.49.24-.07-.24,0-.31.08-.57.34,0,.09-.17.09-.25"/><path class="bf1a9a0e-6992-4aee-a58f-6cc1e78a068f" d="M22.25,71.35a.33.33,0,0,1-.06-.19c.35-.45.26-1.07.47-1.58a5,5,0,0,1,1-1.23c.17-.07.6.14.56.32a1.21,1.21,0,0,0-.4.79l.41-.24a4.18,4.18,0,0,0-.08,1.23s-.32,0-.25-.41c-.26-.05-.15.15-.11.31.13.41.58,1.14,1,1.15a2,2,0,0,0,1.6-.6c.17-.19.42-1,.55-1a12.06,12.06,0,0,1,1.61.13,12.11,12.11,0,0,0,1.71-.31c.34-.09.61-.38,1-.3a26.47,26.47,0,0,0,4.24,2c.65.2,1.38.26,2,.52a17.38,17.38,0,0,1,1.9,1.21c.78.68.85,1.9,1.16,2.82.23.18.55-1.06.77-1.15s.21.48.21.54c0,.28-.36.58,0,.86s.68-.25,1.06-.43a9.53,9.53,0,0,1,3.13-.31c3.2.17,5.62,2.08,9,2.14.78,0,1.73-.39,2,.65H56.5l.25.33a1.6,1.6,0,0,0-1.15,1.27,1.16,1.16,0,1,0,2.29.31c0-.5-.37-1.46-.9-1.58l.61-.16,0-.25a5.89,5.89,0,0,1,.57.65l-.16-1.56s.11,0,.13,0,0,.52.28.47l-.13-.9c.35-.24,1.4-1,1.79-.9a2,2,0,0,1,.47.73c-.38-.12-.48-.25-.85,0a1.82,1.82,0,0,0,.08,2.52c.88.63,1.36-.24,1.31-1.08,0-.29-.22-.51-.22-.79.16-.18.69.94.71,1.06,0,.3-.42,1-.61,1.29a10.09,10.09,0,0,1-1.88,2.14c-4,1.92-7.9,1.12-12,.24-.94-.2-2.15-.46-3-.73a14.28,14.28,0,0,1-1.85-.79c-.42-.08-.38.19-.51.27-.3.19-.41-.17-.63-.26a11.61,11.61,0,0,0-1.52-.21c-2-.41-4.07-2.09-6-2.67a14.12,14.12,0,0,1-3.27-1.48c-.89-.49-5-3.13-5.58-3.19-.18,0-.29.11-.51,0a16.62,16.62,0,0,1-1.72-1.44l-.25-.24m1.64-1.72h-.16v.24h.16Zm6.7,1.57c-.61.08-1.14.86-1.31,1.4A1.27,1.27,0,0,0,31.05,74c1.18-.7,1.27-3.07-.46-2.84m5.81,2.46a2.41,2.41,0,0,0-1.27,1.28,7.32,7.32,0,0,0-.1,1c0,.64.83,1.7,1.52,1.69a2.23,2.23,0,0,0,2.17-2.43,1.89,1.89,0,0,0-2.32-1.58m7.3,2.88c-2.49,0-1.39,4.44.59,2.89,1.16-.9,1-2.92-.59-2.89m6.14,1.63c-.63.15-1.07,1.4-.94,2s1.05.92,1.51,1c.88.06,1.72-1.47,1.17-2.26a1.55,1.55,0,0,0-1.74-.68"/><path class="afc87a57-0014-47c5-b64b-17f1f9928c36" d="M56.17,76.93c-.3,0-.3-.06-.37.25a7.56,7.56,0,0,0-1.06.08c-.38,0-.8-.15-.78-.58a9.09,9.09,0,0,0,2.08.09c.09,0,.1.13.13.16"/><path class="b77da5d5-5d76-4fad-a6d6-68a83887c8fb" d="M59.2,75.78s.07.19-.05.25-1.15.34-1.26.08c.4-.16.9-.14,1.31-.33"/><path class="ad63055c-edc5-4b09-825f-f7fd91e3dd59" d="M59.78,82.26s0,.15-.08.21-.27,0-.33,0v-.33Z"/><path class="afc87a57-0014-47c5-b64b-17f1f9928c36" d="M42.08,81.93h-.25a3.51,3.51,0,0,1-.49-.16.4.4,0,0,1,.74.16"/><path class="afc87a57-0014-47c5-b64b-17f1f9928c36" d="M42.41,81.93s.07-.12.16-.08V82h-.16Z"/><path class="eb6cd8de-1b90-428a-bfdb-734cef6b3bf2" d="M59.72,77c.6-.66,1.22.69,1.18,1.23-.12,1.94-2.21-.09-1.18-1.23"/><path class="eb6cd8de-1b90-428a-bfdb-734cef6b3bf2" d="M26.43,69.38a1.75,1.75,0,0,1-.82,1.72c-.23,0-.5,0-.74,0L24.55,71a4.57,4.57,0,0,0-.41-.57,4.18,4.18,0,0,1,.08-1.23,1.73,1.73,0,0,1,1.27-.75,1.09,1.09,0,0,1,.94.91"/><path class="eb6cd8de-1b90-428a-bfdb-734cef6b3bf2" d="M57,78.57c.53.12.93,1.08.9,1.58a1.16,1.16,0,1,1-2.29-.31,1.6,1.6,0,0,1,1.14-1.27H57"/><path class="bf1a9a0e-6992-4aee-a58f-6cc1e78a068f" d="M26.43,69.38c.23,0,.17.14.17.28,0,.65-.28,1.36-1,1.44a1.75,1.75,0,0,0,.82-1.72"/><path class="bf1a9a0e-6992-4aee-a58f-6cc1e78a068f" d="M24.88,71.1s-.2.15-.33.08,0-.13,0-.16Z"/><path class="eb6cd8de-1b90-428a-bfdb-734cef6b3bf2" d="M43.7,76.54c1.63,0,1.75,2,.59,2.89-2,1.55-3.08-2.85-.59-2.89"/><path class="eb6cd8de-1b90-428a-bfdb-734cef6b3bf2" d="M49.84,78.17a1.55,1.55,0,0,1,1.74.68c.55.79-.29,2.32-1.17,2.26-.46,0-1.41-.49-1.51-1s.31-1.83.94-2"/><path class="eb6cd8de-1b90-428a-bfdb-734cef6b3bf2" d="M30.59,71.2c1.73-.23,1.64,2.14.46,2.84a1.27,1.27,0,0,1-1.77-1.44c.17-.54.7-1.32,1.31-1.4"/><path class="b9b41a20-eed4-4b44-9529-983d944e5039" d="M36.4,73.66a1.89,1.89,0,0,1,2.32,1.58,2.23,2.23,0,0,1-2.17,2.43c-.69,0-1.5-1-1.52-1.69a7.32,7.32,0,0,1,.1-1,2.41,2.41,0,0,1,1.27-1.28m-.63,1.13s-.11,0-.14,0-.18.57,0,.64c0,.14,0,.32-.08.49s-.23.28.08.25v.16s-.07.05-.06.11c0,.28.2.2.22.22a.91.91,0,0,1,.17.17s0,.13.12.23,1.32.38,1.35-.15c0,0,.06,0,.08,0a1.25,1.25,0,0,0,.73-.81.23.23,0,0,0-.07-.18c0-.11,0-.22,0-.33h.15c.05-.23.19-.46,0-.65-.06-.06-.18-.06-.2-.07L38,74.79l-.16-.16s.08,0-.16-.16a1.39,1.39,0,0,0-1.59-.07,1.62,1.62,0,0,0-.3.39"/><rect class="b9b41a20-eed4-4b44-9529-983d944e5039" x="23.73" y="69.63" width="0.16" height="0.24"/><path class="eb6cd8de-1b90-428a-bfdb-734cef6b3bf2" d="M37.66,74.47c-.06.2.14.14.16.16s0,.22.16.16l.09.09a2.28,2.28,0,0,1,.08.73v.33l-.66,1s-.05,0-.08,0a1.54,1.54,0,0,1-1.47-.09,1.29,1.29,0,0,0-.17-.16l-.16-.33v-.16c0-.09,0-.21-.08-.25s0-.35.08-.49a2.28,2.28,0,0,0,.16-.66,1.62,1.62,0,0,1,.3-.39,1.39,1.39,0,0,1,1.59.07"/><path class="ad63055c-edc5-4b09-825f-f7fd91e3dd59" d="M37.41,76.93c0,.52-1.08.35-1.35.15s-.1-.21-.12-.24a1.54,1.54,0,0,0,1.47.09"/><path class="ad63055c-edc5-4b09-825f-f7fd91e3dd59" d="M37.49,76.93l.66-1a.23.23,0,0,1,.07.18,1.2,1.2,0,0,1-.73.81"/><path class="ad63055c-edc5-4b09-825f-f7fd91e3dd59" d="M38.07,74.88s.14,0,.2.07c.22.19.08.42,0,.65h-.15a2.28,2.28,0,0,0-.08-.73"/><path class="ad63055c-edc5-4b09-825f-f7fd91e3dd59" d="M35.77,74.79a2.28,2.28,0,0,1-.16.66c-.16-.07,0-.56,0-.64s.13,0,.14,0"/><path class="ad63055c-edc5-4b09-825f-f7fd91e3dd59" d="M35.77,76.68s-.21.06-.22-.22c0-.06.06-.1.06-.11Z"/><path class="ad63055c-edc5-4b09-825f-f7fd91e3dd59" d="M35.61,76.19c-.31,0-.12-.12-.08-.25.1,0,.08.16.08.25"/><path class="ad63055c-edc5-4b09-825f-f7fd91e3dd59" d="M37.66,74.47c.24.13.11.12.16.16s.12.12.16.16c-.2.06-.14-.14-.16-.16s-.22,0-.16-.16"/><path class="e5479ffb-f9c1-4dd7-a7d3-0ef3d12ebbef" d="M15.23,85.22C11.67,66.85,12.5,48,12.59,29.43c0-5.32,0-10.64-.22-15.95l-1.82,2.41C18.94,12.8,28.17,12.45,37,11.75L52,10.55c4.44-.35,8.91-.92,13.36-1,2.91,0,6.42.19,8.58,2.41,0,0,.45.48.43.49s-.11-.91-.19-.35a3.72,3.72,0,0,0,.14.74c0,.19,0,0,0,0,0,.33,0,.66,0,1l.08,2,.3,7.71,1.15,30.09q.65,16.92,1.3,33.82L79.66,85c-7.78-.38-15.54-1.22-23.33-1.55a135.55,135.55,0,0,0-13.82,0c-4.53.27-9,.89-13.54,1.39a77.81,77.81,0,0,1-15.18.48l2.14,1.24-1-1.95c-1.41-2.88-5.71-.35-4.29,2.53.47,1,.88,2.27,1.85,2.84s2.54.46,3.67.5c1.36.06,2.73.06,4.09,0,5.09-.14,10.14-.85,15.2-1.41,10.25-1.16,20.44-.84,30.71-.1,4.48.33,9,.74,13.46,1a2.51,2.51,0,0,0,2.49-2.5Q80.95,56,79.74,24.55q-.15-3.86-.29-7.71c-.08-2,.1-4.22-.46-6.17-.5-1.75-2.53-3.3-4-4.13a15.46,15.46,0,0,0-5.35-1.67c-4.2-.58-8.42,0-12.61.29L41.18,6.42c-5.66.45-11.35.78-17,1.47a66.56,66.56,0,0,0-15,3.18A2.56,2.56,0,0,0,7.4,13.48c.72,18.93-.75,37.91.82,56.82a153.23,153.23,0,0,0,2.21,16.25,2.5,2.5,0,0,0,3.06,1.74,2.55,2.55,0,0,0,1.74-3.07"/><path class="b9b41a20-eed4-4b44-9529-983d944e5039" d="M32,35.55a1.83,1.83,0,0,1,1.37-.87c.91-.13.56-.19,1-.18.16,0,.13.22.33.31a.74.74,0,0,1,.56.59,5.23,5.23,0,0,1,.29,1.42c0,.27-.06.32-.2.4a9.63,9.63,0,0,0-1.23.39c-.17.14-.38.52-.69.6s-.36.3-.46.27-.4,0-.76-.76A2.53,2.53,0,0,1,31.84,36C31.94,35.62,32,35.55,32,35.55Z"/></svg>