<svg id="b5848fc4-0399-472d-abc1-da8cc7f85509" data-name="Capa 1" xmlns="http://www.w3.org/2000/svg" width="82.11mm" height="72.8mm" viewBox="0 0 232.74 206.37"><defs><style>.e2f880c7-0db5-422b-ad40-1f9b2ca799e9{fill:#070709;}.ea1dd45c-83c3-400b-b30e-d97630b66b16{fill:#2e2e2f;}.f0bbd1f4-d9e7-46b8-9eba-df1da95d39a5{fill:#decf63;}</style></defs><path class="e2f880c7-0db5-422b-ad40-1f9b2ca799e9" d="M65.35,182.15c-.42.12-2.9,4.26-2.92,0a23.47,23.47,0,0,1-16.6-2.22c-3.59-2-12.08-10.86-14.5-14.35-.67-1-2-4.28-2.21-4.44s-1.64-.41-2.3-.78C21.71,157.54,8,146.25,5.35,141.31a11.53,11.53,0,0,1-1-8.84c1-4.18,3.39-5,7.06-6.24,5.2-1.75,11.17-3.56,16.7-4,3.26-.28,6.72.17,10-.66,2.15-2.87,5.33-5.75,7.12-8.84,5.28-9.1,2.76-14.5,2.2-24-.18-3-.32-12.77.8-15.11C49,71.78,52,69.37,54,69.32a45.15,45.15,0,0,1,8.85,1.21c6.75,1.65,10.69,6.57,14.81,11.77,3.58-5.35,8.77-8.65,14.42-11.51,6.06-3.07,16.78-6.41,23.52-7,3.87-.32,12.53.8,15.49,0,.26-.07.41-.8,1.2-1.15,8.19-3.62,22.25-3.64,26-13.87,1.67-4.55-.45-12.88-.73-17.88-.29-5.4-.69-17.55,3.09-21.58,6.44-6.87,20.17-9.13,24.55,1.09,4.25,9.92-.1,14.68-.7,24.05-.5,7.74,1.33,13.28-2,20.7-3.25,7.24-8.29,12.72-13.89,18.2l-2.92,2.26c2.11,2,4.73,3.76,6.65,6s2.75,5.19,5.26,6.76c10-.89,22.35-1.51,31.43,3.56,8.78,4.91,15.64,10.34,14.34,21.58-.84,7.27-9.22,12.82-16.31,11.84-6.05-.83-11.51-6.55-17.38-8.88-1.31-.53-6.43-1.18-5.43,1.07,2.6,2.51,5.95,2.78,7.3,6.45s1,11.48-2.18,14.21c-1.93,1.67-7.13,3.61-9.66,3.95-6.47.88-11.57-2.09-17.26-4.45-.21.21,2.33,3.74,2.64,4.32.55,1,2.24,5.53,2.76,5.7,2.91-.89,6-.74,8.93-1.36,1.8-.38,3.9-1.6,5.63-1.83,4.55-.6,9,.06,12.14,3.7,1.55,1.81,2.4,7.55,2.58,10.06.55,7.64-4.28,17.06-13,16.52L180.57,181c-3,3.25-8.11,7.8-12.81,8-3,.11-13.74-3.67-16.15-5.5-1.07-.81-3.62-4.08-4.57-4.22-1.2,0-2.07.74-3.26.95a104.74,104.74,0,0,1-25.59,1c-1.84-.13-5.13.61-7.11.65-6.32.13-12.66-.12-19,0,0,1.06.3,2.27-.81,2.84-1.5-.38-1.15-1.59-1.14-2.84l-13.74.63c-.56,1-2.41,6.64-3.32,6.8-2.33.41.31-6.12.85-7.11-2.24.41-6.66-.54-8.59,0m51.39-55.43v-7s-.39-.86-.48-.81a98.23,98.23,0,0,0-12.48,13.46c-.87,1.08-3.12,5.14-4.38,5-2-.17,0-3.26.47-4.09,4-6.66,10.46-13,16.48-17.85-.62-4.86-.7-7.59-4.95-10.52-.34-.23-.35-.43-.83-.17-.64.36-5.8,8.32-6.61,9.62-3.19,5.1-7.8,12.76-9.42,18.46-.35,1.26-.36,3.58-.66,4.2-.61,1.28-2.16.75-2.41-.83-.81-5.19,5.46-16,8.27-20.54l8.24-12a28.88,28.88,0,0,1-17.18-1.94c-.2.2,2,4.5.42,5.53-2.41,1.62-3.22-4.29-3.74-5.62-1.34-3.39-5.8-7.82-8.16-11C73.64,83.09,70.2,75,59.8,73.26a46.32,46.32,0,0,0-6.06-.62c-1.18.17-2.69,2.17-2.83,3.33-1.5,12.69,4,27.69-3.1,39.05-2,3.21-8.1,10.22-12,10.42-2.41.12-5.3-.3-7.79,0a57.37,57.37,0,0,0-12.64,3.25c-1.92.65-5.72,1.16-7,2.74-2.3,2.88-2,5.64-.26,8.7,2.61,4.48,17,16.19,21.76,18.77.5.27,1.28.2,1.71.55s.5,1.46.82,2.1C34,164.44,42,172.92,44.75,175.19c4,3.28,8.07,4.13,13.12,4.38l7.25-.73c4-6,9.2-11,13.69-16.62.17-.93-1.94.12-2.75.17-6.36.42-10.78-1.11-16.56-1.63-2.28-.2-4.78.19-7.09,0s-4.37-1.27-6.61-1.5l-.56-.4c-1.34-4.13,5.58-1.21,6-1.63-.13-2.29,0-4.55,1.62-6.32,1.35-1.5,5.31-3.3,7.3-3.09s7.35,3.28,8,5.28c1.13,3.41-.92,4.06-3.32,5.59,3.39,1.16,7.65.43,11.15.85,1.16.13,2.95.52,3.12,1.9h.48c1.5-1.14,4-4.76,5.84-4.89.79,0,1.69.12,1.41,1.11-6.61,6.75-12.66,14.06-18.76,21.29h6.33c.17,0,.69.53,1.12.32a58.17,58.17,0,0,1,5.39-9.69c.75-1.14,3.5-5.68,4.51-5.86a4.38,4.38,0,0,1,.81,0,2.31,2.31,0,0,1-.18,1.27c-1.48,4.06-5.57,8.58-7.45,12.65a2.71,2.71,0,0,0-.48,1.63c4.09,1,7.79-2.19,12-2.28.54-5.38.43-11,1.34-16.33.25-1.48,1.52-2.92,1.9-1a41.09,41.09,0,0,1,.34,7.44l-1,11.51c7.3-.06,14.59-.18,21.9-.3a35.2,35.2,0,0,1,6.17.28c5.1.57,7.78-.42,12.62-.94,1.78-.19,10.87-.45,11.51-1.31-3.47-5.78-5.36-12-11.25-15.81-2.26-1.47-5-2.69-7.38-4-1-1,.11-2.22,1.28-2.29,2.11-.13,10,4.92,11.73,6.63,3.54,3.57,5,8.44,7.76,12.5,1.88,2.79,4.55,5,6.52,7.75,3.64,1,7.2,3.14,10.87,4,2,.48,4.84,1.32,6.06-.85a28,28,0,0,0-4.35-5.4c-.74-.64-3.19-1.49-1.27-2.89,2.37-1.73,7.92,5.11,8.25,7.43.58.51,5-3.18,5.35-3.9.93-2.05-3.93-4.91-5.35-5.67-1.65-.89-4.35-.83-3.86-3.19.45-1.35,4.32.07,5.27.49a18.43,18.43,0,0,1,6.36,5.14c.35-2.65,1.07-4.73.08-7.37-1.22-3.22-6.58-5.85-9.16-8.67-5-5.52-6.08-9.81-9.27-16-3.77-7.31-13.86-13.45-21.44-16.17-2.5-.9-5-.53-7.2-1.89-.46-1.73,3.9-1.81,5-1.71,3.23.28,9.45,3.44,12.42,5.09a89.91,89.91,0,0,1,7.89,5.24c-.5-3.7.66-7.42.28-11.14s-2.44-7.36-3.12-10.82-1.67-11.81-1.37-15.15a56.49,56.49,0,0,1,2.32-9c.2-.33.3-.55.76-.56.83-.05,1.29,0,1.45.83.56,2.92-1,5.71-1.25,8.47-.49,5,1.52,10.31,1.29,15.33,2.84.29,4.36,3.38,6.45,5.06,5.43,4.36,10.57,1,15.09-2.75,1.61-1.34,1-2,3.88-2.28,9.49-1,14.68,7.77,22.45,9a11.64,11.64,0,0,0,5.91-.59c.31-.43-1.23-3.22-1.61-3.71-1.22-1.59-4.46-2.2-3.09-4.38,1.5-1.32,4.84,1,5.82,2.3l2,3.22c2.63-1.15.61-4.06-.54-5.63-.82-1.1-3.52-2.82-2.51-4.22s4.31,1.89,5.16,2.87c.54.63.4,1.66,1.29,1.46.11-3.41-.42-7.51-2.45-10.35-2.63-3.7-11.55-8.86-16-9.92-6.58-1.56-13.06-1.09-19.79-1.12.72,1,7,1.38,3.89,3.72-2.88,2.17-6.13-.72-8.26-2.44-4.53-3.65-6-7.47-9.89-11.18-4.41-4.2-9.59-8.19-15.56-9.73-1.75-.45-7-.3-6.11-3.16.37-1.27,2.84-.93,4-.84a25.54,25.54,0,0,1,12.19,4.69c2,.56,6.44-4.1,7.8-5.53,4.15-4.33,9.41-9.88,10.79-15.8,1.18-5,.26-10.52.54-15.67.46-8.52,4.38-13.77,1.4-22.77-2.55-7.72-9.74-6.94-15.75-3.57-4.24,2.37-4.79,3.56-5.1,8.51a123.3,123.3,0,0,0,0,13.32c.36,6.71,3.37,16.4-1.61,22a30.87,30.87,0,0,1-13.45,8.92,36.16,36.16,0,0,1-7,1.94L141.67,66c.68,2.66-5.47,1.1-6.59,1-11.14-.43-24.51.47-35,4.23C94.92,73.1,86.1,77.6,82.53,81.65c-.88,1-3,3.53-2.46,4.73,1.74,3.61,6.77,7.78,8.87,11.39,2.4.1,4.54,1.68,6.65,2.27,4.14,1.17,8.41.52,12.56.39.76,0,1.53.46,2.25.36,1.39-.18,4.85-5.75,5.69-4.87.3,1.41-.91,1.84-1.56,2.81s-1.3,2.12-1.93,3.19c1.43,1.6,4,2.69,5.07,4.58s1.44,4.89,1.67,6.92c.35.4,7.72-4.26,8.42-3.56a1.06,1.06,0,0,1-.32,1.13c-.44.47-3.88,2.25-4.83,3a23.5,23.5,0,0,0-2.9,2.29l.28,8.22a1.93,1.93,0,0,0,1-.15c1.62-.57,4.45-2.6,6.06-3a1.4,1.4,0,0,1,1.71.42l-.67,1-8,4.78c-.18,1.42.23,8.17-1.25,8.65-2.34.75-1.62-4.7-2.06-6.12-.41-.47-9,6.07-10.81,6.07-1.08,0-1.11-1-.7-1.86.31-.62,7.4-5.18,8.62-6a9.9,9.9,0,0,1,2.89-1.48m72,2.91c.06-1.55,0-4-1-5.35-.68-1-2.27-1.29-3.22-2-.77-.55-2.69-2.44-3.26-2.6-.85-.23-3.92,2.22-5.11,2.72-5.95,2.53-10.2,0-14.68-3.82a63,63,0,0,1,.38,15l.68.61c6.5,2.39,12.48,6.79,19.69,3.81.11-.14-1.35-1.56-1.64-1.76-1.23-.87-5-1.72-4.47-3.52,1.14-1.91,4.1-.38,5.56.49a11.28,11.28,0,0,1,3.63,3.48c.54,0,2.89-2.69,2.72-3.32a22.25,22.25,0,0,0-2.73-2.82c-1.43-1.1-4.81-1.74-2.74-3.73,2.5-.75,4.38,1.39,6.15,2.75m3.5,20.18c-.34-.3-1.08-.28-1.52-.59s-1-1.2-1.55-1.37a29.9,29.9,0,0,0-5.46-.07c-2.26.19-3.86,1.33-6,1.8-2.86.65-5.9.5-8.77,1.13-.46.51,5,7.36,5.67,8.11,2.95,3.09,5.66,3.46,8.41,7.47a10.23,10.23,0,0,1,1.48,5.81c4.15.42,7.86-3.56,8.72-7.33.22-.94-1.79-.11-2.39-.1-1.11,0-2.81-.36-2.69-1.75.17-2,4.39-1.67,5.76-1.19l-.32-5.51c-.29-.26-6.53,1.34-7.63,1.32-1.53,0-2.39-1-1.27-2.28s6.85-1.72,8.58-1.64c.33-.33-.64-3.42-1.05-3.81M63.29,155.19c.6.34,2-.5,1.27-1.42-.38-.47-4.71-2.71-5.33-2.65a27.4,27.4,0,0,0-3.47,1.67c-.66.57-1.91,3-.74,3.38l5.95.37c-.24-.58-1.28-.47-1.92-.83-1.14-.65-2.75-3.1-.83-3.4,1.09-.17,4.61,1.7,5.07,2.88"/><path class="ea1dd45c-83c3-400b-b30e-d97630b66b16" d="M116.74,126.72a9.9,9.9,0,0,0-2.89,1.48c-1.22.79-8.31,5.35-8.62,6-.41.82-.38,1.86.7,1.86,1.77,0,10.4-6.54,10.81-6.07.44,1.42-.28,6.87,2.06,6.12,1.48-.48,1.07-7.23,1.25-8.65l8-4.78.67-1a1.4,1.4,0,0,0-1.71-.42c-1.61.42-4.44,2.45-6.06,3a1.93,1.93,0,0,1-1,.15l-.28-8.22a23.5,23.5,0,0,1,2.9-2.29c1-.7,4.39-2.48,4.83-3a1.06,1.06,0,0,0,.32-1.13c-.71-.7-8.07,4-8.42,3.56-.23-2-.63-5.17-1.67-6.92s-3.64-3-5.07-4.58c.63-1.07,1.24-2.16,1.93-3.19s1.86-1.4,1.56-2.81c-.84-.88-4.3,4.69-5.69,4.87-.72.1-1.49-.38-2.25-.36-4.15.13-8.42.78-12.56-.39-2.11-.59-4.25-2.17-6.65-2.27-2.1-3.61-7.13-7.78-8.87-11.39-.58-1.2,1.58-3.74,2.46-4.73C86.1,77.6,94.92,73.1,100,71.28c10.53-3.76,23.9-4.66,35-4.23,1.12,0,7.27,1.61,6.59-1l-2.23-1.85a36.16,36.16,0,0,0,7-1.94,30.87,30.87,0,0,0,13.45-8.92c5-5.63,2-15.32,1.61-22a123.3,123.3,0,0,1,0-13.32c.31-5,.86-6.14,5.1-8.51,6-3.37,13.2-4.15,15.75,3.57,3,9-.94,14.25-1.4,22.77-.28,5.15.64,10.64-.54,15.67-1.38,5.92-6.64,11.47-10.79,15.8-1.37,1.43-5.76,6.09-7.8,5.53a25.54,25.54,0,0,0-12.19-4.69c-1.11-.09-3.58-.43-4,.84-.85,2.86,4.36,2.71,6.11,3.16,6,1.54,11.15,5.53,15.56,9.73,3.89,3.71,5.36,7.53,9.89,11.18,2.13,1.72,5.38,4.61,8.26,2.44,3.09-2.34-3.17-2.7-3.89-3.72,6.73,0,13.2-.44,19.79,1.12,4.47,1.06,13.39,6.22,16,9.92,2,2.84,2.56,6.94,2.45,10.35-.89.2-.75-.83-1.29-1.46-.85-1-4.13-4.32-5.16-2.88s1.69,3.13,2.51,4.23c1.15,1.57,3.17,4.48.54,5.63l-2-3.22c-1-1.34-4.32-3.62-5.82-2.3-1.37,2.18,1.87,2.79,3.09,4.38.38.49,1.92,3.28,1.61,3.71a11.64,11.64,0,0,1-5.91.59c-7.77-1.23-13-10-22.45-9-2.89.29-2.27.93-3.88,2.28-4.52,3.79-9.66,7.1-15.1,2.75-2.08-1.68-3.6-4.77-6.44-5.06.23-5-1.78-10.36-1.29-15.33.26-2.76,1.81-5.55,1.25-8.47-.16-.86-.62-.89-1.45-.83-.46,0-.56.23-.76.56a56.49,56.49,0,0,0-2.32,9c-.3,3.34.7,11.68,1.37,15.15s2.75,7,3.12,10.82-.78,7.44-.28,11.14a89.91,89.91,0,0,0-7.89-5.24c-3-1.65-9.19-4.81-12.42-5.09-1.06-.1-5.42,0-5,1.71,2.16,1.36,4.7,1,7.2,1.89,7.58,2.72,17.67,8.86,21.43,16.17,3.2,6.21,4.24,10.5,9.28,16,2.58,2.82,7.94,5.45,9.16,8.67,1,2.64.27,4.72-.08,7.37a18.38,18.38,0,0,0-6.37-5.14c-.94-.42-4.81-1.84-5.26-.49-.49,2.36,2.21,2.3,3.86,3.19,1.42.76,6.28,3.62,5.35,5.67-.32.72-4.77,4.41-5.35,3.9-.33-2.32-5.88-9.16-8.25-7.43-1.92,1.4.53,2.25,1.27,2.89a28,28,0,0,1,4.35,5.4c-1.22,2.17-4.1,1.33-6.06.85-3.67-.9-7.23-3-10.87-4-2-2.73-4.64-5-6.52-7.75-2.74-4.06-4.22-8.93-7.76-12.5-1.7-1.71-9.62-6.76-11.73-6.63-1.17.07-2.34,1.26-1.28,2.29,2.39,1.28,5.12,2.5,7.38,4,5.89,3.84,7.78,10,11.25,15.82-.64.86-9.73,1.11-11.51,1.31-4.84.52-7.52,1.51-12.62.94a36.2,36.2,0,0,0-6.17-.29c-7.31.13-14.61.25-21.9.31l1-11.51a41.09,41.09,0,0,0-.34-7.44c-.38-1.93-1.65-.49-1.9,1-.91,5.33-.8,10.95-1.34,16.33-4.2.09-7.9,3.32-12,2.28a2.71,2.71,0,0,1,.48-1.63c1.88-4.07,6-8.59,7.45-12.65a2.35,2.35,0,0,0,.18-1.28,7.3,7.3,0,0,0-.81,0c-1,.19-3.76,4.73-4.51,5.87a57.78,57.78,0,0,0-5.39,9.69c-.43.21-1-.32-1.12-.32H68.1c6.1-7.23,12.15-14.54,18.76-21.29.28-1-.62-1.16-1.41-1.11-1.88.13-4.34,3.75-5.85,4.89h-.47c-.17-1.38-2-1.77-3.12-1.91-3.5-.41-7.76.32-11.15-.84,2.4-1.53,4.45-2.18,3.32-5.59-.67-2-6.1-5.08-8-5.28s-5.95,1.59-7.3,3.09c-1.59,1.77-1.75,4-1.62,6.32-.42.42-7.34-2.5-6,1.63l.56.4c2.24.23,4.39,1.27,6.61,1.5s4.81-.16,7.09,0c5.78.52,10.2,2.05,16.56,1.63.81,0,2.92-1.1,2.75-.17-4.49,5.6-9.69,10.64-13.69,16.62l-7.25.73c-5-.25-9.16-1.1-13.12-4.38C42,172.92,34,164.44,32.47,161.53c-.32-.64-.32-1.69-.82-2.1s-1.21-.28-1.71-.56c-4.8-2.57-19.15-14.28-21.76-18.77-1.78-3-2-5.81.26-8.69,1.26-1.58,5.06-2.09,7-2.74a56.82,56.82,0,0,1,12.64-3.25c2.49-.28,5.38.14,7.79,0,3.86-.2,10-7.21,12-10.42,7.07-11.36,1.6-26.36,3.1-39,.14-1.16,1.65-3.16,2.83-3.33a46,46,0,0,1,6,.62C70.2,75,73.64,83.09,79.32,90.7c2.36,3.15,6.82,7.58,8.16,11,.52,1.33,1.33,7.24,3.74,5.62,1.54-1-.62-5.33-.42-5.53A28.88,28.88,0,0,0,108,103.7l-8.24,12c-2.81,4.57-9.08,15.35-8.27,20.54.25,1.58,1.8,2.11,2.41.83.3-.62.31-2.94.66-4.2,1.62-5.7,6.23-13.36,9.42-18.47.81-1.29,6-9.25,6.61-9.61.48-.26.49-.06.83.17,4.25,2.93,4.33,5.66,4.95,10.52-6,4.87-12.45,11.19-16.48,17.85-.5.83-2.51,3.92-.47,4.09,1.26.1,3.51-4,4.38-5a98.23,98.23,0,0,1,12.48-13.46c.09,0,.48.76.48.81ZM61.62,100.13c.16-5.55-2.28-10.89-3.16-16.13-.23-1.39-.32-6.22-.71-6.75a1,1,0,0,0-1.57,0c-1.85,1.92,2.53,17.85,2.8,21.52.14,1.92-.37,9.23.52,10.17a.79.79,0,0,0,.93.29c1.45-.38.6-3.18.93-4.28a10.4,10.4,0,0,1,2.08-2.15c1.93.52,3.1,5.11,5.31,4,1.16-.57,0-2.05.65-3.09,1.76.69,3.18,1.65,5.19,1.3.79-2.5-4.63-4.19-6.31-3.88-.49.09-.93.66-1.27.6s-.9-.94-1.39-1.21c-1.5-.85-2.38-.64-4-.38M81.3,113.82c-3,.67-3.68,6-2.74,8.43,1.47,3.81,9.43,12.15,13,6.64,2.77-4.35,1-12.3-4-14.33a14.15,14.15,0,0,0-6.26-.74M33,145.44a1.22,1.22,0,0,0,.26-1.21l-1.78-1.5c.92-2,2.18-2.71-.34-4.18,1-.82,1.4-1.66.51-2.78-2.43-3-16.93-2.32-20,.2-1.2,1-.86,2.63.8,2.77,1.3.11,4.55-1.44,6.49-1.64,1.6-.18,4.18-.32,5.82-.35a24.41,24.41,0,0,1,3.74.34c.15.12-1.69,2.09-.67,3.44.23.29.92.32,1,.68.19.78-.25,1.76.16,2.68.51,1.11,2.86,2.47,4,1.55M89.74,144a2.51,2.51,0,0,0-1.36.93c-.15.19-2.19,3.68-2.27,3.9a3.46,3.46,0,0,0,1.12,3.38c2.53,2.4,6-1,7.79,1a9.1,9.1,0,0,1,1.26,3.61c.24,2.18-1.43,6.3,1.34,6.15,2.56-.68,1.48-7,1.33-9,1.73-2,5.11-6.28,2.88-8.83-3.33-3.83-3.24,6.39-5,6a27.44,27.44,0,0,1-2.46-2.09c-1.22-1.47-2.08-5.43-4.62-5"/><path class="ea1dd45c-83c3-400b-b30e-d97630b66b16" d="M188.72,129.63c-1.77-1.36-3.65-3.51-6.15-2.75-2.07,2,1.31,2.63,2.74,3.73a22.25,22.25,0,0,1,2.73,2.82c.17.63-2.18,3.36-2.72,3.32a11.42,11.42,0,0,0-3.63-3.49c-1.46-.86-4.42-2.39-5.56-.48-.51,1.8,3.24,2.65,4.47,3.52.29.2,1.75,1.61,1.64,1.76-7.21,3-13.19-1.42-19.69-3.81l-.68-.62a62.9,62.9,0,0,0-.38-15c4.49,3.85,8.73,6.35,14.68,3.82,1.19-.5,4.26-3,5.11-2.72.57.16,2.49,2.05,3.26,2.6,1,.68,2.54,1,3.22,2,.93,1.3,1,3.8,1,5.35"/><path class="ea1dd45c-83c3-400b-b30e-d97630b66b16" d="M192.22,149.81c.41.39,1.38,3.48,1.05,3.81-1.73-.09-7.52.46-8.58,1.63s-.26,2.27,1.27,2.29c1.1,0,7.34-1.58,7.63-1.32l.32,5.51c-1.38-.48-5.59-.8-5.76,1.18-.12,1.4,1.58,1.79,2.69,1.76.6,0,2.61-.84,2.39.1-.86,3.77-4.57,7.75-8.72,7.33a10.23,10.23,0,0,0-1.48-5.81c-2.75-4-5.46-4.38-8.41-7.48-.72-.75-6.13-7.59-5.67-8.1,2.87-.63,5.91-.48,8.76-1.13,2.12-.47,3.72-1.61,6-1.8a29.9,29.9,0,0,1,5.46.07c.54.17,1,1,1.55,1.37s1.18.29,1.52.59"/><path class="f0bbd1f4-d9e7-46b8-9eba-df1da95d39a5" d="M63.29,155.19c-.46-1.18-4-3.05-5.07-2.88-1.92.3-.31,2.75.83,3.4.64.36,1.68.25,1.92.83L55,156.17c-1.17-.37.08-2.81.74-3.38a27.4,27.4,0,0,1,3.47-1.67c.62-.06,5,2.18,5.33,2.65.73.92-.67,1.76-1.27,1.42"/><path class="e2f880c7-0db5-422b-ad40-1f9b2ca799e9" d="M81.3,113.82a14.15,14.15,0,0,1,6.26.74c5,2,6.72,10,4,14.33C88,134.4,80,126.06,78.57,122.25c-.95-2.46-.26-7.75,2.73-8.43m4.64,12.57c.73.07,2.15,1.46,2.75.66,1.08-1.44.83-4.44.23-6.07-.93-2.49-2.45-3.51-5.1-3.66-4.86-.29-1.56,6.05.82,7.45-.14-1.84-2.36-2.82-1.48-4.88,1.37-2,5.91,3.86,4.9,5.53-.48.79-1.85.29-2.12,1"/><path class="e2f880c7-0db5-422b-ad40-1f9b2ca799e9" d="M61.62,100.13c1.62-.26,2.5-.47,4,.38.49.27,1.07,1.16,1.39,1.21s.78-.51,1.27-.6c1.68-.31,7.1,1.38,6.31,3.88-2,.35-3.43-.61-5.19-1.3-.61,1,.51,2.52-.65,3.09-2.21,1.08-3.38-3.52-5.3-4a10.19,10.19,0,0,0-2.09,2.15c-.33,1.1.52,3.9-.93,4.28a.79.79,0,0,1-.93-.29c-.89-.94-.38-8.25-.52-10.17-.27-3.67-4.64-19.59-2.8-21.52a1,1,0,0,1,1.57,0c.39.53.48,5.36.71,6.75.88,5.24,3.32,10.58,3.16,16.13"/><path class="e2f880c7-0db5-422b-ad40-1f9b2ca799e9" d="M89.74,144c2.54-.45,3.4,3.51,4.62,5A27.44,27.44,0,0,0,96.82,151c1.77.4,1.68-9.82,5-6,2.23,2.55-1.15,6.83-2.88,8.83.15,2,1.23,8.35-1.33,9-2.77.15-1.1-4-1.34-6.15A9.1,9.1,0,0,0,95,153.13c-1.75-1.94-5.26,1.43-7.79-1a3.46,3.46,0,0,1-1.12-3.38c.08-.22,2.12-3.71,2.27-3.9a2.51,2.51,0,0,1,1.36-.93"/><path class="e2f880c7-0db5-422b-ad40-1f9b2ca799e9" d="M33,145.44c-1.11.92-3.46-.44-4-1.55-.42-.92,0-1.9-.16-2.68-.09-.36-.78-.39-1-.68-1-1.35.82-3.32.67-3.44a24.41,24.41,0,0,0-3.74-.34c-1.63,0-4.22.17-5.82.35-1.94.2-5.19,1.75-6.49,1.64-1.66-.14-2-1.77-.8-2.77,3-2.52,17.53-3.24,20-.2.89,1.12.53,2-.51,2.78,2.52,1.47,1.26,2.18.34,4.18l1.78,1.5a1.22,1.22,0,0,1-.26,1.21"/><path class="f0bbd1f4-d9e7-46b8-9eba-df1da95d39a5" d="M85.94,126.39c.27-.68,1.64-.18,2.12-1,1-1.67-3.53-7.49-4.9-5.53-.88,2.06,1.34,3,1.48,4.88-2.38-1.4-5.68-7.74-.82-7.45,2.65.15,4.17,1.17,5.1,3.66.6,1.63.85,4.63-.23,6.07-.6.8-2-.59-2.75-.66"/></svg>