<svg id="ef8d8732-14ee-47bf-82d3-4c890c5fc0f6" data-name="Capa 1" xmlns="http://www.w3.org/2000/svg" width="73.13mm" height="69.61mm" viewBox="0 0 207.3 197.32"><defs><style>.a0115a66-a67c-4ee3-81c0-46dfc3d09a43{fill:#0c0a0b;}.f91779f4-ce8c-42bc-80ab-1142ef70f514{fill:#572323;}.b84a4a21-50d1-4e2f-ad2d-23adf56101f6{fill:#a46318;}.f6a94645-5f1c-4bbb-b4fc-df65492e45e4{fill:#a66418;}.eee7a917-0c09-443c-8bce-e7d9e46dd340{fill:#422e2e;}.ae6a80b1-d9eb-4450-9785-ba0d2367cb9f{fill:#9b5e17;}.a0d033bd-d6b1-4383-bd28-0626508657a9{fill:#272727;}.a61b4f29-c2dd-4646-a9a1-8adf1e5c05c6{fill:#5a5a5a;}.a088240b-691a-4ea4-8cb8-6feaef12806f{fill:#525151;}.a9b1e07c-6788-493f-bae6-675d0f2da9d2{fill:#444343;}.f9bf8b85-5790-4ae4-b5b0-e039c1a48ca0{fill:#434242;}.ebc421cd-aab7-47b8-9536-406ac106adf1{fill:#5e5e5e;}.fafe746f-019e-42b2-8e0c-9cc37bf13a04{fill:#cfcfcf;}.e6315e07-6e05-4858-abf6-2822040fd215{fill:#cdcdcd;}.f6108dd1-fe4e-4249-a445-ab431fbe2e31{fill:#cac9c9;}.b9a45fef-db60-49f5-81a1-a0ef775456a3{fill:#1b1b1b;}.ba1e1a76-e9a1-4e52-b22c-8ac174891feb{fill:#c8c8c8;}.b8e52f1c-0c3a-4195-8ae1-cfe155e4a91a{fill:#c7c7c7;}.abc536ce-142a-4ed2-8ad8-688a650c63b6{fill:#403f3f;}.e44d45db-c0ba-4fea-86af-4961856ec5bb{fill:#bdbcbc;}.b669151b-0cc3-4a08-9b90-77545559d1d6{fill:#030404;}.f1a16cc1-bdd7-4c04-8c01-0b9e755e45ac{fill:#090909;}.a73c3a18-6bed-40e9-8830-e8c7606b0293{fill:#1c1c1c;}</style></defs><path class="a0115a66-a67c-4ee3-81c0-46dfc3d09a43" d="M170.33,28.14c-.19.19-.17.81-.43,1.14-1,1.3-1.79.9-3.18.53.56,2.61-2.51,2.4-3.11,2.89-.2.18-.07,1.16-.76,1.52-1.16.61-2.4-.26-3-.12s-.77,1.27-1.47,1.67c-.91.51-1.68.2-2.37.45s-.74,1.25-1.29,1.53c-.75.37-2.83-.22-2.47.69l4,6.17c.47-1.23,3.46-1.29,3.65-1.45a12.71,12.71,0,0,1,.44-1.49c1.13-1.88,2-1,3.58-1.37,2.53-.65,6.83-5,10.23-6.33,1.67-.66,4.1-.84,5.14,1,.91,1.6,0,2.33.08,3.51,0,.64.85,1.18,1,2.11a23.68,23.68,0,0,1-.05,5.19c-.2.88-3.9,3.88-4.89,4.63A80.77,80.77,0,0,1,167,56c-4.11,2.29-7.25,3.82-11.27,6.35a99.64,99.64,0,0,1-11.53,6.1c-3.8,1.48-3.8-1.1-6.51-.9-1.31.09-3,1.24-4.41,1.61-2.75.73-5.63,1-8-.84l-.77.12c-13.82,8.89-27.17,18.46-40.76,27.67.29,1.46,1.53,3.24,1.27,4.75a50,50,0,0,1-3.2,5.29,22.46,22.46,0,0,1-4.56,2.52c-1.3.21-1.94-.62-3-.56-2.13.14-15.51,9.87-18.55,11.77-2.74,1.71-7.17,4.71-9.87,6a3,3,0,0,1-1.38.19c-.33.29,1.09,3.13,1.09,3.7,0,2-4.85,5-6.88,4.4-.83,1,.54,1.08.94,1.85.77,1.49,1.3,5.16,2,7.16,4.59,12.79,8.89,22.33,3,36.1a12.5,12.5,0,0,1-5.33,6.3c-4.88,3-9-3.16-9.6-7.55-1.77-12.59,0-23.4,2.25-35.75A42.67,42.67,0,0,1,33,137c.31-.9,1.28-1.49,1.2-2.34l-4.6-3.58c-1-.21-1.31.95-2.37,1.2-4.55,1.08-8.25-4.73-3.29-7.14-1.3-2.22-3.12-5-3.76-7.51-.51-2-.42-6.57.66-8.3,1.49-2.39,7.49-8.79,9.84-10.25a31.32,31.32,0,0,1,5.25-2.34c-.23-1.67-.91-3.64.36-5.1l11.24-.56c0-2,1.1-1.7,2-2.43,4.08-3.4,6.1-3.38,9.8-5.63.42-.26.26-1,.74-1.45a14.05,14.05,0,0,1,5.31-2.1c3.74-.32,7,.1,9.88,2.46,3.12-2.25,6.24-4.62,9.44-6.76C94.3,68.78,103,62.31,112.32,55.6c1.18-.84,3.27-1.68,4.19-2.52,1.16-1-1.18-4.12.49-6.1.61-.73,1.69-.43,2.47-.79s2.31-2.65,3.51-3.2c-3.25-5.87-6-10.78,1.41-14.8a8.59,8.59,0,0,1-1-5.88c.53-2.38,7.64-4.83,9.95-4.46s2.37,3.28,3.48,3.1c1.27-.2,3.1-3,6-2.76.65,0,1.25.73,1.72.64s2.41-2.11,3.5-2.5c4.66-1.66,11.41.26,16.33,1.11.9.15,1.86-.08,2.76.06,1.1.17,2,1.2,2.54,1.29s1.13-.31,1.71-.29c1.52.05,3.63,1.16,4,2.75.62,2.78-1.25,2.09-1.87,2.92-.38.52-.26,1.77-.88,2.65-.77,1.11-2,1-2.38,1.32m-13.57-8.46c-.48-.52-4.35-.88-5.33-1.42L145.92,21l2.82,10.21,17.62-9.87-6.46-1.43c-.25,0-.76,1.73-2.1,1.39-.91-.23-.75-1.3-1-1.63m-23.53,2c.15-3-4.65-.28-6,.56-.58.37-1.54.71-1.44,1.56Zm12,42.66c1-.47,5.21-2.29,5.63-2.66s.33-1,.93-1.54a16.08,16.08,0,0,1,3.31-1.45c.24-.31-1.51-1-1.71-1.64-1-3.23,4.06-.3,4.8-.17,2.47.43,15-7.77,17.68-9.67.51-.37,1.92-1.3,2.08-1.8l.06-4c-5.42,3.13-10.3,7.83-16.39,9.52-3.17-.19-5.16,1-7.16-2a102,102,0,0,1-8.53-17.2c-1.21-3.35-1.81-7-3.13-10.26-.15-.38.22-.6-.55-.5l-15.7,9.69c-1.14.92.91,4.72-.55,5.1s-1.72-2.26-1.92-3.16L122,34.19c0,.9,5.38,11.85,6.27,13.49.51,1,1.51,1.74,2.11,2.82,1.73,3.1,3.28,7.27,5.56,10,1.58,1.84,4.38,3,6.13,4.81,1.74.56,2-.35,3.18-.9m26.44-42.65c-.74-.21-1,.24-1.42.51-1.55.91-3.33,2-4.82,2.94-.34.22-.94.4-.81.95l2.47.88.15-1.79,2.34-.47c.43-.31.18-1.13.42-1.52.32-.55,2-.45,1.67-1.5m-8.11,4.93-9,4.16-.81,1.12L156,33.34c.37,0-.2-2.1,1.13-2.43l2.93,1c-.49-2.81,1.26-3,3.52-2.47Zm-10.93,5.64a2.11,2.11,0,0,0-1.3.28c-.29.12-1.74.85-1.51,1.3l2.81,1.24a4.68,4.68,0,0,1,0-2.82M173.76,39l-1.4-.36L172,40l-2.42,0c.21,2.38-.7,2.67-2.82,2.27l-1.65,2.27c-1.26.36-2-1.2-2.22-1-.59,2.6-1.11,3.53-3.89,3-.91.62-.2,2.55,1.08,1.81A126.14,126.14,0,0,0,173.18,40c.39-.3.73-.35.58-1M124.4,45.69c-.66-.46-4.17,3-4.6,3.68-1.28,2,2.84,6.48,3.71,8,1.14,2,1.58,4.36,3.09,6.42.62.86,2.74,3.49,3.81,2.35-.67-.82-1.26-2-.13-2.78l4,.85c-4.51-5.44-7.12-12.09-9.89-18.49M117.06,69.6c.55.32,4.93-2.55,5.43-3.12,1.41-1.58-.29-4.32-1.18-5.89-.52-.93-2.92-4.62-3.78-4.7-1.35,0-5.71,2.56-5.77,3.68a17,17,0,0,0,1.66,5.74c1,1.63,2.91,2.53,3.64,4.29m-8.51-7.71-1,.88c.46,2.43-.78,5.48-.34,7.75.24,1.26,2.87,2.73,3,4.41.61-.62,5.36-3,4.76-3.87a11.37,11.37,0,0,1-6.35-9.17M105,64.36l-4.24,2.71c-.32,4.63-1,9.18-.69,13.85l3.47-2.35a13.08,13.08,0,0,1-.28-3.8c.1-.65.59-1.17.67-1.8.33-2.85.31-5.79,1.07-8.61m-7.4,5.28-3.88,2.65c-.17.71,2.64,2.19,3,3,.88-1.68.42-3.79.88-5.64m11.63,5.65A3.56,3.56,0,0,1,107,73.88l-1.23,3.52c.42.39,3.2-1.49,3.52-2.11M96.91,77.76c-2.33,0-3.94-1.63-5.5-3.15l-1.16.9c-.08.47,3.09,3.45,3.67,4,1.08,1.06,3,1.6,2.66,3.52l1.4-.88c-1.23-1.16-1.07-2.87-1.07-4.4m-8.84-.32A1.32,1.32,0,0,0,86.4,78.9a71.52,71.52,0,0,0,3.87,8c1.14.71,4-2.58,5.24-2.78l-3.34-1.76c-1.43-1.56-3.32-2.83-4.1-4.89M81.78,93.61l7-5.15c.11-.51-1.31-1.53-1.68-2.13-.64-1-2.51-5.92-3.11-6.09l-6.85,4.07c.92,3.3,3.07,6.22,4.62,9.3M67.3,82.7c-.35-.3-3.66.71-3.48,1.53l11.78,20,1,.3c1.07-1,4.92-2.91,4.78-4.26-.19-1.8-2.31-4.06-3.18-5.68-1.64-3.08-4.25-10.25-7.35-11.68a1.57,1.57,0,0,0-1-.18v3.17H68.6Zm-4.57,7.39L60.8,85.54a51.58,51.58,0,0,0-7.23,4,2.15,2.15,0,0,0-.36,1.57c-.54.56-3.07-1-2.79.17.2.81,1.76,4.12,2.56,4l7.64-3.86c.15-.2-.89-1.66.18-2.09s.8,1.14,1.93.7m3.84,6.3c.55-.86-1.33-3.4-1.92-4.18-.33-.08-4.71,3.1-5.55,3.58a45.6,45.6,0,0,1-5.44,2.7c-1.88.32-3.57-2-4.47-2-1.23-.08-5.74,1.13-7.47,1.34-1,.11-2,0-2.95,0,.87,2.18,3.86,4.85,1.73,7.19-1.93,2.13-5.19,2.17-5.28,5.66-.08,3.18,1.08,3.62,4,2.57,9.06-5.74,17.88-11.86,27.36-16.88m2.15,2.51L44.77,113.19c-2.05,1.69-.45,3.15-.74,4.17-.41,1.43-4,.33-3.5-1.54-1.69.72-2.21,1.43-4.24.89-2.78-.73-4.48-5.51-3.71-8,.06-.19,1.82-3.18,2-3.34.37-.48,2.8-1.93,2.85-2.16.19-.87-1.63-3.8-2.64-3-.28,3.39-1.32,1.74-2.86,2.44A45.55,45.55,0,0,0,28,105.6c-1.32,1.12-2.43,2.54-3.71,3.7-.4.94,2.06.34,2.41.93l.06,1.36-3.88-.36a7.72,7.72,0,0,0,.18,6.35c1.53,4.11,4.05,6.81,6.52,10.22l1.29-5.5c-1.16-2.69.74-5.5,3.63-4.18a33.25,33.25,0,0,1,2.78,2.52c.74,2.17-1.33,2.85-1.64,3.89-.23.77-.26,2.77.42,3.31,1.65,1.29,1.52-.33,2-.92,1.73-2.31,8.91-5.24,11.62-7.07,2.24-1.51,4.4-4.07,7.07-5.09l-1.94-1.05c-2.13-3.54,5.44-1.59,6.62-1.83s3.59-2.43,5.07-3.06c2.14-.91,4.38-.82,5.72-3.12ZM34.89,130.62c.52-.51-1.17-2-1.18-2.52L33.13,125c.13,1.44-.35,3.78.42,5,.31.5,1,.93,1.34.59m-9.62-3.13c-2.17.56.3,3.33,1.88,2.26.94-.61-1-2.47-1.88-2.26m9.22,26.7c.55-.34.94-11.3,1.78-12.86l-.68-3-2.82,15.33c-.31.82,1.48.62,1.72.48m3.57-14.4c-1.38-.27-.37,1.54-.35,2.29.15,5.72,1.47,7.42,2.36,12.44a118.29,118.29,0,0,1,1.13,18.54c0,1.72-1,4.12-1.37,5.85l2.26.32c.31-.07.37-.32.48-.56a58.8,58.8,0,0,0,1.81-5.6c1.24-9-.19-13.33-2.69-21.57-1.19-3.92-2.3-7.85-3.63-11.71m-3.52,17.27c-.74-.07-2.15.14-2.41.94l-.41,7.17h2.47Zm0,10.94-2.43.36c.18,2.85-.79,11.77,1.48,13.64a21.57,21.57,0,0,0,3.25,1.16c.49-.06,2.79-1.77,2.65-2.3-4-2.52-3.77-8.7-4.95-12.86"/><path class="f91779f4-ce8c-42bc-80ab-1142ef70f514" d="M68.72,98.9l3.5,6.8c-1.35,2.3-3.59,2.21-5.73,3.12-1.48.63-4,2.85-5.07,3.06s-8.74-1.71-6.62,1.83l1.94,1.05c-2.67,1-4.83,3.58-7.07,5.09-2.71,1.83-9.89,4.76-11.62,7.07-.44.59-.31,2.21-2,.92-.68-.54-.65-2.54-.42-3.31.31-1,2.38-1.72,1.64-3.89a33.25,33.25,0,0,0-2.78-2.52c-2.89-1.32-4.79,1.49-3.63,4.18l-1.29,5.5c-2.47-3.41-5-6.11-6.52-10.22a7.72,7.72,0,0,1-.18-6.35l3.88.36-.06-1.36c-.35-.59-2.81,0-2.41-.93,1.28-1.16,2.39-2.58,3.71-3.7a45.55,45.55,0,0,1,3.85-2.87c1.54-.7,2.58,1,2.86-2.44,1-.84,2.83,2.09,2.64,3-.05.23-2.48,1.68-2.85,2.16-.13.16-1.89,3.15-2,3.34-.77,2.45.93,7.23,3.71,8,2,.54,2.55-.17,4.24-.89-.45,1.87,3.09,3,3.5,1.54.29-1-1.31-2.48.74-4.17Z"/><path class="f91779f4-ce8c-42bc-80ab-1142ef70f514" d="M67.3,82.7l1.3,3.17h1.18V82.69a1.57,1.57,0,0,1,1,.18c3.1,1.43,5.71,8.6,7.35,11.68.87,1.62,3,3.88,3.18,5.68.14,1.35-3.71,3.28-4.78,4.26l-1-.3-11.78-20c-.18-.82,3.13-1.83,3.48-1.53"/><path class="b84a4a21-50d1-4e2f-ad2d-23adf56101f6" d="M38.06,139.79c1.33,3.86,2.44,7.79,3.63,11.71,2.5,8.24,3.93,12.53,2.69,21.57a58.8,58.8,0,0,1-1.81,5.6c-.11.24-.17.49-.48.56l-2.26-.32c.33-1.73,1.33-4.13,1.37-5.85a118.29,118.29,0,0,0-1.13-18.54c-.89-5-2.21-6.72-2.36-12.44,0-.75-1-2.56.35-2.29"/><path class="f6a94645-5f1c-4bbb-b4fc-df65492e45e4" d="M34.52,168c1.18,4.16,1,10.34,4.95,12.86.14.53-2.16,2.24-2.65,2.3A21.57,21.57,0,0,1,33.57,182c-2.27-1.87-1.3-10.79-1.48-13.64Z"/><path class="eee7a917-0c09-443c-8bce-e7d9e46dd340" d="M62.73,90.09c-1.13.44-.95-1.1-1.93-.7s0,1.89-.18,2.09L53,95.34c-.8.08-2.36-3.23-2.56-4-.28-1.16,2.25.39,2.79-.17a2.15,2.15,0,0,1,.36-1.57,51.58,51.58,0,0,1,7.23-4Z"/><path class="ae6a80b1-d9eb-4450-9785-ba0d2367cb9f" d="M34.49,154.19c-.24.14-2,.34-1.72-.48l2.82-15.33.68,3c-.84,1.56-1.23,12.52-1.78,12.86"/><path class="a0d033bd-d6b1-4383-bd28-0626508657a9" d="M34.54,157.06l-.35,8.11H31.72l.41-7.17c.26-.8,1.67-1,2.41-.94"/><path class="a61b4f29-c2dd-4646-a9a1-8adf1e5c05c6" d="M25.27,127.49c.83-.21,2.82,1.65,1.88,2.26-1.58,1.07-4-1.7-1.88-2.26"/><path class="a088240b-691a-4ea4-8cb8-6feaef12806f" d="M34.89,130.62c-.34.34-1-.09-1.34-.59-.77-1.26-.29-3.6-.42-5l.58,3.11c0,.56,1.7,2,1.18,2.52"/><path class="a9b1e07c-6788-493f-bae6-675d0f2da9d2" d="M145.21,64.36c-1.15.55-1.44,1.46-3.18.9-1.75-1.84-4.55-3-6.13-4.81-2.28-2.68-3.83-6.85-5.56-10-.6-1.08-1.6-1.87-2.11-2.82-.89-1.64-6.3-12.59-6.27-13.49l2.1-1.56c.2.9.54,3.52,1.92,3.16s-.59-4.18.55-5.1L142.23,21c.77-.1.4.12.55.5,1.32,3.29,1.92,6.91,3.13,10.26A102,102,0,0,0,154.44,49c2,3,4,1.81,7.16,2,6.09-1.69,11-6.39,16.39-9.52l-.06,4c-.16.5-1.57,1.43-2.08,1.8-2.68,1.9-15.21,10.1-17.68,9.67-.74-.13-5.77-3.06-4.8.17.2.65,1.95,1.33,1.71,1.64a16.08,16.08,0,0,0-3.31,1.45c-.6.51-.52,1.19-.93,1.54s-4.65,2.19-5.63,2.66c1.06-.26.95-2.22.21-2.86l-1-.28c-1.3.63-1.08,2-.54,3.08a3.36,3.36,0,0,0,1.35.06M133.83,29.18c-3.3.77-5,7.31-1.91,9.17,4.67,2.79,12.35-.27,9.14-6-1.15-2-2.3-1.68-4-2.31-1.17-.42-1-1.39-3.19-.89"/><path class="a9b1e07c-6788-493f-bae6-675d0f2da9d2" d="M156.76,19.68c.29.33.13,1.4,1,1.63,1.35.34,1.86-1.35,2.11-1.4l6.46,1.44-17.62,9.87L145.92,21l5.51-2.75c1,.54,4.85.9,5.33,1.42"/><path class="f9bf8b85-5790-4ae4-b5b0-e039c1a48ca0" d="M124.4,45.69c2.77,6.4,5.38,13.05,9.89,18.49l-4-.85c-1.13.73-.54,2,.13,2.78-1.07,1.14-3.19-1.49-3.81-2.35-1.51-2.06-1.95-4.45-3.09-6.42-.87-1.49-5-6-3.71-8,.43-.66,3.94-4.14,4.6-3.68"/><path class="ebc421cd-aab7-47b8-9536-406ac106adf1" d="M117.06,69.6c-.73-1.76-2.67-2.66-3.64-4.29a17,17,0,0,1-1.66-5.74c.06-1.12,4.42-3.65,5.77-3.68.86.08,3.26,3.77,3.78,4.7.89,1.57,2.59,4.31,1.18,5.89-.5.57-4.88,3.44-5.43,3.12"/><path class="ebc421cd-aab7-47b8-9536-406ac106adf1" d="M81.78,93.61c-1.55-3.08-3.7-6-4.62-9.3L84,80.24c.6.17,2.47,5.07,3.11,6.09.37.6,1.79,1.62,1.68,2.13Z"/><path class="fafe746f-019e-42b2-8e0c-9cc37bf13a04" d="M105,64.36c-.76,2.82-.74,5.76-1.07,8.61-.08.63-.57,1.15-.67,1.8a13.08,13.08,0,0,0,.28,3.8l-3.47,2.35c-.31-4.67.37-9.22.69-13.85Z"/><path class="e6315e07-6e05-4858-abf6-2822040fd215" d="M108.55,61.89a11.38,11.38,0,0,0,6.35,9.17c.6.86-4.15,3.25-4.76,3.87-.11-1.68-2.74-3.15-3-4.41-.44-2.27.8-5.32.34-7.75Z"/><path class="f6108dd1-fe4e-4249-a445-ab431fbe2e31" d="M88.07,77.44c.78,2.06,2.67,3.33,4.1,4.89l3.34,1.76c-1.29.2-4.1,3.49-5.24,2.78a71.52,71.52,0,0,1-3.87-8,1.32,1.32,0,0,1,1.67-1.46"/><path class="b9a45fef-db60-49f5-81a1-a0ef775456a3" d="M173.76,39c.15.64-.19.69-.58,1A126.14,126.14,0,0,1,160,48.34c-1.28.74-2-1.19-1.08-1.81,2.78.56,3.3-.37,3.89-3,.2-.19,1,1.37,2.22,1l1.65-2.27c2.12.4,3,.11,2.82-2.27L172,40l.41-1.36Z"/><path class="b9a45fef-db60-49f5-81a1-a0ef775456a3" d="M163.54,26.64v2.82c-2.26-.55-4-.34-3.52,2.46l-2.93-1c-1.33.33-.76,2.44-1.13,2.43l-2.28-1.42.81-1.12Z"/><path class="ba1e1a76-e9a1-4e52-b22c-8ac174891feb" d="M96.91,77.76c0,1.53-.16,3.24,1.07,4.4l-1.4.88c.31-1.92-1.58-2.46-2.66-3.52-.57-.57-3.75-3.54-3.67-4l1.16-.9c1.56,1.52,3.17,3.14,5.5,3.15"/><path class="b8e52f1c-0c3a-4195-8ae1-cfe155e4a91a" d="M97.63,69.64c-.46,1.85,0,4-.88,5.64-.36-.8-3.17-2.28-3-3Z"/><path class="abc536ce-142a-4ed2-8ad8-688a650c63b6" d="M133.23,21.7l-7.4,2.12c-.1-.85.86-1.19,1.44-1.56,1.31-.84,6.11-3.58,6-.56"/><path class="b9a45fef-db60-49f5-81a1-a0ef775456a3" d="M171.65,21.71c.31,1.05-1.35.95-1.67,1.5-.23.39,0,1.21-.42,1.52l-2.34.47L167.07,27l-2.47-.88c-.13-.55.47-.73.81-.95,1.49-1,3.27-2,4.82-2.94.46-.27.68-.72,1.42-.51"/><path class="e44d45db-c0ba-4fea-86af-4961856ec5bb" d="M109.26,75.29c-.32.62-3.1,2.5-3.52,2.11L107,73.88a3.56,3.56,0,0,0,2.29,1.41"/><path class="b9a45fef-db60-49f5-81a1-a0ef775456a3" d="M152.61,32.28a4.68,4.68,0,0,0,0,2.82l-2.81-1.24c-.23-.45,1.21-1.18,1.51-1.3a2.11,2.11,0,0,1,1.3-.28"/><path class="b669151b-0cc3-4a08-9b90-77545559d1d6" d="M133.83,29.18c2.17-.5,2,.47,3.19.89,1.74.63,2.89.28,4,2.31,3.22,5.7-4.46,8.76-9.13,6-3.11-1.86-1.39-8.4,1.91-9.17m1.06,3.5c-.68.19-1.52,1.91-1.16,2.43,1,.6,2.56,1.08,3.58.36,1.27-.91-1.27-3.13-2.42-2.79"/><path class="f1a16cc1-bdd7-4c04-8c01-0b9e755e45ac" d="M145.21,64.36a3.36,3.36,0,0,1-1.35-.06c-.54-1.12-.76-2.45.54-3.08l1,.28c.74.64.85,2.6-.21,2.86"/><path class="a73c3a18-6bed-40e9-8830-e8c7606b0293" d="M134.89,32.68c1.15-.34,3.69,1.88,2.42,2.79-1,.72-2.6.24-3.58-.36-.36-.52.48-2.24,1.16-2.43"/></svg>