<svg id="a1a30a99-712b-40a9-a0ad-16972baba77c" data-name="Capa 1" xmlns="http://www.w3.org/2000/svg" width="28.75mm" height="29.28mm" viewBox="0 0 81.49 82.99"><defs><style>.a73f7416-3057-4586-b02b-7876a5f307f8{fill:#0a0a0b;}.a35cf027-57bb-4b85-9f09-99b2a228b782{fill:#252525;}</style></defs><path class="a73f7416-3057-4586-b02b-7876a5f307f8" d="M37.73,33.58a6.3,6.3,0,0,1,4.71.5,18.43,18.43,0,0,1,8.07,7.34c1.36,2.28,2.24,5.38,3.89,7.33,3.39,4,7.72,7.33,6.71,13.42-.58,3.44-5.71,8.5-9.09,9.08-4.3.74-7.93.19-11.45-2.43-.36-.27-.53-.81-1-.86-1.6-.16-2,.59-3.23,1.22C31,72,27.86,72.8,21.91,71.06c-7-2-8.1-5.73-7.77-12.69a12.52,12.52,0,0,1,9.48-11.21c.7-.18,1.42.06,2-.52A28.49,28.49,0,0,0,27.78,43c.53-1,.86-2.16,1.42-3.16a13.4,13.4,0,0,1,8.53-6.21M26.5,47.46s-1,.73-1.1.75c-.43.13-.74-.08-1.07,0-2.82.37-6.58,3.75-7.79,6.25C15,57.55,15,64.54,17.47,67.18c2.1,2.23,8.44,3.64,11.42,3.34,3.29-.33,5.83-2.6,8.64-3.67,2.53-1,3,.19,4.81,1.24,6.06,3.5,12.28,2.08,16.16-3.75,4.26-6.41-3.78-12.12-6.6-16.94-2.51-4.28-2.84-7.19-7.26-10.4-3.06-2.21-4.93-2.93-8.6-1.5-5.42,2.11-6.29,7-9.3,11.36-.12.19-.12.47-.24.6"/><path class="a35cf027-57bb-4b85-9f09-99b2a228b782" d="M26.5,47.46c.12-.13.12-.41.24-.6,3-4.32,3.88-9.25,9.3-11.36,3.67-1.43,5.54-.71,8.6,1.5,4.42,3.21,4.75,6.12,7.26,10.4,2.82,4.82,10.86,10.53,6.6,16.94-3.88,5.83-10.1,7.25-16.16,3.75-1.81-1-2.28-2.2-4.81-1.24-2.81,1.07-5.35,3.34-8.64,3.67-3,.3-9.32-1.11-11.42-3.34C15,64.54,15,57.55,16.54,54.43c1.21-2.5,5-5.88,7.79-6.25.33,0,.64.16,1.07,0,.06,0,1.06-.7,1.1-.75"/><path class="a73f7416-3057-4586-b02b-7876a5f307f8" d="M13.71,24.86a7.16,7.16,0,0,1,2.84,0c4.57.29,9.66,1.61,10.18,7.09.79,8.29-5.93,11.74-13,8.34-4.48-2.14-6.11-5.52-4.33-10.35C10,28.34,12,25.3,13.71,24.86m.75,1.35c-2.5.67-4.26,5.32-4.15,7.69.22,4.57,8.38,7.46,11.91,5.29s4-8.61.68-11c-1.59-1.16-5.45-2.08-7.38-2.1a4.29,4.29,0,0,0-1.06.14"/><path class="a35cf027-57bb-4b85-9f09-99b2a228b782" d="M14.46,26.21a4.29,4.29,0,0,1,1.06-.14c1.93,0,5.79.94,7.38,2.1,3.33,2.41,2.79,8.89-.68,11s-11.69-.72-11.91-5.29c-.11-2.37,1.65-7,4.15-7.69"/><path class="a73f7416-3057-4586-b02b-7876a5f307f8" d="M43.75,12.08c2.56,1.65,3.94,2.78,4.84,5.92,2.66,9.19-4.62,14.29-11.83,7.91-2.55-2.25-3.4-4-3-7.53.4-3.7,4.33-7.8,8.19-7.33,1.33.16,1.09.56,1.82,1m-3.67.58c-1.17.31-3.43,2.52-4,3.59-1,1.89-1.14,5,.14,6.73,2,2.73,7,5.87,10,2.84,2.61-2.7,1.18-8.56-1.25-11a16,16,0,0,0-3.36-2.21,3.1,3.1,0,0,0-1.45.08"/><path class="a35cf027-57bb-4b85-9f09-99b2a228b782" d="M40.08,12.66a3.1,3.1,0,0,1,1.45-.08,16,16,0,0,1,3.36,2.21c2.43,2.47,3.86,8.33,1.25,11-2.93,3-8-.11-10-2.84-1.28-1.77-1.18-4.84-.14-6.73.6-1.07,2.86-3.28,4-3.59"/><path class="a73f7416-3057-4586-b02b-7876a5f307f8" d="M62.47,31.31c5.33-1.33,10.36,2,10.37,7.63,0,4.26-4.82,6.26-8.49,6.21-6.84-.1-9.58-11.91-1.88-13.84m.62,1.53c-6.14,1.62-3.79,11,2.2,10.66,2-.12,5.74-1.72,5.84-4.1a6.29,6.29,0,0,0-8-6.56"/><path class="a35cf027-57bb-4b85-9f09-99b2a228b782" d="M63.09,32.84a6.29,6.29,0,0,1,8,6.56c-.1,2.38-3.79,4-5.84,4.1-6,.35-8.34-9-2.2-10.66"/></svg>