<svg id="e3a8e3fa-a8c0-45e7-adbf-0b4803dbb905" data-name="Capa 1" xmlns="http://www.w3.org/2000/svg" width="83.88mm" height="69.61mm" viewBox="0 0 237.76 197.32"><defs><style>.a45d3c26-d317-4661-9256-dd8838e06a34{fill:#080808;}.b411fa3e-247d-4950-a82b-57c5ac77b4a1{fill:#bdb544;}.a21b8623-2308-4993-8afd-c416d7248997{fill:#67351c;}.ae3418bd-f703-475f-bf92-d8c3de3bc0e7{fill:#989235;}.aab89c25-5168-4d57-b411-18690a339894{fill:#572c17;}.ef87e4c8-0a35-4d2e-9bad-9203ef033980{fill:#e2e2e2;}.fdf888a6-2f0b-4981-81e6-cfe2475ae9d7{fill:#b0b0b0;}.bf202f6c-f257-47e4-8110-2375bdb9edca{fill:#b8b8b8;}.bcbe2bb1-cb7d-4647-95ef-5798eec52996{fill:#635643;}.ecbbb62d-1b10-465a-8060-abd40a3622b0{fill:#63704e;}.f2468191-3f2b-45fb-bd6a-969840bb4d98{fill:#73825b;}.eecf0aad-4021-4fc6-8c39-2a82dd063762{fill:#a8a8a8;}.fd32a5a8-6553-46d6-b2fb-85ed5c8e650a{fill:#514637;}.a908df4f-517e-4c58-ba8e-6621355d87d3{fill:#494743;}.e59e8b2d-e785-4841-ac88-24dc3cde2af8{fill:#d3d1d4;}.ff9b8f76-61b1-4f4a-b583-c77fdd398fb6{fill:#d3d3d3;}.a7cf2dcd-8fc8-4078-abbe-77f0503a574e{fill:#313131;}.a96c3ebb-7cac-4045-aee9-9a5464b70a35{fill:#c7c5c9;}</style></defs><path class="a45d3c26-d317-4661-9256-dd8838e06a34" d="M139.69,44.48c-1-.12-1.15-1.44-.91-2.23a48.27,48.27,0,0,1,3.66-3.77c8-7.57,17.31-13.2,25.08-21.21,1.5-1.55,3.82-5.15,5.93-5.59,1.18-.25,2.32-.07,2.48,1.26-.65,8.1-2.29,16.06-3.37,24.11.24.24,2.91-1.47,3.35-1.68C183,32,190.6,28.46,198,25.77c2-.74,4.47-1.69,6.53-2.22s4.36-1,3.73,2.05c-.44,2.1-4.17,5.94-5.56,7.88-3.12,4.36-5.65,8.82-8.44,13.38-.67,1.09-2.61,3.54-3,4.46-.23.59.87.32,1.19.36,11.1,1.35,18.3,1.91,28.79,6.23,2.63,1.09,5.15,2.59,8.09,2.82l.75.71c.28.94-.6,1.92-1.16,2.59-4.7,5.66-13.84,10.54-19.92,15-4,3-8,6.13-11.74,9.47q4.42,1.65,8.87,3.24c4.94,1.77,10.07,3.19,15,5,2.79,1,7.65,2.38,8,5.76-.43.43-1.12,1.62-1.66,2-1.3,1-5.32,2.34-7.09,3-10.33,3.81-20.78,6.92-30.82,11.51-.28.12-.88.18-.72.59.22.56,4.35,4.26,5.16,5.16,3.63,4.06,8.22,10.69,10.13,15.77.53,1.44,2.54,6.44-.08,6.79-.58.07-3.3-.39-4.18-.49-5.65-.67-10.06-2.41-15.11-4.8-11-5.21-19.44-10.78-32-12.23-1.53-.17-7.1-.06-7.9-1s0-1.24.11-1.67a2.82,2.82,0,0,1,1.55-.49,51.46,51.46,0,0,1,8,.25c9,.88,14.33,4.39,22.31,7.44,0,0,.06.17.24.24s.17,0,.24,0c7.53,3.77,15.12,8.57,23.75,9.11.25-1-.42-1.67-.72-2.4a43,43,0,0,0-4.56-7.91c-.17-.26,0-.31-.48-.72l-.24-.24a44.39,44.39,0,0,0-5.39-7c-1.76-2-4.76-4-4.65-7.08.06-1.78,4.14-3.45,5.64-4.15,10.5-5,22.14-7.81,33-12,.12-.56-.09-.39-.31-.54a16.53,16.53,0,0,0-2.81-1.14,127.43,127.43,0,0,0-12.23-3.84.33.33,0,0,0-.24-.24,2.57,2.57,0,0,0-.48,0c-4.17-1.52-8.49-3.68-12.86-4.53-.73-.14-1.39.12-2.19-.2a1.82,1.82,0,0,1-.89-2.69L204,78.92c7.12-5.72,15.56-9.72,22.05-16.21-5.44-1.22-10.35-3.69-15.83-4.92-5.64-1.27-11.42-1.68-17.12-2.56-2-.31-4.19-1.1-6.15-1.16,0-.29-.07-.7,0-1,1-4,7.43-10.73,9-15.09l6.82-9.86c-.41-.36-7.57,2.58-8.63,3-6.76,2.75-13.66,6.7-20.33,9.17-1.53.56-2.13.86-3.42-.43.17-.67-.24-1.56-.25-2.26-.14-7,2-13.78,2.53-20.75C166.33,24.68,158,30,150.37,36.33c-2.07,1.71-6,4.77-7.56,6.71-1.27.47-1.53,1.63-3.12,1.44"/><path class="b411fa3e-247d-4950-a82b-57c5ac77b4a1" d="M170.4,39.92c-.06.22-.6.66-.71,1.34-.33,2.12.87,3.82,3.12,3.11.85-.26,1.57-1.74,2.65-2.38,2.66-1.59,6.72-2.86,9.65-4.26,5.27-2.51,10.36-5.38,15.63-7.87l-14.33,21.4c-.28.49-.35,1.94.54,1.86-.07.25,0,.66,0,1-.2,0-.42-.09-.51.14-.68,1.71.12,2.92,1.65,3.64,3.8.45,7.62.74,11.41,1.3,8.6,1.27,17.06,3.84,25.83,3.8L187.67,86.69c1.85-1.94,3.48-4,5.51-5.88,2.33-2.12,5.29-4,7.56-6.11,1.17-1.09,2.32-2.67,3.59-3.84a24,24,0,0,0,2.53-2.15c-2-.5-3.69-1.86-5.52-2.77A88.94,88.94,0,0,0,189,61c-2-.67-6.19-1.22-7.56-2.76-2-2.29.08-3.56.23-5.79,0-.68-.23-1.17-.18-1.81.18-2.57,3-6.58,3.43-9.3-3.1,1.07-6.15,2.45-9.38,3.09-.65.13-1.38-.07-2.08.08s-2,1-3,1.26a14.79,14.79,0,0,1-4.09.27c-2.39-.25-1.59-1.44-1.93-2.89-.56-2.5-1.82-4.92-1.78-7.57-2.92,2.08-6,4-9.07,5.79-2.19,1.26-10.21,5.85-12.27,5.71a1.36,1.36,0,0,1-1.33-1,9.49,9.49,0,0,0,1.8-1.44A17,17,0,0,0,142.81,43c1.57-1.94,5.49-5,7.56-6.71,7.63-6.29,16-11.65,22.31-19.42-.55,7-2.67,13.72-2.53,20.75,0,.7.42,1.59.25,2.26"/><path class="a45d3c26-d317-4661-9256-dd8838e06a34" d="M157,45.92c1.86-.59,4.13-.72,3.5,1.93l-7.82,9.34a18.25,18.25,0,0,1,4.37.32c3.85.6,8.62,1.54,12.43,2.44,2.22.52,6.64,1.49,5.64,4.69-.37,1.21-2.87,2.18-4,2.63-.25.09-.71.07-1.09.22-2.19.9-4.38,1.82-6.59,2.66-.27.36,4.16,1.63,4.55,1.8,1.41.58,5,2.25,4.2,4.18s-4.95,4.19-6.35,6c-.72.13-2.49,1.81-3.12,2.4,0,0-.32,0-.44,0v.67c3.8,1.93,8.33,4.19,10.86,7.72a16.59,16.59,0,0,1,1.34,2.14c.31.87.54,2.12-.24,2.75a16.35,16.35,0,0,0-1.67,1.69c-1,.94-4.13,1.65-5.52,2-1.81.5-3.72.77-5.52,1.32a24.12,24.12,0,0,1,9.16,9.55,3.35,3.35,0,0,1,.63,2.63c-.35,1.15-1.48.38-2,.47-.24,0-.49.47-.8.61-1.41.62-4.18-.44-5.82-.67a59,59,0,0,0-6.57-.69c-3.39,0-8.28,1.3-11.31.94-1.58-.19-1.12-.69-1.55-1.45-.13-1.08.14-1.52,1.14-1.85,2.45-.8,8.56-1.26,11.2-1.27a29,29,0,0,1,11.53,2.16c0-.92-.86-1.52-1.32-2.16-3-4.11-4-3.84-7.8-6.46-1.56-1.08-2.12-1.4-1.56-3.37,1-.95,2.33-1.11,3.6-1.44l1-.24c3-.76,6.32-1.7,9.3-2.33a5.83,5.83,0,0,1,1.25-.07c.27-.22-1.4-2.61-1.67-2.94a.61.61,0,0,0-.48-.17,13.83,13.83,0,0,0-2.9-2.74c-1.66-1.15-5.57-2.85-6.68-4.12-.12-.13-1.14-1.84-1.18-2-.34-1.15,1-2.26,1.75-2.95,2.53-2.3,5.75-4.24,8.28-6.59,0-1.58-18.74-3.49-6.47-8.27l8.87-3.84-16.46-3.33c-1.46-.33-6.16.77-6.53-1.17-.22-1.18.87-1.26,1.33-1.81s.56-1.44,1.08-1.92l4.16-5.2c-1.91.84-3.75,1.82-5.56,2.83-1,.57-2.06,1.45-3,2-.14.08-.31.15-.48.24-1.86,1-4.15,2.58-6.24,2.64,0-.77-1-.91,0-2,1.35-1.55,7.37-5,9.44-6.15a55.76,55.76,0,0,1,8.07-3.8"/><path class="b411fa3e-247d-4950-a82b-57c5ac77b4a1" d="M207.58,96.52a2.57,2.57,0,0,1,.48,0,.38.38,0,0,0,.24.24,127.43,127.43,0,0,1,12.23,3.84c-.16.54-.64.43-1,.52-13,3.27-23.82,9.27-36,14.65-1.47,1-2.29,2.23-1.13,3.9,2,2.84,6.93,5.85,9.12,8.87a41.07,41.07,0,0,0,3.59,4l.24.24v.72h.48a43,43,0,0,1,4.56,7.91c.07.8-.15.36-.59.23-7.38-2.17-15.28-4.31-22.44-6.94-.07,0-.17,0-.24,0l-.24-.24c-8-3-13.3-6.56-22.31-7.44.14-.64-.32-.47-.71-.59-1.67-.49-3.39-.79-5-1.33,5.09-.24,13.25-.84,18,.37,6.13,1.56,11.58,5.31,18,5.87L179,118.48A3.4,3.4,0,0,1,179,116c.62-1.52,6.33-3.34,8-4.21a97.81,97.81,0,0,0,15-10.42c.21-.18.64-.27.55-.66a70.33,70.33,0,0,0-8-3.72c-2.38-.82-8.9-1.6-10.07-3.36a2.28,2.28,0,0,1-.37-1.43,16.46,16.46,0,0,0,5.7,2.33c4.6,1.22,13.27,2.44,17.81,2"/><path class="a21b8623-2308-4993-8afd-c416d7248997" d="M156.48,66.31c1.55.2,3.06.37,4.61.55.36,0,1.34,0,1.15.64-12.27,4.79,6.45,6.7,6.47,8.28-2.53,2.35-5.75,4.29-8.28,6.59-.76.69-2.09,1.8-1.75,2.95,0,.11,1.06,1.82,1.18,2,1.11,1.27,5,3,6.68,4.12a13.83,13.83,0,0,1,2.9,2.74L161,99.64l-1,.24c-1.7-.64-3.1-.28-3.6,1.44-.56,2,0,2.29,1.56,3.36,3.81,2.63,4.81,2.36,7.8,6.47-.16.43-.74,0-1-.06a64.43,64.43,0,0,0-9.3-2.57l.85-.25c-2-1-7.29-5.73-4.86-8.08.08-.08,1.75-1.22,1.92-1.32,2.91-1.55,8-1.25,11.21-2.59.12-.56-.08-.38-.31-.53-3.21-2.06-6.63-3.84-9.74-6.08-1.15-.83-2.05-1.46-1.89-3,.39-4,4.35-6.72,6.42-9.9-1.3-.53-2.52-1.4-3.78-2s-3.06-.4-3.31-2,4.33-4.4,4.45-6.48"/><path class="ae3418bd-f703-475f-bf92-d8c3de3bc0e7" d="M187,54.07c2,.06,4.11.85,6.15,1.16,5.7.88,11.48,1.29,17.12,2.56,5.48,1.23,10.39,3.7,15.83,4.92C219.56,69.2,211.12,73.2,204,78.92L191.64,89.1a1.82,1.82,0,0,0,.89,2.69c.8.32,1.46.06,2.19.2,4.37.85,8.69,3,12.86,4.53-4.54.46-13.21-.76-17.81-2a16.46,16.46,0,0,1-5.7-2.33,8,8,0,0,1,0-1.2c.59.13.48-.32.67-.63a9.87,9.87,0,0,0,1.25-2c.58-.53,1.13-1.11,1.68-1.68L225.32,63c-8.76,0-17.22-2.53-25.82-3.8-3.79-.56-7.61-.85-11.41-1.3-1.53-.72-2.33-1.93-1.65-3.64.09-.23.31-.14.51-.14"/><path class="aab89c25-5168-4d57-b411-18690a339894" d="M146.17,55c.91-.51,2-1.39,3-2,1.81-1,3.65-2,5.56-2.83l-4.16,5.2c-.52.48-.69,1.45-1.08,1.92s-1.55.63-1.33,1.81c.37,1.94,5.07.84,6.53,1.17l16.46,3.33-8.87,3.83c.19-.62-.79-.6-1.14-.64-1.56-.18-3.07-.35-4.62-.55-1.4-.19-2.11-.16-3.6-.48A59.48,59.48,0,0,1,143.77,63c-.27-2.3,1.75-4.78,2.46-6.79.16-.44.26-.71-.06-1.13"/><path class="a21b8623-2308-4993-8afd-c416d7248997" d="M146.17,55c.32.42.22.69.06,1.13-.71,2-2.73,4.49-2.46,6.79a12.94,12.94,0,0,1-2.63-1.09,25.87,25.87,0,0,1-1.93-2,1.91,1.91,0,0,1,0-.24c2.06-.28,3.55-2.44,5.46-3.28l1-1c.17-.09.34-.16.48-.24"/><path class="ae3418bd-f703-475f-bf92-d8c3de3bc0e7" d="M147.61,125.06c.38,0,.8,0,1.2,0,1.65.54,3.37.84,5,1.33.39.12.85,0,.71.59a51.46,51.46,0,0,0-8-.25,2.82,2.82,0,0,0-1.55.49c.13-.47-.22-.89.34-1.45a5.45,5.45,0,0,1,2.3-.71"/><path class="ae3418bd-f703-475f-bf92-d8c3de3bc0e7" d="M142.81,43a17,17,0,0,1-1.08,1.68,9.49,9.49,0,0,1-1.8,1.44c0-.08-.22-.17-.24-.24-.08-.41.06-1,0-1.44,1.59.19,1.85-1,3.12-1.44"/><path class="b411fa3e-247d-4950-a82b-57c5ac77b4a1" d="M186,88.37a9.87,9.87,0,0,1-1.25,2c-.19.31-.08.77-.67.63a2.81,2.81,0,0,1,1.32-2.41c.2-.18.54-.18.6-.23"/><path class="ae3418bd-f703-475f-bf92-d8c3de3bc0e7" d="M220.53,100.6a16.53,16.53,0,0,1,2.81,1.14c.22.15.43,0,.31.54-10.81,4.22-22.45,7.07-33,12-1.5.7-5.58,2.37-5.64,4.15-.11,3.1,2.89,5.07,4.65,7.08a44.39,44.39,0,0,1,5.39,7,41.07,41.07,0,0,1-3.59-4c-2.19-3-7.15-6-9.12-8.87-1.16-1.67-.34-2.93,1.13-3.9,12.15-5.38,23-11.38,36-14.65.4-.09.88,0,1-.52"/><path class="ae3418bd-f703-475f-bf92-d8c3de3bc0e7" d="M170.4,39.92c1.29,1.29,1.89,1,3.42.43,6.67-2.47,13.57-6.42,20.33-9.17,1.06-.43,8.22-3.37,8.63-3L196,38c-1.58,4.35-8,11.06-9,15.09-.89.08-.82-1.37-.54-1.86l14.33-21.4c-5.27,2.49-10.36,5.36-15.63,7.87-2.93,1.4-7,2.67-9.65,4.26-1.08.64-1.8,2.12-2.65,2.38-2.25.71-3.45-1-3.12-3.11.11-.68.65-1.12.71-1.34"/><path class="ae3418bd-f703-475f-bf92-d8c3de3bc0e7" d="M177.35,134.66c7.16,2.63,15.06,4.77,22.44,6.94.44.13.66.57.59-.23.3.73,1,1.38.72,2.4-8.63-.54-16.22-5.34-23.75-9.11"/><path class="ae3418bd-f703-475f-bf92-d8c3de3bc0e7" d="M195.82,133.46h-.48v-.72c.49.41.31.46.48.72"/><path class="ae3418bd-f703-475f-bf92-d8c3de3bc0e7" d="M177.11,134.66c-.18-.07-.22-.24-.24-.24Z"/><path class="ae3418bd-f703-475f-bf92-d8c3de3bc0e7" d="M208.3,96.76a.38.38,0,0,1-.24-.24.31.31,0,0,1,.24.24"/><path class="aab89c25-5168-4d57-b411-18690a339894" d="M169.44,94.13a.61.61,0,0,1,.48.17c.27.33,1.94,2.72,1.67,2.94a5.8,5.8,0,0,0-1.25.07c-3,.63-6.31,1.57-9.3,2.33Z"/><path class="aab89c25-5168-4d57-b411-18690a339894" d="M145.69,55.27l-1,1c-1.91.84-3.4,3-5.46,3.28a11.2,11.2,0,0,1,.24-1.68c2.09-.06,4.38-1.59,6.24-2.64"/><path class="aab89c25-5168-4d57-b411-18690a339894" d="M160.08,99.88c-1.27.33-2.64.49-3.6,1.44.5-1.72,1.9-2.08,3.6-1.44"/><path class="aab89c25-5168-4d57-b411-18690a339894" d="M155.52,108.52a64.08,64.08,0,0,1,9.3,2.57c.28.09.86.49,1,.06.46.64,1.27,1.24,1.32,2.16a29.22,29.22,0,0,0-11.53-2.17c-2.64,0-8.75.48-11.2,1.28-1,.33-1.27.77-1.14,1.85-.27-.47-.72-.38-.72-1.44,0-2.3,4.16-3.53,6-4a25.48,25.48,0,0,1,3.12-.59,15.37,15.37,0,0,1,3.83.24"/><path class="a45d3c26-d317-4661-9256-dd8838e06a34" d="M143.05,92.21c.09,8.23-2,17.18-7.44,23.5a36.47,36.47,0,0,1-4.86,4.61,56.4,56.4,0,0,1-5.63,2,18.15,18.15,0,0,1-3.9-.17c-.06-.24-.28-.22-.48-.24s-.48,0-.72,0c0-1.29-1.68-1.43-2.52-2.16.37,1.68-1,1.61-2.28,1.68-4.46.23-8.51-2.4-12.8-3.31-.49.09-3.56,4.08-4.78,4.8s-3.81,1.51-4.84,0c-.29.14-.43.56-.6.72-1.32,1.14-1.94,2.74-3.47,3.36a5.75,5.75,0,0,1-4.7-.12c-1.57-.68-1.52-2.11-3.11-2.67-.48-.29-.62.34-.72.38-1.56.75-2.22,1.39-4.07,1.44,0,0-.28-.27-.59-.26a10.94,10.94,0,0,1-2.29.26c-.2.18.9,3.1,1,3.6.54,4.58-1.52,6.11-5.28,7.68a7.43,7.43,0,0,1-1.56.48c-.22.06-.5-.15-.36.35.42,1.39,2,3.65,2.68,5.24.36.87.89,2.42,1.16,3.28.72,2.33.74,3.31-1.08,5a21.69,21.69,0,0,1-7.56,4.21c-1.39.35-2.46-1.34-3.21-2.32-1.54-2-4.24-6.22-4.83-8.6-.24-1-.2-2.22-.47-3.14-.39-1.37-1.81-3-2-4.54-2.44.9-4.46,2.1-7.2,1.67l-2.88-.48a43.87,43.87,0,0,0-.46,13.77c0,.2.22.33.22.38.61,4.26,1.57,7.84,1.44,12.24a14.77,14.77,0,0,1-.11,2.65c-.38,2.06-2,4.36-2.75,6.34,1.74,3.25,3.16,7.08,1.55,10.68-.57,1.28-1.63,3-3.24,2.63.12,1.4-.61,2.45-1.2,3.6-3.2.23-1.45-2.48-1.31-4.32a13.85,13.85,0,0,0-2.44-1.17c-.47-.14-.27.06-.35.3-.36,1-.49,4.21-2.21,3.71a12.66,12.66,0,0,1-1.08-.72c-.47-.73,1.44-4.53-.05-5.24a5.64,5.64,0,0,0,0-.72c0-.31,0-.64,0-1,0-.16,0-.32,0-.48a20.14,20.14,0,0,0,1-2.87c.28-.81.65-1.6,1-2.4a4.09,4.09,0,0,0,1.2-1.92c.45-.39,1-.8,1.44-1.2l3.62-.14c.21-2.23,1.45-4.24,1.65-6.46a30.08,30.08,0,0,0-.71-8c-.06-.33-.23-.61-.24-.72-.08-.48-.17-1-.24-1.44l.2-.15-.2-.33c-.08-.47-.19-1-.24-1.44a71.62,71.62,0,0,1-.49-11.16l1-5.86c.19-.4.32-.93.47-1.2.05-.09.5-.23.62-.48.43-.87-2.82-4.73-3.49-5.52-.14-.16-.19-1.05-.81-.94-.35.42-1.07.71-1.39,1.07a.21.21,0,0,0,0,.35,3.58,3.58,0,0,0-.24.48c-.12.23-.67.34-.71,1.09.14,4.14,2.21,12.34.09,15.92-.25.42-.76.71-1.06,1.1-.9,1.16-.66,1.82-2.52,2a38.7,38.7,0,0,1-6.37-.35c-1.94-.41-2.52-1.74-2.87-3.49a16.63,16.63,0,0,1-.24-2.88c0-1.51.05-3,0-4.56a21.26,21.26,0,0,0-1.43-8.15c-1.95-5.7-3.46-7.3-7.2-11.75C10.19,118.4,6.44,114.35,6,113c-.18-.55,0-1.16-.41-1.64.47-3,.78-5.21,3.48-7.19,2.28-1.67,8.9-2.07,11.32-.77,1.75.94,4.14,4.36,4.63,6.29a8,8,0,0,1,.24,2.39l1.92-.24c.12-.11-.68-2.69-.72-3.11a49,49,0,0,1,.06-8.22c.19-1.08,1.5-2.11,2.34-2.82,1.49-1.25,6.37-4.94,8-5.57A3,3,0,0,1,38.23,92c.23-.23-1.6-3.81-1.86-4.5-.75-2-3.49-9.27.66-8.21.16.21.43.41.48.48a20.48,20.48,0,0,1,2.18,4.52l1.17-.09c1.09-.53-.09-2.23-.22-3.14a10.35,10.35,0,0,1,0-2.36c.16-1,.85-.79.94-1.57a13.45,13.45,0,0,1,1.68,0,10.9,10.9,0,0,1,1.68,3.6c.12.55,0,.93.24,1.67a13.69,13.69,0,0,0,.72,1.68,24.1,24.1,0,0,0,1.59,3.38c.86.17,1.08-.63,1.71-.92,1.1-.49,4.92-.38,6.3-.3a15.78,15.78,0,0,1,3.11.72c.54.14,1.34.21,1.68.36s.61.78.87.84.53-.46.57-.48a7.67,7.67,0,0,1,1.44,0c0,.44,1.68,2.2,1.92,1.92-.58-2.67,3.68-6.48,6.06-5.95.57.12.8.7,1.38.67a8.7,8.7,0,0,1,.24-2.64A5.86,5.86,0,0,1,78,77.58c2.06-.14,4.09,0,5.28,1.92l-.24,3.83c2.11-3.4,4.36-6.74,6.62-10,1.52-2.22,4.14-5.1,4.9-7.45.13-.43.2-1.15.24-1.2s.36.07.43,0c.58-.9,1.2-3,2-3.7.45-.44,1-.21,1.24-.49.56-.61,1-2.41,2-3.46,3.57-3.6,12.42-5,17.28-4.54,3.41.35,13.15,6.42,15.36,9.11,2,4.19,6.37,8.9,7.67,13.19,1.47,4.84,2.22,12.43,2.28,17.51m-35.5-35.5c-1.83-.05-5,2.41-6.1,3.86-1.76,2.37-1.62,5.08-1.82,7.89-.21,3,.08,6.42-.24,9.24-.09.82-.67,1.5-.69,1.9s.42,1.39.21,2.05c1.63-.26,3.21-.77,4.8-1.19.19,0,.39,0,.48-.24.16,0,.32,0,.48,0a29.26,29.26,0,0,0,6.24-1.44c2.48-.77,5,.78,6.23,2.87a15.89,15.89,0,0,1,1.94,6.84,13.55,13.55,0,0,1-.42,2c-.09,2.53.78,3-1,5.36-2,2.59-4.39,5.44-6.47,8.16-.47.61-1.33,1.43-1.17,2.22,1.58,3,2.92,5.43,5.48,7.73,2.25,2,6.51,5.48,9.66,5.11,1.1-.12,6.6-3,7.49-3.79,5.91-5.51,8-18.79,7.56-26.5,0-.83-.39-2-.48-2.76a46.4,46.4,0,0,0-2.45-11.82c-1-2.42-4-6.2-5.46-8.56a10.8,10.8,0,0,0-1.55-2.65c-1.8-1.82-10.34-7.16-12.73-7.43s-6.25.36-8.85.75a1.65,1.65,0,0,0-1.1.45m-13,14.87c-.51.85-3.76,5.57-3.81,5.92a8.43,8.43,0,0,1,.45,2.24c0,.48-.2,1-.24,1.44A26.24,26.24,0,0,0,93.54,94.1c.38.85,1.19,1.49,1.5,2.1,1.46,2.86,2.17,5.09,4.16,7.83.85,1.19,5.3,5.71,5.47,6.16,0,.12,0,.34,0,.48.1.43-.14.77.22,1.34a14.17,14.17,0,0,0,2.42,1.78c1.45,1,3,1.12,1.68,3.36,1.65.57,3.34,1,5,1.44.66.17,1.45.51,2.13.63.23,0,.75.21.5-.27-.13-.25-2.49-1.85-3-2.29-.69-.6-1.38-1.28-2-1.91-.25-.23-.47-.48-.72-.72a3.5,3.5,0,0,0-1.2-1.68c-1.46-2.51-2.52-4.82-3.8-7.35C100.47,94.19,95.11,86.58,96,73.74A30.08,30.08,0,0,1,97,69.52c.16-.73.18-1.73.26-2.49ZM91,93.41a29.49,29.49,0,0,1-1.55-3.61,17.89,17.89,0,0,1-.82-3.26c-.21-2,.27-3.89.09-5.84-2,4-.35,8.85.6,13Zm-11.52-9.6c0-.6.59-2.13,0-2.53a2.31,2.31,0,0,0-2.65.74c.41.33,1.09.32,1.53.62.65.46.35,1.29,1.1,1.17m31.67,1c0,4,.33,4,2.88,6.72.63.66,1.49,1.16,1.68,2.15.42-.19.66-1.42.7-1.82a29.78,29.78,0,0,0-.5-4.5c-.26-1.45-.84-4-2-4.95-2.89-2.46-2.75.18-2.76,2.4m1.44,9.6c-1.57-1.31-4.32-4.5-4.32-6.6v-5.4l-8.38,2.31c1.4,6.6,5.56,12.17,8.15,18.32l1.67-.6a22.23,22.23,0,0,1,2.4-4c.69-1,1.64-1.84,2.39-2.76a19.35,19.35,0,0,0-1.91-1.31M79.72,86.21c-.14-.39.32-1.51-.72-1.44,0,.31.13,1,0,1.17a19.82,19.82,0,0,1-2.31,1c-.57.07-1.12-.21-1.35-.16-.67.14-.71,2.22-.86,2.84a4.08,4.08,0,0,1,2.63,1.2c.16.2.13,1,.6,1.19l2.72-4.71c.06-.45-.59-.8-.68-1m6,2.16c-.14-.87-.19-1.77-.36-2.64-1.53,1.73-2.62,4.5-4.2,6.11a6.63,6.63,0,0,1-1.4.88c-.46.74.27,6,.56,7.16a8.62,8.62,0,0,0,1.56,3.6,4.45,4.45,0,0,1,.37-2.63c.45-.68,1.08-.64,1.56-1.08s1.55-2.16,2.16-2.88,1.34-1.24,1.89-2c.09-.48-.62-.65-.7-.8a26,26,0,0,1-1.44-5.76M71.09,86.69c-.12-.13-2.53,1.19-2.4,1.8l2.16.84ZM43.24,89.07l-.45-1.8-2.17.38.75,1.9Zm16.33,9.37A6.12,6.12,0,0,1,62,97.61l.21-.26a9.07,9.07,0,0,1,.76-6A3.57,3.57,0,0,1,61,89.09c-.13-.16-.52.68-.84,1-2.76,2.48-6.72,4.48-9.59,7-.52.93.83,5.69,1.2,6.95,2.37,8.15,7.39,14.79,11.51,22.07.5.49,2.62-.63,3.09-1,2-1.58-.94-3.8-.33-6-2,.82-3.08.39-4.67-1-2-1.67-1.28-1.88-1.92-3.84-1-3-2.57-4.2-2.76-7.9-.12-2.21.22-2.62.66-4.49.14-.6-.06-1.26.1-1.82s1.56-1.33,2.11-1.61m-3.35-9.11-7.68,1c.52,3-2.17,4.08-3.75,1.46L43.52,92c-.11,1.15,1,2,0,3a17.83,17.83,0,0,1,5.74-.24Zm13.19,4.32h-1.2V95.8c1.24,0,1.09-1.2,1.2-2.15M41.82,95.33c-.83,0-1.19-1.36-2-1.17l-5.93,4.52,7.77-2.86Zm44.86,13.91a10.55,10.55,0,0,1-.47-3.71c0-.31.36-.56.4-.77.08-.59-.36-1.38-.11-2.3.44-1.64,3.93-4.36,5.22-5.58l-.4-.57c-1-.3-1.55.57-2.12,1.17a40.28,40.28,0,0,0-3.61,5c-.23.33-.78.42-.84.65-.34,1.35.9,5,1.93,6.07m-52.53-6.72c-.62.2-4,1-4.09,1.36-.21,4.93,1.59,10.15,3.57,14.63s4.27,6.72,6.95,10.56c1.34,1.92,2,3.83,3.78,5.34.2.16.27.61.39.68,1,.58,3.63-.66,4.67-1.11,1.5-.65,10.06-5.34,10.36-6.45.25-.94-.66-1.27-.93-1.75-3.32-5.91-7.36-11.56-9.66-18A32.11,32.11,0,0,1,47.1,98.2c-.48-.48-11.36,3.8-13,4.32m33.1,7.91c-.25.14-1.36.07-1.45.39a5.6,5.6,0,0,0,1,3.66c.46.27,1.44-.74,2.06-.87,1.29-.27,3,.12,3.57,1.39l2.74-1.09c.18-.57-1.35-1.41-1.79-2a8.7,8.7,0,0,1-1.11-3.94c0-.57.31-1.28.22-1.64-.2-.83-1.64-1.71-1.85-3.91-.07-.69.18-2.5.09-2.72-.51-1.27-3-.32-4,0-.13.66.56.48.93,1.1a1.94,1.94,0,0,1,.27,1A3.94,3.94,0,0,1,66.29,105c-.19.44.94.43,1.43.73a2.42,2.42,0,0,1,.86,3,11.5,11.5,0,0,1-1.33,1.66m10.55-7.91-.72-2.88a3.67,3.67,0,0,1-2.88,1v1.68c1.49-.69,2.17-.31,3.59.24m15.83-2.16-.47.12A18.09,18.09,0,0,0,97,107.2c.26.3,2.13,2.29,2.4,2l-3.93-5.29c-.63-.5-1.55-3.32-1.83-3.58M63.17,116c.15-.14-1.15-3-1.18-4,0-.77.42-1.51.17-2.3-.3-1-2.45-2-2.57-4.41-.09-1.76,1.43-3,1.06-4.64L58.4,102a22.6,22.6,0,0,0,1.23,7.11c.58,1.64,1.53,3.15,2.22,4.73.15.36.54,2.89,1.32,2.16M90,102.28a4.74,4.74,0,0,0-1.2,2.88c.2,2.93,2,3.74,3.59,5.64.45.54,2,3.09,2.32,3.19a2.58,2.58,0,0,0,3.17-2,31.29,31.29,0,0,1-5.48-5.9,4.19,4.19,0,0,0-.24-.48l-1.45-4.08c-.35.08-.52.46-.71.72m-12.12.48V103q.24-.12,0-.24M85.48,114a30.53,30.53,0,0,0-2-3.35c-1.24-2.24-1.27-3.39-3.72-4.92l-1.43-2a2.84,2.84,0,0,1-2.38,3.38l.33,2.14c.3.5,1.08-.71,1.5-.91,2.62-1.24,5.3,1.39,3.19,3.91-.38.45-1,.57-1.21,1.07a17.54,17.54,0,0,1,5.76.72m-66,2.64c.36-1.55,2.13-2.24,3.35-3.12v-.35c-1.61-1.66-2.43-6.53-5.15-6.85-1.32-.15-4.93-.14-6,.44a5.42,5.42,0,0,0-2.49,4c0,2.56,1.46,3,2.91,4.55,3.09,3.39,6.5,6.8,8.15,11.16.45.06.17-.48.13-.73a40.18,40.18,0,0,1-.85-4c-.09-1,0-2.18,0-3.23,0-.35.05-1.84,0-1.92M87,109.48v.24q.24-.12,0-.24m1.56,2.39,6.84,8.39c.57-.56,1.23-1,1.8-1.54.39-.4,3.06-3.38,3.11-3.61a.56.56,0,0,0-.59-.6c-.27.06-2.58,2.35-3.38,2.41-.49,0-.76-.39-1.2-.48s-.91,0-1.38-.06c-1.62-.36-3.18-3-4.36-4-.27-.23-.39-.57-.84-.48M32.47,125.06a66.35,66.35,0,0,1-4.55-10.44c-.25-.19-4.56,2.28-5.49,1.84-1.25,4.55,1.25,8.78,2.07,13,.05.26-.22.68-.19.83a1.84,1.84,0,0,1-1.18-.37c-.87-.51-1.11-1.24-1.93-1.55.24,1.1.72,2.12,1,3.21a43.48,43.48,0,0,1,.93,9.5c0,.72,0,1.44,0,2.16s-.15,3.55.64,3.81a24.84,24.84,0,0,0,5.72.26c1.22-.24,1.47-2.41,1.56-3.47.26-3.32-.71-6.84-.48-10.19-1.55.25-1.95,2.54-3.6,1.2,0-.21-.3-.53-.24-1.05s.44-.87.48-1.35l6.68-5.07c.36-.62-1.13-1.91-1.4-2.37m30.82-8.86c-.24.16.13.32.24.47.24-.16-.11-.32-.24-.47m11.4.47a5.92,5.92,0,0,0-1.19.26c0,.76.22,2.63,1,3,.52.25,1,0,1.44.12.57.14,1.06.86,1.36.92s.29-.2.31-.2h1.21c.25-1.38-1.34-2-2.16-3.12-.21-.27-.4-1.29-.87-1.41s-.77.35-1,.45m11,.72c-.55-.17-1.11-.72-1.92-.48l-.48,2.64c1.49-.52,3.07-.32,3.36,1.44.48.19.61-.44.72-.48a2.55,2.55,0,0,1,.48,0,15.14,15.14,0,0,0,1.65,0c.75-2.36-.18-1.64-1.41-2.13-.85-.34-1.44-.66-2.4-1m-15.11,1.44a.93.93,0,0,0-.73.11l-.21.28.58,1.77c.23-.41.77-1.88.36-2.16m46.41.48v.24q.24-.12,0-.24m-34.18,1,.12-.72-.36.36v.36ZM68.45,127c-.24.17-.88.12-1.22.58-1,1.34,1.27,1.77,1.94,2.3l1.14,1c.27.26.22,1,.78,1.14.2-2.1-.63-4-1.2-6-.74-.15-1.12.74-1.44,1M21,127h-.23v.48H21Zm.12.72v.24q.24-.12,0-.24m40.42,2.88a28.31,28.31,0,0,1-4.79,3.84,18.25,18.25,0,0,0-2.42,1.33c2.09,3.29,3.14,7.09,4.77,10.58.3.63.74,1.22,1,1.76l.48,1a7.56,7.56,0,0,1,1.23,3.09c1,.66,5.58-2.64,6.47-3.5-.8-2.09-1.47-4.44-2.37-6.47-1.08-2.42-3.14-4.66-2.9-7.36.21-2.24,1.31-4.51.93-6.87-.39,0-.26.58-.58,1a19.29,19.29,0,0,1-1.82,1.66m8.16,2.88a2.71,2.71,0,0,1-2.76-1l-.6,2.88c.25.26,2.71-1.11,3.06-1.37.19-.16.44,0,.3-.55"/><path class="ef87e4c8-0a35-4d2e-9bad-9203ef033980" d="M120.74,63.67a5.35,5.35,0,0,1,1,.72c1.41,1.31,2.44,3.44,3.6,4.91a1.84,1.84,0,0,0,1.2.84c0,.07,0,.18,0,.24a23,23,0,0,0,.86,2.38c.38.65,1.39,1.23,1.78,1.94,1.13,2.09,1.7,6.28,2.87,8s2.75,1,4.32.35c.15.65.36,1.33.48,1.92.35,1.72.66,3.6,1,5.14,2.05,9.82-.52,16.2-7.81,22.69-1.35,1.2-4.63,4-6.46,3.83-1.52-.15-4.17-2.16-5.78-2.63-.74-1.34-5.25-6.28-5.36-7.36s1.73-.71,2.46-1.07c2-1,2.4-3.47,3-5.44,1.3-4.61,2.33-10,1.49-14.77-.24-1.37-.73-3.2-2.14-3.75-1.25-2.09-3.75-3.64-6.23-2.87a2.75,2.75,0,0,0-2.22-.92c-.26,0-2.61,1-3,1.15s-1,.61-1.07,1.21c-.16,0-.32,0-.48,0s-.25-.37-.48,0l-1.93-.16c-.81-3.88-1.16-7.36.38-11.11,1.14-2.81,3.07-4.85,5.15-7,1.38.23,3.49-1.2,4.68-1.18.21,0,3.45.5,3.72.57.43.11,4.28,1.93,5,2.29"/><path class="fdf888a6-2f0b-4981-81e6-cfe2475ae9d7" d="M107.55,56.71c.13,0,.78.46,1.2.24l-.24,1.92c.1.11,2.5-.5,3-.47.78.05,2.62.77,3.63.93.82.12,1.69-.07,2.56.08s5.33,2.53,5.57,3.06,0,1,.18,1.5c.38,1.41,2,1.58,2.94,2.34.71.56,1.69,2.36,2.45,2.59,1.08.33,1.8-.74,2.95-.44,0-1-.58-1.94,0-2.87,1.46,2.36,4.51,6.14,5.46,8.56A46.4,46.4,0,0,1,139.69,86c-1.18.23-1.87-.63-2.88-1-.12-.59-.33-1.27-.48-1.92a54.79,54.79,0,0,0-1.92-6.23,22.73,22.73,0,0,0-2-5.28l-.73,1.67c-1.25,2-2.09-.83-3.21-1.56l-1.93-1.31c0-.06,0-.17,0-.24-.44-1-2.82-4.86-3.58-5.41a1.39,1.39,0,0,0-1.22-.34,5.35,5.35,0,0,0-1-.72,9.22,9.22,0,0,0-4.3-3.49c-1.73-.37-3.34.39-4.69.12-.68-.13-.91-1-1.44-1-.13,0-1.18.76-1.56,1-4.14,2.31-4.86,4.53-8.15,7.56-.3.27-.5.6-1,.59.2-2.8.06-5.52,1.82-7.89,1.07-1.45,4.27-3.91,6.1-3.86"/><path class="bf202f6c-f257-47e4-8110-2375bdb9edca" d="M117.14,81.65c1.41.55,1.9,2.38,2.14,3.75.84,4.78-.19,10.16-1.49,14.77-.55,2-1,4.43-3,5.44-.73.36-2.56.08-2.46,1.07s4.62,6,5.36,7.36c1.61.47,4.26,2.47,5.78,2.63,1.83.18,5.11-2.63,6.46-3.83,7.29-6.49,9.86-12.87,7.81-22.69-.32-1.55-.63-3.42-1-5.14,1,.33,1.7,1.19,2.88,1,.09.8.43,1.93.48,2.76.46,7.71-1.65,21-7.56,26.5-.89.83-6.39,3.67-7.49,3.79-3.15.37-7.41-3.08-9.66-5.11-2.56-2.3-3.9-4.74-5.48-7.73-.16-.79.7-1.61,1.17-2.22.77,0,1.24.26,2,0a19.49,19.49,0,0,0,2.63-1.71c.9-1,1.83-5,1.8-6.47,1.82-2.36.95-2.83,1-5.36a13.55,13.55,0,0,0,.42-2,15.89,15.89,0,0,0-1.94-6.84"/><path class="bcbe2bb1-cb7d-4647-95ef-5798eec52996" d="M32.47,125.06c-.67.15-.63,1.08-1,1.32s-.87.16-1.29.39a17.86,17.86,0,0,0-2.41,2.15,3.25,3.25,0,0,0-.62,3.58c0,.48-.42.87-.48,1.35s.24.84.24,1.05c.08,2.66.21,5.35.46,8-1.49,1.48-2.57,1.07-4.3.39,0-.71,0-1.44,0-2.16.73.14.47-.36.48-.83a19.11,19.11,0,0,1,.05-3.32c.1-.34.78-.83,1.05-1.35,1.26-2.42,0-3.21-.38-5.29,0-.15.24-.57.19-.83-.82-4.27-3.32-8.5-2.07-13,.93.44,5.24-2,5.49-1.84a66,66,0,0,0,4.55,10.44"/><path class="ecbbb62d-1b10-465a-8060-abd40a3622b0" d="M56.7,106.36c.19,3.7,1.8,5,2.76,7.9.64,2,0,2.17,1.92,3.84,1.59,1.36,2.63,1.79,4.67,1-.61,2.16,2.34,4.38.33,6-.47.37-2.59,1.49-3.09,1-4.12-7.28-9.14-13.92-11.51-22.07-.37-1.26-1.72-6-1.2-6.95,2.87-2.48,6.83-4.48,9.59-7,.32-.28.71-1.12.84-1A3.57,3.57,0,0,0,63,91.38a9.07,9.07,0,0,0-.76,6l-.21.26a6.12,6.12,0,0,0-2.41.83c-.17-.77.82-1.34.92-1.85s-.2-.74-.17-1.12a6.65,6.65,0,0,0,.21-2.06c-2.62-.56-2.29.84-3.54,1.92-.69.6-4.12,2.09-4.35,2.8.27,3.19,2.47,5.68,3.58,8.58Z"/><path class="f2468191-3f2b-45fb-bd6a-969840bb4d98" d="M34.15,102.52c1.59-.52,12.47-4.8,13-4.32a32.11,32.11,0,0,0,2.09,9.54c2.3,6.48,6.34,12.13,9.66,18-1-.36-2,.79-2.63.24,1.67-2,.06-1.64-.5-2.32-2.09-2.54-3.77-7.74-6-10.47l-4.09-9.7c-7.28-1.14-3.8,7-2.35,10.74a12.64,12.64,0,0,1-1.72-2.71c-.55-1.37-.72-3.79-2.12-4.24-.27-.78-.59-2.27-1.57-2.41a39.73,39.73,0,0,0-3.94,1.21c-1.13-1-.35-2.6.24-3.6"/><path class="ecbbb62d-1b10-465a-8060-abd40a3622b0" d="M34.15,102.52c-.59,1-1.37,2.62-.24,3.6a12.77,12.77,0,0,0-1.63,3.31c-.34,4.23,4.88,11.86,7.1,15.56,1.14,1.89,1.71,3.4,3.4,5.11-.1,1.22,2.29,2.43,3.22,2.39a25.6,25.6,0,0,0,3.72-1.09c1.27-.62,2.26-2,3.14-2.74A23.11,23.11,0,0,0,56.22,126c.64.55,1.66-.6,2.63-.24.27.48,1.18.81.93,1.75-.3,1.11-8.86,5.8-10.36,6.45-1,.45-3.67,1.69-4.67,1.11-.12-.07-.19-.52-.39-.68-1.78-1.51-2.44-3.42-3.78-5.34-2.68-3.84-5-6-6.95-10.56s-3.78-9.7-3.57-14.63c.08-.34,3.47-1.16,4.09-1.36"/><path class="eecf0aad-4021-4fc6-8c39-2a82dd063762" d="M131.78,65.59c-.58.93,0,1.91,0,2.87-1.15-.3-1.87.77-2.95.44-.76-.23-1.74-2-2.45-2.59-.95-.76-2.56-.93-2.94-2.34-.13-.49,0-1-.18-1.5s-4.8-2.93-5.57-3.06-1.74,0-2.56-.08c-1-.16-2.85-.88-3.63-.93-.49,0-2.89.58-3,.47l.24-1.92c-.42.22-1.07-.23-1.2-.24a1.65,1.65,0,0,1,1.1-.45c2.6-.39,6.32-1,8.85-.75s10.93,5.61,12.73,7.43a10.8,10.8,0,0,1,1.55,2.65"/><path class="ef87e4c8-0a35-4d2e-9bad-9203ef033980" d="M91.24,79.74c1.53-.64,2-2.92,3.35-3.84-.16,9.21,3.46,18.6,7.88,26.54,1.74,3.12,3.89,5.86,5.76,8.86.14.22.16.4.52.34h-1.2s-.36-.5-.48-.72c-.84-1.56-2.15-1.78-3.47-2.88s-6.87-7.72-7-9.26c0-.45.4-1.06.43-1.65.06-1.51-3.53-7.69-4.27-9.89a31.66,31.66,0,0,1-1.19-5.3c-.07-.43.09-.9-.55-.75,0-.49.22-1,.24-1.44"/><path class="bf202f6c-f257-47e4-8110-2375bdb9edca" d="M94.6,71.58c.69.42-.15,2.5,0,2.64L96,73.74c-.92,12.84,4.44,20.45,9.88,31.25,1.28,2.54,2.34,4.85,3.8,7.36.54.94.21.75,1.2,1.68.25.24.47.49.72.72.14,1.52,2.32,2.21,2.4,3.84-1.7-.44-3.39-.87-5-1.44,1.27-2.24-.23-2.35-1.68-3.36a8,8,0,0,0,.24-2.16h1.2c-.36.06-.38-.12-.52-.35-1.87-3-4-5.73-5.76-8.85-4.42-7.94-8-17.33-7.88-26.54-1.34.92-1.82,3.2-3.35,3.84a8.43,8.43,0,0,0-.45-2.24c0-.35,3.3-5.07,3.81-5.92"/><path class="bf202f6c-f257-47e4-8110-2375bdb9edca" d="M112.11,98.44a22.23,22.23,0,0,0-2.4,4L108,103c-2.59-6.15-6.75-11.72-8.15-18.32l8.38-2.31v5.4c0,2.1,2.75,5.29,4.32,6.6l-.7,1.35.09.33.63.39Zm-1-2.83c-3.42-2.09-4.58-6.1-4.85-9.9l-3-.46c-.73.72,4.58,13.6,5.52,15.35.55.12.38-.06.54-.3.36-.57,2-4.28,1.81-4.69"/><path class="fd32a5a8-6553-46d6-b2fb-85ed5c8e650a" d="M19.52,118.59c0,1-.09,2.2,0,3.23a40.18,40.18,0,0,0,.85,4c.05.25.32.79-.13.73-1.65-4.37-5.06-7.77-8.15-11.16-1.45-1.58-2.92-2-2.91-4.55a5.42,5.42,0,0,1,2.49-4c1.12-.58,4.73-.59,6-.44,2.72.32,3.54,5.19,5.15,6.85v.35c-1.22.88-3,1.57-3.35,3.12,0,0-.39.08-.46,0s-.66-4.27-1.26-5.34c-.73-1.35-4.23-3.59-5.62-2.57a13.53,13.53,0,0,0-1.78,4c0,.22.12.31.24.46a44.94,44.94,0,0,0,4.72,3.2c1,.61,2,1.28,2.94,1.85.43.25.65.48,1.22.35"/><path class="bcbe2bb1-cb7d-4647-95ef-5798eec52996" d="M60.53,149.05l-.48-1c.91-1.08.19-2.63,0-3.74-.48-3.37-.75-3.2-2.06-6.1a17.54,17.54,0,0,1-1.32-3.83,28.31,28.31,0,0,0,4.79-3.84c0,2.78-.07,7,1.58,9.34.49.71,1.53,1.17,1.84,1.75.46.87,1.27,3.58.68,4.4-.08.1-1.72,1.47-2,1.64a5,5,0,0,1-3.1,1.34"/><path class="fd32a5a8-6553-46d6-b2fb-85ed5c8e650a" d="M27,134.9c1.65,1.34,2.05-1,3.6-1.2-.23,3.35.74,6.87.48,10.19-.09,1.06-.34,3.23-1.56,3.47a24.84,24.84,0,0,1-5.72-.26c-.79-.26-.61-3.06-.64-3.81,1.73.68,2.81,1.09,4.3-.39-.25-2.65-.38-5.34-.46-8"/><path class="bcbe2bb1-cb7d-4647-95ef-5798eec52996" d="M19.52,118.59c-.57.13-.79-.1-1.22-.35-1-.57-2-1.24-2.94-1.85a44.94,44.94,0,0,1-4.72-3.2c-.12-.15-.27-.24-.24-.46a13.53,13.53,0,0,1,1.78-4c1.39-1,4.89,1.22,5.62,2.57.6,1.07,1.09,5.13,1.26,5.34s.43,0,.46,0,0,1.57,0,1.92"/><path class="a908df4f-517e-4c58-ba8e-6621355d87d3" d="M68,101.8a1.94,1.94,0,0,0-.27-1c-.37-.62-1.06-.44-.93-1.1,1-.32,3.45-1.27,4,0,.09.22-.16,2-.09,2.72.21,2.2,1.65,3.08,1.85,3.91.09.36-.25,1.07-.22,1.64a8.7,8.7,0,0,0,1.11,3.94c.44.64,2,1.48,1.79,2L72.43,115c-.59-1.27-2.28-1.66-3.57-1.39-.62.13-1.6,1.14-2.06.87a5.6,5.6,0,0,1-1-3.66c.09-.32,1.2-.25,1.45-.39.48.28.49,1.09.78,1.38.49.5,3.15-.2,3.3-1,.43-2.36-.82-2.29-1.64-3.89a10.25,10.25,0,0,1-.76-5.23Z"/><path class="fd32a5a8-6553-46d6-b2fb-85ed5c8e650a" d="M61.49,130.58a19.29,19.29,0,0,0,1.82-1.66c.32-.4.19-.93.58-1,.38,2.36-.72,4.63-.93,6.87-.24,2.7,1.82,4.94,2.9,7.36.9,2,1.57,4.38,2.37,6.47-.89.86-5.45,4.16-6.47,3.5a7.56,7.56,0,0,0-1.23-3.09,5,5,0,0,0,3.1-1.34c.24-.17,1.88-1.54,2-1.64.59-.82-.22-3.53-.68-4.4-.31-.58-1.35-1-1.84-1.75-1.65-2.38-1.59-6.56-1.58-9.34"/><path class="f2468191-3f2b-45fb-bd6a-969840bb4d98" d="M56.7,106.36l-.48.35c-1.11-2.9-3.31-5.39-3.58-8.58.23-.71,3.66-2.2,4.35-2.8,1.25-1.08.92-2.48,3.54-1.92a6.65,6.65,0,0,1-.21,2.06c0,.38.24.74.17,1.12s-1.09,1.08-.92,1.85c-.55.28-1.94,1-2.11,1.61s0,1.22-.1,1.82c-.44,1.87-.78,2.28-.66,4.49"/><path class="bf202f6c-f257-47e4-8110-2375bdb9edca" d="M108.75,60.31c-.45.53-1,1.19-1.44,1.68-2.08,2.11-4,4.15-5.15,7-1.54,3.75-1.19,7.23-.38,11.11l1.93.16v.24c-1.59.42-3.17.93-4.8,1.19.21-.66-.24-1.52-.21-2.05s.6-1.08.69-1.9c.32-2.82,0-6.21.24-9.24.47,0,.67-.32,1-.59,3.29-3,4-5.26,8.15-7.56"/><path class="e59e8b2d-e785-4841-ac88-24dc3cde2af8" d="M91,81.18c.64-.15.48.32.55.75a31.66,31.66,0,0,0,1.19,5.3c.74,2.2,4.33,8.38,4.27,9.89,0,.59-.48,1.2-.43,1.65.15,1.54,5.61,8.09,7,9.26s2.63,1.32,3.47,2.88c-.15,0-.36,0-.48,0a3.51,3.51,0,0,0-1.78-.94l-.14.23c-.17-.46-4.62-5-5.47-6.17-2-2.74-2.7-5-4.16-7.83-.31-.61-1.12-1.25-1.5-2.1A26.24,26.24,0,0,1,91,81.18"/><path class="ff9b8f76-61b1-4f4a-b583-c77fdd398fb6" d="M85.72,88.37a25.85,25.85,0,0,0,1.44,5.76l-5.28,5.75c.33-1.74-.32-3.34-.47-4.92-.28-2.86.47-2.11,1.91-3.84.72-.86,1.26-2.4,2.4-2.75"/><path class="fdf888a6-2f0b-4981-81e6-cfe2475ae9d7" d="M85.72,88.37c-1.14.35-1.68,1.89-2.4,2.75-1.44,1.73-2.19,1-1.91,3.84.15,1.58.8,3.18.47,4.92l5.28-5.75c.08.15.79.32.7.8-.55.72-1.31,1.27-1.89,2s-1.63,2.38-2.16,2.88-1.11.4-1.56,1.08a4.45,4.45,0,0,0-.37,2.63,8.62,8.62,0,0,1-1.56-3.6c-.29-1.16-1-6.42-.56-7.16a6.63,6.63,0,0,0,1.4-.88c1.58-1.61,2.67-4.38,4.2-6.11.17.87.22,1.77.36,2.64"/><path class="fdf888a6-2f0b-4981-81e6-cfe2475ae9d7" d="M88.84,105.16c.76,0,.6.81,1.38,1.13.21.09,2.48.75,2.22-.17a31.29,31.29,0,0,0,5.48,5.9,2.57,2.57,0,0,1-3.17,2c-.29-.1-1.87-2.65-2.32-3.19-1.61-1.9-3.39-2.71-3.59-5.64"/><path class="fd32a5a8-6553-46d6-b2fb-85ed5c8e650a" d="M60.05,148.09c-.26-.54-.7-1.13-1-1.76-1.63-3.49-2.68-7.29-4.77-10.58a18.25,18.25,0,0,1,2.42-1.33A17.54,17.54,0,0,0,58,138.25c1.31,2.9,1.58,2.73,2.06,6.1.16,1.11.88,2.66,0,3.74"/><path class="a908df4f-517e-4c58-ba8e-6621355d87d3" d="M85.48,114a17.54,17.54,0,0,0-5.76-.72c.26-.5.83-.63,1.21-1.07,2.11-2.53-.57-5.15-3.19-3.91-.42.2-1.2,1.4-1.5.91l-.33-2.14a2.84,2.84,0,0,0,2.38-3.38l1.43,2c2.45,1.53,2.48,2.68,3.72,4.92a29.62,29.62,0,0,1,2,3.35"/><path class="fdf888a6-2f0b-4981-81e6-cfe2475ae9d7" d="M111.15,84.77c0-2.22-.13-4.86,2.76-2.4,1.16,1,1.74,3.5,2,4.95a28.51,28.51,0,0,1,.49,4.5c0,.4-.27,1.62-.69,1.82-.19-1-1-1.49-1.69-2.15.4-.25.24-.91.25-1.32a23.3,23.3,0,0,0,0-4,16.06,16.06,0,0,0-1.53-1.84c-.24-.06-1,.74-1.54.47"/><path class="bcbe2bb1-cb7d-4647-95ef-5798eec52996" d="M68,101.8l1-.12a10.25,10.25,0,0,0,.76,5.23c.82,1.6,2.07,1.53,1.64,3.89-.15.81-2.81,1.51-3.3,1-.29-.29-.3-1.1-.78-1.38a11.5,11.5,0,0,0,1.33-1.66,2.42,2.42,0,0,0-.86-3c-.49-.3-1.62-.29-1.43-.73A3.94,3.94,0,0,0,68,101.8"/><path class="fd32a5a8-6553-46d6-b2fb-85ed5c8e650a" d="M32.47,125.06c.27.46,1.76,1.75,1.4,2.37l-6.68,5.07a3.25,3.25,0,0,1,.62-3.58,17.86,17.86,0,0,1,2.41-2.15c.42-.23,1-.2,1.29-.39s.29-1.17,1-1.32"/><path class="a7cf2dcd-8fc8-4078-abbe-77f0503a574e" d="M88.6,111.87c.44-.09.57.25.84.48,1.18,1,2.74,3.67,4.36,4,.47.1,1,0,1.38.06s.7.52,1.2.48c.8-.06,3.11-2.35,3.38-2.41a.56.56,0,0,1,.59.6c0,.23-2.72,3.21-3.11,3.61-.57.57-1.23,1-1.81,1.54Z"/><path class="a908df4f-517e-4c58-ba8e-6621355d87d3" d="M63.17,116c-.78.73-1.17-1.8-1.32-2.15-.69-1.59-1.64-3.1-2.22-4.74A22.6,22.6,0,0,1,58.4,102l2.25-1.35c.37,1.64-1.15,2.88-1.06,4.65.12,2.44,2.27,3.4,2.57,4.4.25.8-.19,1.53-.17,2.31,0,1,1.33,3.85,1.18,4"/><path class="fd32a5a8-6553-46d6-b2fb-85ed5c8e650a" d="M24.31,130.34c.4,2.08,1.64,2.87.38,5.29-.27.52-1,1-1.05,1.35a19.11,19.11,0,0,0-.05,3.32c0,.47.25,1-.48.83a43.48,43.48,0,0,0-.93-9.5c-.26-1.09-.74-2.11-1-3.21.82.31,1.06,1,1.93,1.55a1.84,1.84,0,0,0,1.18.37"/><path class="eecf0aad-4021-4fc6-8c39-2a82dd063762" d="M117.62,95.8c0,1.48-.89,5.43-1.8,6.47a19.49,19.49,0,0,1-2.63,1.71c-.8.24-1.27,0-2,0,2.08-2.72,4.48-5.57,6.47-8.16"/><path class="ff9b8f76-61b1-4f4a-b583-c77fdd398fb6" d="M114,91.49c-2.55-2.67-2.91-2.74-2.88-6.72.54.27,1.3-.53,1.54-.47a16.06,16.06,0,0,1,1.53,1.84,23.3,23.3,0,0,1,0,4c0,.41.15,1.07-.24,1.32"/><path class="a7cf2dcd-8fc8-4078-abbe-77f0503a574e" d="M86.68,109.24c-1-1.06-2.27-4.72-1.92-6.07,0-.23.6-.32.83-.65a40.28,40.28,0,0,1,3.61-5c.57-.6,1.16-1.47,2.12-1.17l.4.57c-1.29,1.22-4.78,3.94-5.22,5.58-.25.92.19,1.71.11,2.3,0,.22-.37.46-.4.77a10.55,10.55,0,0,0,.47,3.71"/><path class="a21b8623-2308-4993-8afd-c416d7248997" d="M91,93.41l-1.68.24c-.95-4.1-2.59-9-.6-13,.18,2-.3,3.86-.09,5.84a17.89,17.89,0,0,0,.82,3.26A29.49,29.49,0,0,0,91,93.41"/><path class="ecbbb62d-1b10-465a-8060-abd40a3622b0" d="M41.82,95.33l-.14.49-7.77,2.86,5.93-4.52c.79-.19,1.15,1.15,2,1.17"/><path class="eecf0aad-4021-4fc6-8c39-2a82dd063762" d="M96,73.74l-1.43.48c-.15-.14.69-2.22,0-2.64L97.23,67c-.08.76-.1,1.76-.26,2.49A30.08,30.08,0,0,0,96,73.74"/><path class="ff9b8f76-61b1-4f4a-b583-c77fdd398fb6" d="M90,102.28c.81.7,1.18,2.74,1.72,3.32.12.12.42,0,.44,0s.17.39.24.48c.26.92-2,.26-2.22.17-.78-.32-.62-1.12-1.38-1.13a4.74,4.74,0,0,1,1.2-2.88"/><path class="a96c3ebb-7cac-4045-aee9-9a5464b70a35" d="M110.91,78.78a29.26,29.26,0,0,1-6.24,1.44c0-.6.61-1,1.07-1.21s2.69-1.11,3-1.15a2.75,2.75,0,0,1,2.22.92"/><path class="a21b8623-2308-4993-8afd-c416d7248997" d="M93.63,100.36c.28.26,1.2,3.08,1.83,3.58l3.93,5.29c-.27.26-2.14-1.73-2.4-2a18.09,18.09,0,0,1-3.83-6.72Z"/><path class="a908df4f-517e-4c58-ba8e-6621355d87d3" d="M77.8,102.52c-1.42-.55-2.1-.93-3.59-.24V100.6a3.67,3.67,0,0,0,2.88-1Z"/><path class="fdf888a6-2f0b-4981-81e6-cfe2475ae9d7" d="M106.59,110.91c.12,0,.33,0,.48,0,.12.22.47.68.48.72a8,8,0,0,1-.24,2.16,14.17,14.17,0,0,1-2.42-1.78c-.36-.57-.12-.91-.22-1.34,1,0,1,.56,1.92.24"/><path class="fdf888a6-2f0b-4981-81e6-cfe2475ae9d7" d="M111.63,114.75c.66.63,1.35,1.31,2,1.91.5.44,2.86,2,3,2.29.25.48-.27.3-.5.27-.68-.12-1.47-.46-2.13-.63-.08-1.63-2.26-2.32-2.4-3.84"/><path class="eecf0aad-4021-4fc6-8c39-2a82dd063762" d="M112.59,94.37a19.35,19.35,0,0,1,1.91,1.31c-.75.92-1.7,1.81-2.39,2.76l.5-2-.63-.39-.09-.33Z"/><path class="fdf888a6-2f0b-4981-81e6-cfe2475ae9d7" d="M92.2,105.64s-.32.08-.44,0c-.54-.58-.91-2.62-1.72-3.32.19-.26.36-.64.71-.72Z"/><path class="ecbbb62d-1b10-465a-8060-abd40a3622b0" d="M70.61,118.83c.41.28-.13,1.75-.36,2.16l-.58-1.77.21-.28a.93.93,0,0,1,.73-.11"/><path class="bf202f6c-f257-47e4-8110-2375bdb9edca" d="M106.59,110.91c-1,.32-.94-.19-1.92-.24,0-.14,0-.36,0-.47l.15-.23a3.52,3.52,0,0,1,1.77.94"/><path class="fdf888a6-2f0b-4981-81e6-cfe2475ae9d7" d="M110.91,114c-1-.93-.66-.74-1.2-1.68a3.5,3.5,0,0,1,1.2,1.68"/><path class="a96c3ebb-7cac-4045-aee9-9a5464b70a35" d="M104.19,80.22c-.09.23-.29.19-.48.24v-.24c.23-.37.45,0,.48,0"/><rect class="fd32a5a8-6553-46d6-b2fb-85ed5c8e650a" x="20.72" y="126.98" width="0.23" height="0.48"/><path class="fdf888a6-2f0b-4981-81e6-cfe2475ae9d7" d="M117,119.31q.24.12,0,.24Z"/><path class="fd32a5a8-6553-46d6-b2fb-85ed5c8e650a" d="M21.07,127.7q.24.12,0,.24Z"/><path class="a7cf2dcd-8fc8-4078-abbe-77f0503a574e" d="M87,109.48q.24.12,0,.24Z"/><path class="a908df4f-517e-4c58-ba8e-6621355d87d3" d="M63.29,116.2c.13.15.48.31.24.47-.11-.15-.48-.31-.24-.47"/><path class="a908df4f-517e-4c58-ba8e-6621355d87d3" d="M77.92,102.76q.24.12,0,.24Z"/><path class="ecbbb62d-1b10-465a-8060-abd40a3622b0" d="M56.22,89.33l-7,5.4a17.83,17.83,0,0,0-5.74.24c1.05-1-.1-1.84,0-3l1.26-.23c1.59,2.62,4.28,1.55,3.76-1.46Z"/><path class="ff9b8f76-61b1-4f4a-b583-c77fdd398fb6" d="M134.41,76.86a54.79,54.79,0,0,1,1.92,6.23c-1.57.6-3.12,1.44-4.32-.35s-1.74-5.95-2.87-8c2.1.06,3.17,2.49,5.27,2.16"/><path class="a96c3ebb-7cac-4045-aee9-9a5464b70a35" d="M126.5,70.38l1.93,1.31c1.12.73,2,3.51,3.21,1.56l.73-1.67a22.73,22.73,0,0,1,2,5.28c-2.11.33-3.17-2.1-5.27-2.16-.39-.71-1.4-1.29-1.78-1.94a23,23,0,0,1-.86-2.38"/><path class="e59e8b2d-e785-4841-ac88-24dc3cde2af8" d="M120.74,63.67c-.75-.36-4.6-2.18-5-2.29-.27-.07-3.51-.56-3.72-.57-1.19,0-3.3,1.41-4.68,1.18.48-.49,1-1.15,1.44-1.68.38-.21,1.43-1,1.56-1,.53,0,.76.83,1.44,1,1.35.27,3-.49,4.69-.12a9.22,9.22,0,0,1,4.3,3.49"/><path class="a96c3ebb-7cac-4045-aee9-9a5464b70a35" d="M126.5,70.14a1.84,1.84,0,0,1-1.2-.84c-1.16-1.47-2.19-3.6-3.6-4.91a1.39,1.39,0,0,1,1.22.34c.76.55,3.14,4.4,3.58,5.41"/><path class="a45d3c26-d317-4661-9256-dd8838e06a34" d="M39.42,107.32a101.11,101.11,0,0,0,8.2,18.55c.39.67.86.69,1.16,1.59a2.31,2.31,0,0,1-.6,2.88c-2.13,2-3.43,1.74-5.4-.24-1.69-1.71-2.26-3.22-3.4-5.11-2.22-3.7-7.44-11.33-7.1-15.56a12.77,12.77,0,0,1,1.63-3.31,39.73,39.73,0,0,1,3.94-1.21c1,.14,1.3,1.63,1.57,2.41m-1.7,3.14-2.37.46c-.32.34,1.56,3.87,1.87,4.47a99.11,99.11,0,0,0,5.41,9.23c.37.52,1.92,2.7,2.55,2.12.32-.29-3.7-6.63-4.12-7.51-1.33-2.82-2.15-5.89-3.34-8.77"/><path class="a45d3c26-d317-4661-9256-dd8838e06a34" d="M43.26,114.27c-1.45-3.75-4.93-11.88,2.35-10.74l4.09,9.7c2.25,2.73,3.93,7.93,6,10.47.56.68,2.17.27.5,2.32a23.11,23.11,0,0,1-3.36,2.64c-1.27.11-2.85-1.26-3.6-2.16-2-2.4-2-4-3.07-6.64a38.69,38.69,0,0,0-2.93-5.59m8.14,9.33.65-2.38c-3.1-4.44-6.06-9-7.23-14.38-1.38,1.22-.58,2.22-.06,3.65,1.26,3.46,3.8,7.06,4.87,10.25.13.4.45,3.92,1.77,2.86"/><path class="ecbbb62d-1b10-465a-8060-abd40a3622b0" d="M39.42,107.32c1.4.45,1.57,2.87,2.12,4.24a12.64,12.64,0,0,0,1.72,2.71,38.69,38.69,0,0,1,2.93,5.59c1,2.69,1.06,4.24,3.07,6.64v1h-.48c-.3-.9-.77-.92-1.16-1.59a101.11,101.11,0,0,1-8.2-18.55"/><path class="f2468191-3f2b-45fb-bd6a-969840bb4d98" d="M52.86,128.66c-.88.73-1.87,2.12-3.14,2.74A25.6,25.6,0,0,1,46,132.49c-.93,0-3.32-1.17-3.22-2.39,2,2,3.27,2.2,5.4.24a2.31,2.31,0,0,0,.6-2.88h.48v-1c.75.9,2.33,2.27,3.6,2.16"/><path class="ef87e4c8-0a35-4d2e-9bad-9203ef033980" d="M111.1,95.61c.24.41-1.45,4.12-1.81,4.69-.16.24,0,.42-.54.3-.94-1.75-6.25-14.63-5.52-15.35l3,.46c.27,3.8,1.43,7.81,4.85,9.9"/><path class="a7cf2dcd-8fc8-4078-abbe-77f0503a574e" d="M37.72,110.46c1.19,2.88,2,6,3.34,8.77.42.88,4.44,7.22,4.12,7.51-.63.58-2.18-1.6-2.55-2.12a99.11,99.11,0,0,1-5.41-9.23c-.31-.6-2.19-4.13-1.87-4.47Z"/><path class="a7cf2dcd-8fc8-4078-abbe-77f0503a574e" d="M51.4,123.6c-1.32,1.06-1.64-2.46-1.77-2.86-1.07-3.19-3.61-6.79-4.87-10.25-.52-1.43-1.32-2.43.06-3.65,1.17,5.38,4.13,9.94,7.23,14.38Z"/></svg>